<?xml version="1.0" encoding="utf-8" standalone="no"?>
<!DOCTYPE svg PUBLIC "-//W3C//DTD SVG 1.1//EN"
  "http://www.w3.org/Graphics/SVG/1.1/DTD/svg11.dtd">
<svg xmlns:xlink="http://www.w3.org/1999/xlink" width="617.189438pt" height="357.238125pt" viewBox="0 0 617.189438 357.238125" xmlns="http://www.w3.org/2000/svg" version="1.1">
 <metadata>
  <rdf:RDF xmlns:dc="http://purl.org/dc/elements/1.1/" xmlns:cc="http://creativecommons.org/ns#" xmlns:rdf="http://www.w3.org/1999/02/22-rdf-syntax-ns#">
   <cc:Work>
    <dc:type rdf:resource="http://purl.org/dc/dcmitype/StillImage"/>
    <dc:date>2022-10-17T08:52:20.094405</dc:date>
    <dc:format>image/svg+xml</dc:format>
    <dc:creator>
     <cc:Agent>
      <dc:title>Matplotlib v3.6.0, https://matplotlib.org/</dc:title>
     </cc:Agent>
    </dc:creator>
   </cc:Work>
  </rdf:RDF>
 </metadata>
 <defs>
  <style type="text/css">*{stroke-linejoin: round; stroke-linecap: butt}</style>
 </defs>
 <g id="figure_1">
  <g id="patch_1">
   <path d="M 0 357.238125 
L 617.189438 357.238125 
L 617.189438 0 
L 0 0 
L 0 357.238125 
z
" style="fill: none"/>
  </g>
  <g id="axes_1">
   <g id="patch_2">
    <path d="M 50.14375 78.104348 
L 608.14375 78.104348 
L 608.14375 7.2 
L 50.14375 7.2 
z
" style="fill: #ffffff"/>
   </g>
   <g id="matplotlib.axis_1">
    <g id="xtick_1">
     <g id="line2d_1">
      <defs>
       <path id="m199a0c0163" d="M 0 0 
L 0 3.5 
" style="stroke: #000000; stroke-width: 0.8"/>
      </defs>
      <g>
       <use xlink:href="#m199a0c0163" x="117.201035" y="78.104348" style="stroke: #000000; stroke-width: 0.8"/>
      </g>
     </g>
    </g>
    <g id="xtick_2">
     <g id="line2d_2">
      <g>
       <use xlink:href="#m199a0c0163" x="186.69045" y="78.104348" style="stroke: #000000; stroke-width: 0.8"/>
      </g>
     </g>
    </g>
    <g id="xtick_3">
     <g id="line2d_3">
      <g>
       <use xlink:href="#m199a0c0163" x="256.179865" y="78.104348" style="stroke: #000000; stroke-width: 0.8"/>
      </g>
     </g>
    </g>
    <g id="xtick_4">
     <g id="line2d_4">
      <g>
       <use xlink:href="#m199a0c0163" x="325.669279" y="78.104348" style="stroke: #000000; stroke-width: 0.8"/>
      </g>
     </g>
    </g>
    <g id="xtick_5">
     <g id="line2d_5">
      <g>
       <use xlink:href="#m199a0c0163" x="395.158694" y="78.104348" style="stroke: #000000; stroke-width: 0.8"/>
      </g>
     </g>
    </g>
    <g id="xtick_6">
     <g id="line2d_6">
      <g>
       <use xlink:href="#m199a0c0163" x="464.648109" y="78.104348" style="stroke: #000000; stroke-width: 0.8"/>
      </g>
     </g>
    </g>
    <g id="xtick_7">
     <g id="line2d_7">
      <g>
       <use xlink:href="#m199a0c0163" x="534.137523" y="78.104348" style="stroke: #000000; stroke-width: 0.8"/>
      </g>
     </g>
    </g>
    <g id="xtick_8">
     <g id="line2d_8">
      <g>
       <use xlink:href="#m199a0c0163" x="603.626938" y="78.104348" style="stroke: #000000; stroke-width: 0.8"/>
      </g>
     </g>
    </g>
   </g>
   <g id="matplotlib.axis_2">
    <g id="ytick_1">
     <g id="line2d_9">
      <defs>
       <path id="m7d9d63adb6" d="M 0 0 
L -3.5 0 
" style="stroke: #000000; stroke-width: 0.8"/>
      </defs>
      <g>
       <use xlink:href="#m7d9d63adb6" x="50.14375" y="74.881423" style="stroke: #000000; stroke-width: 0.8"/>
      </g>
     </g>
     <g id="text_1">
      <!-- 0.0 -->
      <g transform="translate(27.240625 78.680642) scale(0.1 -0.1)">
       <defs>
        <path id="DejaVuSans-30" d="M 2034 4250 
Q 1547 4250 1301 3770 
Q 1056 3291 1056 2328 
Q 1056 1369 1301 889 
Q 1547 409 2034 409 
Q 2525 409 2770 889 
Q 3016 1369 3016 2328 
Q 3016 3291 2770 3770 
Q 2525 4250 2034 4250 
z
M 2034 4750 
Q 2819 4750 3233 4129 
Q 3647 3509 3647 2328 
Q 3647 1150 3233 529 
Q 2819 -91 2034 -91 
Q 1250 -91 836 529 
Q 422 1150 422 2328 
Q 422 3509 836 4129 
Q 1250 4750 2034 4750 
z
" transform="scale(0.015625)"/>
        <path id="DejaVuSans-2e" d="M 684 794 
L 1344 794 
L 1344 0 
L 684 0 
L 684 794 
z
" transform="scale(0.015625)"/>
       </defs>
       <use xlink:href="#DejaVuSans-30"/>
       <use xlink:href="#DejaVuSans-2e" x="63.623047"/>
       <use xlink:href="#DejaVuSans-30" x="95.410156"/>
      </g>
     </g>
    </g>
    <g id="ytick_2">
     <g id="line2d_10">
      <g>
       <use xlink:href="#m7d9d63adb6" x="50.14375" y="35.708849" style="stroke: #000000; stroke-width: 0.8"/>
      </g>
     </g>
     <g id="text_2">
      <!-- 0.1 -->
      <g transform="translate(27.240625 39.508068) scale(0.1 -0.1)">
       <defs>
        <path id="DejaVuSans-31" d="M 794 531 
L 1825 531 
L 1825 4091 
L 703 3866 
L 703 4441 
L 1819 4666 
L 2450 4666 
L 2450 531 
L 3481 531 
L 3481 0 
L 794 0 
L 794 531 
z
" transform="scale(0.015625)"/>
       </defs>
       <use xlink:href="#DejaVuSans-30"/>
       <use xlink:href="#DejaVuSans-2e" x="63.623047"/>
       <use xlink:href="#DejaVuSans-31" x="95.410156"/>
      </g>
     </g>
    </g>
    <g id="text_3">
     <!-- Density -->
     <g transform="translate(21.160937 61.660768) rotate(-90) scale(0.1 -0.1)">
      <defs>
       <path id="DejaVuSans-44" d="M 1259 4147 
L 1259 519 
L 2022 519 
Q 2988 519 3436 956 
Q 3884 1394 3884 2338 
Q 3884 3275 3436 3711 
Q 2988 4147 2022 4147 
L 1259 4147 
z
M 628 4666 
L 1925 4666 
Q 3281 4666 3915 4102 
Q 4550 3538 4550 2338 
Q 4550 1131 3912 565 
Q 3275 0 1925 0 
L 628 0 
L 628 4666 
z
" transform="scale(0.015625)"/>
       <path id="DejaVuSans-65" d="M 3597 1894 
L 3597 1613 
L 953 1613 
Q 991 1019 1311 708 
Q 1631 397 2203 397 
Q 2534 397 2845 478 
Q 3156 559 3463 722 
L 3463 178 
Q 3153 47 2828 -22 
Q 2503 -91 2169 -91 
Q 1331 -91 842 396 
Q 353 884 353 1716 
Q 353 2575 817 3079 
Q 1281 3584 2069 3584 
Q 2775 3584 3186 3129 
Q 3597 2675 3597 1894 
z
M 3022 2063 
Q 3016 2534 2758 2815 
Q 2500 3097 2075 3097 
Q 1594 3097 1305 2825 
Q 1016 2553 972 2059 
L 3022 2063 
z
" transform="scale(0.015625)"/>
       <path id="DejaVuSans-6e" d="M 3513 2113 
L 3513 0 
L 2938 0 
L 2938 2094 
Q 2938 2591 2744 2837 
Q 2550 3084 2163 3084 
Q 1697 3084 1428 2787 
Q 1159 2491 1159 1978 
L 1159 0 
L 581 0 
L 581 3500 
L 1159 3500 
L 1159 2956 
Q 1366 3272 1645 3428 
Q 1925 3584 2291 3584 
Q 2894 3584 3203 3211 
Q 3513 2838 3513 2113 
z
" transform="scale(0.015625)"/>
       <path id="DejaVuSans-73" d="M 2834 3397 
L 2834 2853 
Q 2591 2978 2328 3040 
Q 2066 3103 1784 3103 
Q 1356 3103 1142 2972 
Q 928 2841 928 2578 
Q 928 2378 1081 2264 
Q 1234 2150 1697 2047 
L 1894 2003 
Q 2506 1872 2764 1633 
Q 3022 1394 3022 966 
Q 3022 478 2636 193 
Q 2250 -91 1575 -91 
Q 1294 -91 989 -36 
Q 684 19 347 128 
L 347 722 
Q 666 556 975 473 
Q 1284 391 1588 391 
Q 1994 391 2212 530 
Q 2431 669 2431 922 
Q 2431 1156 2273 1281 
Q 2116 1406 1581 1522 
L 1381 1569 
Q 847 1681 609 1914 
Q 372 2147 372 2553 
Q 372 3047 722 3315 
Q 1072 3584 1716 3584 
Q 2034 3584 2315 3537 
Q 2597 3491 2834 3397 
z
" transform="scale(0.015625)"/>
       <path id="DejaVuSans-69" d="M 603 3500 
L 1178 3500 
L 1178 0 
L 603 0 
L 603 3500 
z
M 603 4863 
L 1178 4863 
L 1178 4134 
L 603 4134 
L 603 4863 
z
" transform="scale(0.015625)"/>
       <path id="DejaVuSans-74" d="M 1172 4494 
L 1172 3500 
L 2356 3500 
L 2356 3053 
L 1172 3053 
L 1172 1153 
Q 1172 725 1289 603 
Q 1406 481 1766 481 
L 2356 481 
L 2356 0 
L 1766 0 
Q 1100 0 847 248 
Q 594 497 594 1153 
L 594 3053 
L 172 3053 
L 172 3500 
L 594 3500 
L 594 4494 
L 1172 4494 
z
" transform="scale(0.015625)"/>
       <path id="DejaVuSans-79" d="M 2059 -325 
Q 1816 -950 1584 -1140 
Q 1353 -1331 966 -1331 
L 506 -1331 
L 506 -850 
L 844 -850 
Q 1081 -850 1212 -737 
Q 1344 -625 1503 -206 
L 1606 56 
L 191 3500 
L 800 3500 
L 1894 763 
L 2988 3500 
L 3597 3500 
L 2059 -325 
z
" transform="scale(0.015625)"/>
      </defs>
      <use xlink:href="#DejaVuSans-44"/>
      <use xlink:href="#DejaVuSans-65" x="77.001953"/>
      <use xlink:href="#DejaVuSans-6e" x="138.525391"/>
      <use xlink:href="#DejaVuSans-73" x="201.904297"/>
      <use xlink:href="#DejaVuSans-69" x="254.003906"/>
      <use xlink:href="#DejaVuSans-74" x="281.787109"/>
      <use xlink:href="#DejaVuSans-79" x="320.996094"/>
     </g>
    </g>
   </g>
   <g id="line2d_11">
    <path d="M 75.507386 74.881423 
L 149.40684 74.781311 
L 153.858614 74.553378 
L 156.974856 74.193085 
L 159.645921 73.656348 
L 161.871808 72.981235 
L 164.097695 72.043065 
L 165.878405 71.073379 
L 167.659115 69.894138 
L 169.885002 68.126975 
L 172.110889 66.071906 
L 175.672308 62.42206 
L 178.78855 59.290976 
L 180.56926 57.738105 
L 182.34997 56.479675 
L 183.685502 55.780242 
L 185.021035 55.321301 
L 186.356567 55.121108 
L 187.692099 55.187669 
L 189.027631 55.51819 
L 190.363164 56.099234 
L 191.698696 56.90758 
L 193.479406 58.283473 
L 195.705293 60.351234 
L 202.828132 67.364609 
L 204.608841 68.758249 
L 206.389551 69.881092 
L 208.170261 70.689794 
L 209.505793 71.066782 
L 210.841326 71.22868 
L 212.176858 71.157413 
L 213.51239 70.832571 
L 214.847922 70.231081 
L 216.183455 69.327492 
L 217.518987 68.094946 
L 218.854519 66.506869 
L 220.190052 64.539342 
L 221.525584 62.174045 
L 222.861116 59.4016 
L 224.641826 55.07914 
L 226.422536 50.092126 
L 228.648423 43.101475 
L 235.326084 21.309939 
L 236.661617 17.773991 
L 237.997149 14.822012 
L 238.887504 13.233949 
L 239.777859 11.981978 
L 240.668213 11.087359 
L 241.558568 10.564993 
L 242.448923 10.422925 
L 243.339278 10.662031 
L 244.229633 11.275907 
L 245.119988 12.25096 
L 246.010343 13.566707 
L 247.345875 16.118685 
L 248.681407 19.261035 
L 250.462117 24.129494 
L 256.694601 42.134435 
L 258.030133 45.190858 
L 259.365666 47.689902 
L 260.25602 49.004024 
L 261.146375 50.014094 
L 262.03673 50.706429 
L 262.927085 51.072432 
L 263.81744 51.108621 
L 264.707795 50.816616 
L 265.59815 50.203102 
L 266.488504 49.279754 
L 267.378859 48.06313 
L 268.714392 45.736111 
L 270.049924 42.888862 
L 271.830634 38.478495 
L 278.063118 22.112358 
L 279.39865 19.405464 
L 280.734182 17.28132 
L 281.624537 16.238713 
L 282.514892 15.521581 
L 283.405247 15.145789 
L 284.295602 15.120582 
L 285.185957 15.448419 
L 286.076311 16.124998 
L 286.966666 17.139467 
L 287.857021 18.474813 
L 289.192553 21.028658 
L 290.528086 24.156357 
L 292.308795 29.019785 
L 294.97986 37.188407 
L 298.986457 49.472553 
L 301.212344 55.468361 
L 302.993054 59.588284 
L 304.328586 62.235477 
L 305.664118 64.490247 
L 306.999651 66.353833 
L 308.335183 67.835867 
L 309.670715 68.951196 
L 311.006248 69.717063 
L 312.34178 70.150872 
L 313.677312 70.268649 
L 315.012844 70.084293 
L 316.348377 69.609589 
L 317.683909 68.854935 
L 319.019441 67.830647 
L 320.354974 66.548689 
L 322.135683 64.466233 
L 323.916393 62.006933 
L 326.14228 58.522903 
L 332.819942 47.688621 
L 334.600651 45.447981 
L 335.936184 44.136039 
L 337.271716 43.197602 
L 338.162071 42.798557 
L 339.052426 42.589623 
L 339.942781 42.574594 
L 340.833136 42.753767 
L 341.72349 43.123936 
L 342.613845 43.67849 
L 343.949378 44.833754 
L 345.28491 46.336055 
L 347.06562 48.779515 
L 349.291507 52.320012 
L 355.523991 62.605219 
L 357.749878 65.685477 
L 359.530588 67.777979 
L 361.311297 69.524228 
L 363.092007 70.935861 
L 364.872717 72.041824 
L 366.653427 72.881198 
L 368.434136 73.496791 
L 370.660023 74.014238 
L 372.885911 74.315475 
L 375.556975 74.46126 
L 378.673217 74.389729 
L 381.344282 74.125914 
L 384.015346 73.645211 
L 386.241234 73.046207 
L 388.467121 72.239672 
L 390.693008 71.211489 
L 393.364072 69.696588 
L 396.480314 67.634235 
L 401.822444 64.044079 
L 404.048331 62.860939 
L 405.829041 62.171593 
L 407.60975 61.762898 
L 408.945283 61.658687 
L 410.280815 61.733208 
L 411.616347 61.983451 
L 413.397057 62.572196 
L 415.177767 63.413956 
L 417.403654 64.735622 
L 420.965073 67.169538 
L 424.97167 69.833975 
L 427.642735 71.325995 
L 429.868622 72.33415 
L 432.094509 73.123922 
L 434.765574 73.8102 
L 437.436638 74.262978 
L 440.998058 74.608184 
L 445.449832 74.795485 
L 453.908203 74.875122 
L 512.226447 74.881423 
L 520.23964 74.881423 
L 520.23964 74.881423 
" clip-path="url(#paa45ab9017)" style="fill: none; stroke: #1f77b4; stroke-width: 1.5; stroke-linecap: square"/>
   </g>
   <g id="patch_3">
    <path d="M 50.14375 78.104348 
L 50.14375 7.2 
" style="fill: none; stroke: #000000; stroke-width: 0.8; stroke-linejoin: miter; stroke-linecap: square"/>
   </g>
   <g id="patch_4">
    <path d="M 608.14375 78.104348 
L 608.14375 7.2 
" style="fill: none; stroke: #000000; stroke-width: 0.8; stroke-linejoin: miter; stroke-linecap: square"/>
   </g>
   <g id="patch_5">
    <path d="M 50.14375 78.104348 
L 608.14375 78.104348 
" style="fill: none; stroke: #000000; stroke-width: 0.8; stroke-linejoin: miter; stroke-linecap: square"/>
   </g>
   <g id="patch_6">
    <path d="M 50.14375 7.2 
L 608.14375 7.2 
" style="fill: none; stroke: #000000; stroke-width: 0.8; stroke-linejoin: miter; stroke-linecap: square"/>
   </g>
   <g id="legend_1">
    <g id="patch_7">
     <path d="M 422.65625 29.878125 
L 601.14375 29.878125 
Q 603.14375 29.878125 603.14375 27.878125 
L 603.14375 14.2 
Q 603.14375 12.2 601.14375 12.2 
L 422.65625 12.2 
Q 420.65625 12.2 420.65625 14.2 
L 420.65625 27.878125 
Q 420.65625 29.878125 422.65625 29.878125 
z
" style="fill: #ffffff; opacity: 0.8; stroke: #cccccc; stroke-linejoin: miter"/>
    </g>
    <g id="line2d_12">
     <path d="M 424.65625 20.298437 
L 434.65625 20.298437 
L 444.65625 20.298437 
" style="fill: none; stroke: #1f77b4; stroke-width: 1.5; stroke-linecap: square"/>
    </g>
    <g id="text_4">
     <!-- Min ideal reported wait times -->
     <g transform="translate(452.65625 23.798437) scale(0.1 -0.1)">
      <defs>
       <path id="DejaVuSans-4d" d="M 628 4666 
L 1569 4666 
L 2759 1491 
L 3956 4666 
L 4897 4666 
L 4897 0 
L 4281 0 
L 4281 4097 
L 3078 897 
L 2444 897 
L 1241 4097 
L 1241 0 
L 628 0 
L 628 4666 
z
" transform="scale(0.015625)"/>
       <path id="DejaVuSans-20" transform="scale(0.015625)"/>
       <path id="DejaVuSans-64" d="M 2906 2969 
L 2906 4863 
L 3481 4863 
L 3481 0 
L 2906 0 
L 2906 525 
Q 2725 213 2448 61 
Q 2172 -91 1784 -91 
Q 1150 -91 751 415 
Q 353 922 353 1747 
Q 353 2572 751 3078 
Q 1150 3584 1784 3584 
Q 2172 3584 2448 3432 
Q 2725 3281 2906 2969 
z
M 947 1747 
Q 947 1113 1208 752 
Q 1469 391 1925 391 
Q 2381 391 2643 752 
Q 2906 1113 2906 1747 
Q 2906 2381 2643 2742 
Q 2381 3103 1925 3103 
Q 1469 3103 1208 2742 
Q 947 2381 947 1747 
z
" transform="scale(0.015625)"/>
       <path id="DejaVuSans-61" d="M 2194 1759 
Q 1497 1759 1228 1600 
Q 959 1441 959 1056 
Q 959 750 1161 570 
Q 1363 391 1709 391 
Q 2188 391 2477 730 
Q 2766 1069 2766 1631 
L 2766 1759 
L 2194 1759 
z
M 3341 1997 
L 3341 0 
L 2766 0 
L 2766 531 
Q 2569 213 2275 61 
Q 1981 -91 1556 -91 
Q 1019 -91 701 211 
Q 384 513 384 1019 
Q 384 1609 779 1909 
Q 1175 2209 1959 2209 
L 2766 2209 
L 2766 2266 
Q 2766 2663 2505 2880 
Q 2244 3097 1772 3097 
Q 1472 3097 1187 3025 
Q 903 2953 641 2809 
L 641 3341 
Q 956 3463 1253 3523 
Q 1550 3584 1831 3584 
Q 2591 3584 2966 3190 
Q 3341 2797 3341 1997 
z
" transform="scale(0.015625)"/>
       <path id="DejaVuSans-6c" d="M 603 4863 
L 1178 4863 
L 1178 0 
L 603 0 
L 603 4863 
z
" transform="scale(0.015625)"/>
       <path id="DejaVuSans-72" d="M 2631 2963 
Q 2534 3019 2420 3045 
Q 2306 3072 2169 3072 
Q 1681 3072 1420 2755 
Q 1159 2438 1159 1844 
L 1159 0 
L 581 0 
L 581 3500 
L 1159 3500 
L 1159 2956 
Q 1341 3275 1631 3429 
Q 1922 3584 2338 3584 
Q 2397 3584 2469 3576 
Q 2541 3569 2628 3553 
L 2631 2963 
z
" transform="scale(0.015625)"/>
       <path id="DejaVuSans-70" d="M 1159 525 
L 1159 -1331 
L 581 -1331 
L 581 3500 
L 1159 3500 
L 1159 2969 
Q 1341 3281 1617 3432 
Q 1894 3584 2278 3584 
Q 2916 3584 3314 3078 
Q 3713 2572 3713 1747 
Q 3713 922 3314 415 
Q 2916 -91 2278 -91 
Q 1894 -91 1617 61 
Q 1341 213 1159 525 
z
M 3116 1747 
Q 3116 2381 2855 2742 
Q 2594 3103 2138 3103 
Q 1681 3103 1420 2742 
Q 1159 2381 1159 1747 
Q 1159 1113 1420 752 
Q 1681 391 2138 391 
Q 2594 391 2855 752 
Q 3116 1113 3116 1747 
z
" transform="scale(0.015625)"/>
       <path id="DejaVuSans-6f" d="M 1959 3097 
Q 1497 3097 1228 2736 
Q 959 2375 959 1747 
Q 959 1119 1226 758 
Q 1494 397 1959 397 
Q 2419 397 2687 759 
Q 2956 1122 2956 1747 
Q 2956 2369 2687 2733 
Q 2419 3097 1959 3097 
z
M 1959 3584 
Q 2709 3584 3137 3096 
Q 3566 2609 3566 1747 
Q 3566 888 3137 398 
Q 2709 -91 1959 -91 
Q 1206 -91 779 398 
Q 353 888 353 1747 
Q 353 2609 779 3096 
Q 1206 3584 1959 3584 
z
" transform="scale(0.015625)"/>
       <path id="DejaVuSans-77" d="M 269 3500 
L 844 3500 
L 1563 769 
L 2278 3500 
L 2956 3500 
L 3675 769 
L 4391 3500 
L 4966 3500 
L 4050 0 
L 3372 0 
L 2619 2869 
L 1863 0 
L 1184 0 
L 269 3500 
z
" transform="scale(0.015625)"/>
       <path id="DejaVuSans-6d" d="M 3328 2828 
Q 3544 3216 3844 3400 
Q 4144 3584 4550 3584 
Q 5097 3584 5394 3201 
Q 5691 2819 5691 2113 
L 5691 0 
L 5113 0 
L 5113 2094 
Q 5113 2597 4934 2840 
Q 4756 3084 4391 3084 
Q 3944 3084 3684 2787 
Q 3425 2491 3425 1978 
L 3425 0 
L 2847 0 
L 2847 2094 
Q 2847 2600 2669 2842 
Q 2491 3084 2119 3084 
Q 1678 3084 1418 2786 
Q 1159 2488 1159 1978 
L 1159 0 
L 581 0 
L 581 3500 
L 1159 3500 
L 1159 2956 
Q 1356 3278 1631 3431 
Q 1906 3584 2284 3584 
Q 2666 3584 2933 3390 
Q 3200 3197 3328 2828 
z
" transform="scale(0.015625)"/>
      </defs>
      <use xlink:href="#DejaVuSans-4d"/>
      <use xlink:href="#DejaVuSans-69" x="86.279297"/>
      <use xlink:href="#DejaVuSans-6e" x="114.0625"/>
      <use xlink:href="#DejaVuSans-20" x="177.441406"/>
      <use xlink:href="#DejaVuSans-69" x="209.228516"/>
      <use xlink:href="#DejaVuSans-64" x="237.011719"/>
      <use xlink:href="#DejaVuSans-65" x="300.488281"/>
      <use xlink:href="#DejaVuSans-61" x="362.011719"/>
      <use xlink:href="#DejaVuSans-6c" x="423.291016"/>
      <use xlink:href="#DejaVuSans-20" x="451.074219"/>
      <use xlink:href="#DejaVuSans-72" x="482.861328"/>
      <use xlink:href="#DejaVuSans-65" x="521.724609"/>
      <use xlink:href="#DejaVuSans-70" x="583.248047"/>
      <use xlink:href="#DejaVuSans-6f" x="646.724609"/>
      <use xlink:href="#DejaVuSans-72" x="707.90625"/>
      <use xlink:href="#DejaVuSans-74" x="749.019531"/>
      <use xlink:href="#DejaVuSans-65" x="788.228516"/>
      <use xlink:href="#DejaVuSans-64" x="849.751953"/>
      <use xlink:href="#DejaVuSans-20" x="913.228516"/>
      <use xlink:href="#DejaVuSans-77" x="945.015625"/>
      <use xlink:href="#DejaVuSans-61" x="1026.802734"/>
      <use xlink:href="#DejaVuSans-69" x="1088.082031"/>
      <use xlink:href="#DejaVuSans-74" x="1115.865234"/>
      <use xlink:href="#DejaVuSans-20" x="1155.074219"/>
      <use xlink:href="#DejaVuSans-74" x="1186.861328"/>
      <use xlink:href="#DejaVuSans-69" x="1226.070312"/>
      <use xlink:href="#DejaVuSans-6d" x="1253.853516"/>
      <use xlink:href="#DejaVuSans-65" x="1351.265625"/>
      <use xlink:href="#DejaVuSans-73" x="1412.789062"/>
     </g>
    </g>
   </g>
  </g>
  <g id="axes_2">
   <g id="patch_8">
    <path d="M 50.14375 163.189565 
L 608.14375 163.189565 
L 608.14375 92.285217 
L 50.14375 92.285217 
z
" style="fill: #ffffff"/>
   </g>
   <g id="matplotlib.axis_3">
    <g id="xtick_9">
     <g id="line2d_13">
      <g>
       <use xlink:href="#m199a0c0163" x="117.201035" y="163.189565" style="stroke: #000000; stroke-width: 0.8"/>
      </g>
     </g>
    </g>
    <g id="xtick_10">
     <g id="line2d_14">
      <g>
       <use xlink:href="#m199a0c0163" x="186.69045" y="163.189565" style="stroke: #000000; stroke-width: 0.8"/>
      </g>
     </g>
    </g>
    <g id="xtick_11">
     <g id="line2d_15">
      <g>
       <use xlink:href="#m199a0c0163" x="256.179865" y="163.189565" style="stroke: #000000; stroke-width: 0.8"/>
      </g>
     </g>
    </g>
    <g id="xtick_12">
     <g id="line2d_16">
      <g>
       <use xlink:href="#m199a0c0163" x="325.669279" y="163.189565" style="stroke: #000000; stroke-width: 0.8"/>
      </g>
     </g>
    </g>
    <g id="xtick_13">
     <g id="line2d_17">
      <g>
       <use xlink:href="#m199a0c0163" x="395.158694" y="163.189565" style="stroke: #000000; stroke-width: 0.8"/>
      </g>
     </g>
    </g>
    <g id="xtick_14">
     <g id="line2d_18">
      <g>
       <use xlink:href="#m199a0c0163" x="464.648109" y="163.189565" style="stroke: #000000; stroke-width: 0.8"/>
      </g>
     </g>
    </g>
    <g id="xtick_15">
     <g id="line2d_19">
      <g>
       <use xlink:href="#m199a0c0163" x="534.137523" y="163.189565" style="stroke: #000000; stroke-width: 0.8"/>
      </g>
     </g>
    </g>
    <g id="xtick_16">
     <g id="line2d_20">
      <g>
       <use xlink:href="#m199a0c0163" x="603.626938" y="163.189565" style="stroke: #000000; stroke-width: 0.8"/>
      </g>
     </g>
    </g>
   </g>
   <g id="matplotlib.axis_4">
    <g id="ytick_3">
     <g id="line2d_21">
      <g>
       <use xlink:href="#m7d9d63adb6" x="50.14375" y="159.96664" style="stroke: #000000; stroke-width: 0.8"/>
      </g>
     </g>
     <g id="text_5">
      <!-- 0.00 -->
      <g transform="translate(20.878125 163.765859) scale(0.1 -0.1)">
       <use xlink:href="#DejaVuSans-30"/>
       <use xlink:href="#DejaVuSans-2e" x="63.623047"/>
       <use xlink:href="#DejaVuSans-30" x="95.410156"/>
       <use xlink:href="#DejaVuSans-30" x="159.033203"/>
      </g>
     </g>
    </g>
    <g id="ytick_4">
     <g id="line2d_22">
      <g>
       <use xlink:href="#m7d9d63adb6" x="50.14375" y="133.036363" style="stroke: #000000; stroke-width: 0.8"/>
      </g>
     </g>
     <g id="text_6">
      <!-- 0.05 -->
      <g transform="translate(20.878125 136.835581) scale(0.1 -0.1)">
       <defs>
        <path id="DejaVuSans-35" d="M 691 4666 
L 3169 4666 
L 3169 4134 
L 1269 4134 
L 1269 2991 
Q 1406 3038 1543 3061 
Q 1681 3084 1819 3084 
Q 2600 3084 3056 2656 
Q 3513 2228 3513 1497 
Q 3513 744 3044 326 
Q 2575 -91 1722 -91 
Q 1428 -91 1123 -41 
Q 819 9 494 109 
L 494 744 
Q 775 591 1075 516 
Q 1375 441 1709 441 
Q 2250 441 2565 725 
Q 2881 1009 2881 1497 
Q 2881 1984 2565 2268 
Q 2250 2553 1709 2553 
Q 1456 2553 1204 2497 
Q 953 2441 691 2322 
L 691 4666 
z
" transform="scale(0.015625)"/>
       </defs>
       <use xlink:href="#DejaVuSans-30"/>
       <use xlink:href="#DejaVuSans-2e" x="63.623047"/>
       <use xlink:href="#DejaVuSans-30" x="95.410156"/>
       <use xlink:href="#DejaVuSans-35" x="159.033203"/>
      </g>
     </g>
    </g>
    <g id="ytick_5">
     <g id="line2d_23">
      <g>
       <use xlink:href="#m7d9d63adb6" x="50.14375" y="106.106085" style="stroke: #000000; stroke-width: 0.8"/>
      </g>
     </g>
     <g id="text_7">
      <!-- 0.10 -->
      <g transform="translate(20.878125 109.905304) scale(0.1 -0.1)">
       <use xlink:href="#DejaVuSans-30"/>
       <use xlink:href="#DejaVuSans-2e" x="63.623047"/>
       <use xlink:href="#DejaVuSans-31" x="95.410156"/>
       <use xlink:href="#DejaVuSans-30" x="159.033203"/>
      </g>
     </g>
    </g>
    <g id="text_8">
     <!-- Density -->
     <g transform="translate(14.798437 146.745985) rotate(-90) scale(0.1 -0.1)">
      <use xlink:href="#DejaVuSans-44"/>
      <use xlink:href="#DejaVuSans-65" x="77.001953"/>
      <use xlink:href="#DejaVuSans-6e" x="138.525391"/>
      <use xlink:href="#DejaVuSans-73" x="201.904297"/>
      <use xlink:href="#DejaVuSans-69" x="254.003906"/>
      <use xlink:href="#DejaVuSans-74" x="281.787109"/>
      <use xlink:href="#DejaVuSans-79" x="320.996094"/>
     </g>
    </g>
   </g>
   <g id="line2d_24">
    <path d="M 75.507386 159.96664 
L 143.174356 159.865467 
L 148.516485 159.618899 
L 152.077905 159.242612 
L 154.748969 158.769416 
L 157.420034 158.065283 
L 159.645921 157.255963 
L 161.871808 156.208984 
L 164.097695 154.901619 
L 166.323582 153.328131 
L 168.994647 151.115753 
L 172.110889 148.202378 
L 177.898196 142.717629 
L 180.124083 140.965462 
L 181.904792 139.846261 
L 183.685502 139.039315 
L 185.021035 138.664483 
L 186.356567 138.499655 
L 187.692099 138.549229 
L 189.027631 138.810927 
L 190.363164 139.275801 
L 192.143873 140.184411 
L 193.924583 141.374573 
L 196.15047 143.156003 
L 204.163664 149.926665 
L 205.944374 151.004214 
L 207.279906 151.609199 
L 208.615438 152.00999 
L 209.950971 152.18161 
L 211.286503 152.101015 
L 212.622035 151.747223 
L 213.957568 151.101611 
L 215.2931 150.148405 
L 216.628632 148.875382 
L 217.964164 147.274782 
L 219.299697 145.344391 
L 220.635229 143.088717 
L 222.415939 139.597912 
L 224.196648 135.606733 
L 226.422536 130.049067 
L 230.429133 119.237999 
L 233.100197 112.265196 
L 234.880907 108.107555 
L 236.661617 104.566338 
L 237.997149 102.416498 
L 239.332681 100.764633 
L 240.223036 99.961233 
L 241.113391 99.405949 
L 242.003746 99.103021 
L 242.894101 99.052755 
L 243.784455 99.251439 
L 244.67481 99.691334 
L 245.565165 100.360749 
L 246.900697 101.760375 
L 248.23623 103.573841 
L 250.01694 106.491409 
L 252.688004 111.466231 
L 255.359069 116.402859 
L 257.139778 119.259959 
L 258.475311 121.018388 
L 259.810843 122.362755 
L 260.701198 122.999347 
L 261.591553 123.412754 
L 262.481908 123.594097 
L 263.372262 123.538551 
L 264.262617 123.24544 
L 265.152972 122.718253 
L 266.043327 121.964602 
L 267.378859 120.436009 
L 268.714392 118.480174 
L 270.495101 115.335705 
L 272.720989 110.847966 
L 276.727585 102.699505 
L 278.508295 99.680749 
L 279.843827 97.866876 
L 280.734182 96.917578 
L 281.624537 96.199394 
L 282.514892 95.728009 
L 283.405247 95.515124 
L 284.295602 95.568287 
L 285.185957 95.890813 
L 286.076311 96.481791 
L 286.966666 97.336174 
L 287.857021 98.444959 
L 289.192553 100.556421 
L 290.528086 103.154197 
L 292.308795 107.250502 
L 294.534683 113.108708 
L 302.102699 133.853626 
L 303.883409 137.880873 
L 305.664118 141.308586 
L 306.999651 143.439818 
L 308.335183 145.170201 
L 309.670715 146.486811 
L 311.006248 147.383772 
L 311.896602 147.748518 
L 312.786957 147.92823 
L 313.677312 147.925375 
L 314.567667 147.743394 
L 315.458022 147.386674 
L 316.793554 146.535915 
L 318.129087 145.326432 
L 319.464619 143.785666 
L 320.800151 141.946681 
L 322.580861 139.099174 
L 324.806748 135.061689 
L 331.929587 121.658587 
L 333.710297 119.007655 
L 335.045829 117.390499 
L 336.381361 116.146544 
L 337.271716 115.544023 
L 338.162071 115.133109 
L 339.052426 114.919643 
L 339.942781 114.906772 
L 340.833136 115.094899 
L 341.72349 115.481678 
L 342.613845 116.062086 
L 343.949378 117.2785 
L 345.28491 118.877512 
L 346.620442 120.813415 
L 348.401152 123.824874 
L 350.627039 128.079455 
L 358.195055 143.058177 
L 360.420943 146.755869 
L 362.201652 149.321035 
L 363.982362 151.513526 
L 365.763072 153.331608 
L 367.543781 154.786968 
L 369.324491 155.899416 
L 371.105201 156.691889 
L 372.885911 157.186186 
L 374.66662 157.399747 
L 376.44733 157.343662 
L 378.22804 157.021982 
L 380.008749 156.43234 
L 381.789459 155.567773 
L 383.570169 154.419592 
L 385.350879 152.981063 
L 387.131588 151.251552 
L 388.912298 149.240757 
L 391.138185 146.369627 
L 393.80925 142.517148 
L 400.486911 132.61776 
L 402.267621 130.418325 
L 404.048331 128.609325 
L 405.383863 127.563905 
L 406.719395 126.819789 
L 408.054928 126.399036 
L 408.945283 126.304823 
L 409.835637 126.361413 
L 411.17117 126.726842 
L 412.506702 127.41844 
L 413.842234 128.415677 
L 415.177767 129.689471 
L 416.958476 131.754622 
L 419.184363 134.78261 
L 422.745783 140.155616 
L 426.307202 145.461547 
L 428.53309 148.45661 
L 430.758977 151.085732 
L 432.539686 152.893763 
L 434.320396 154.433868 
L 436.101106 155.715578 
L 437.881816 156.75845 
L 440.107703 157.766219 
L 442.33359 158.499145 
L 445.004654 159.096898 
L 448.120897 159.517707 
L 452.127493 159.789691 
L 457.9148 159.92736 
L 472.160478 159.966209 
L 520.23964 159.96664 
L 520.23964 159.96664 
" clip-path="url(#pea6d0d9aa7)" style="fill: none; stroke: #ff7f0e; stroke-width: 1.5; stroke-linecap: square"/>
   </g>
   <g id="patch_9">
    <path d="M 50.14375 163.189565 
L 50.14375 92.285217 
" style="fill: none; stroke: #000000; stroke-width: 0.8; stroke-linejoin: miter; stroke-linecap: square"/>
   </g>
   <g id="patch_10">
    <path d="M 608.14375 163.189565 
L 608.14375 92.285217 
" style="fill: none; stroke: #000000; stroke-width: 0.8; stroke-linejoin: miter; stroke-linecap: square"/>
   </g>
   <g id="patch_11">
    <path d="M 50.14375 163.189565 
L 608.14375 163.189565 
" style="fill: none; stroke: #000000; stroke-width: 0.8; stroke-linejoin: miter; stroke-linecap: square"/>
   </g>
   <g id="patch_12">
    <path d="M 50.14375 92.285217 
L 608.14375 92.285217 
" style="fill: none; stroke: #000000; stroke-width: 0.8; stroke-linejoin: miter; stroke-linecap: square"/>
   </g>
   <g id="legend_2">
    <g id="patch_13">
     <path d="M 416.051562 114.963342 
L 601.14375 114.963342 
Q 603.14375 114.963342 603.14375 112.963342 
L 603.14375 99.285217 
Q 603.14375 97.285217 601.14375 97.285217 
L 416.051562 97.285217 
Q 414.051562 97.285217 414.051562 99.285217 
L 414.051562 112.963342 
Q 414.051562 114.963342 416.051562 114.963342 
z
" style="fill: #ffffff; opacity: 0.8; stroke: #cccccc; stroke-linejoin: miter"/>
    </g>
    <g id="line2d_25">
     <path d="M 418.051562 105.383655 
L 428.051562 105.383655 
L 438.051562 105.383655 
" style="fill: none; stroke: #ff7f0e; stroke-width: 1.5; stroke-linecap: square"/>
    </g>
    <g id="text_9">
     <!-- Min actual reported wait times -->
     <g transform="translate(446.051562 108.883655) scale(0.1 -0.1)">
      <defs>
       <path id="DejaVuSans-63" d="M 3122 3366 
L 3122 2828 
Q 2878 2963 2633 3030 
Q 2388 3097 2138 3097 
Q 1578 3097 1268 2742 
Q 959 2388 959 1747 
Q 959 1106 1268 751 
Q 1578 397 2138 397 
Q 2388 397 2633 464 
Q 2878 531 3122 666 
L 3122 134 
Q 2881 22 2623 -34 
Q 2366 -91 2075 -91 
Q 1284 -91 818 406 
Q 353 903 353 1747 
Q 353 2603 823 3093 
Q 1294 3584 2113 3584 
Q 2378 3584 2631 3529 
Q 2884 3475 3122 3366 
z
" transform="scale(0.015625)"/>
       <path id="DejaVuSans-75" d="M 544 1381 
L 544 3500 
L 1119 3500 
L 1119 1403 
Q 1119 906 1312 657 
Q 1506 409 1894 409 
Q 2359 409 2629 706 
Q 2900 1003 2900 1516 
L 2900 3500 
L 3475 3500 
L 3475 0 
L 2900 0 
L 2900 538 
Q 2691 219 2414 64 
Q 2138 -91 1772 -91 
Q 1169 -91 856 284 
Q 544 659 544 1381 
z
M 1991 3584 
L 1991 3584 
z
" transform="scale(0.015625)"/>
      </defs>
      <use xlink:href="#DejaVuSans-4d"/>
      <use xlink:href="#DejaVuSans-69" x="86.279297"/>
      <use xlink:href="#DejaVuSans-6e" x="114.0625"/>
      <use xlink:href="#DejaVuSans-20" x="177.441406"/>
      <use xlink:href="#DejaVuSans-61" x="209.228516"/>
      <use xlink:href="#DejaVuSans-63" x="270.507812"/>
      <use xlink:href="#DejaVuSans-74" x="325.488281"/>
      <use xlink:href="#DejaVuSans-75" x="364.697266"/>
      <use xlink:href="#DejaVuSans-61" x="428.076172"/>
      <use xlink:href="#DejaVuSans-6c" x="489.355469"/>
      <use xlink:href="#DejaVuSans-20" x="517.138672"/>
      <use xlink:href="#DejaVuSans-72" x="548.925781"/>
      <use xlink:href="#DejaVuSans-65" x="587.789062"/>
      <use xlink:href="#DejaVuSans-70" x="649.3125"/>
      <use xlink:href="#DejaVuSans-6f" x="712.789062"/>
      <use xlink:href="#DejaVuSans-72" x="773.970703"/>
      <use xlink:href="#DejaVuSans-74" x="815.083984"/>
      <use xlink:href="#DejaVuSans-65" x="854.292969"/>
      <use xlink:href="#DejaVuSans-64" x="915.816406"/>
      <use xlink:href="#DejaVuSans-20" x="979.292969"/>
      <use xlink:href="#DejaVuSans-77" x="1011.080078"/>
      <use xlink:href="#DejaVuSans-61" x="1092.867188"/>
      <use xlink:href="#DejaVuSans-69" x="1154.146484"/>
      <use xlink:href="#DejaVuSans-74" x="1181.929688"/>
      <use xlink:href="#DejaVuSans-20" x="1221.138672"/>
      <use xlink:href="#DejaVuSans-74" x="1252.925781"/>
      <use xlink:href="#DejaVuSans-69" x="1292.134766"/>
      <use xlink:href="#DejaVuSans-6d" x="1319.917969"/>
      <use xlink:href="#DejaVuSans-65" x="1417.330078"/>
      <use xlink:href="#DejaVuSans-73" x="1478.853516"/>
     </g>
    </g>
   </g>
  </g>
  <g id="axes_3">
   <g id="patch_14">
    <path d="M 50.14375 248.274783 
L 608.14375 248.274783 
L 608.14375 177.370435 
L 50.14375 177.370435 
z
" style="fill: #ffffff"/>
   </g>
   <g id="matplotlib.axis_5">
    <g id="xtick_17">
     <g id="line2d_26">
      <g>
       <use xlink:href="#m199a0c0163" x="117.201035" y="248.274783" style="stroke: #000000; stroke-width: 0.8"/>
      </g>
     </g>
    </g>
    <g id="xtick_18">
     <g id="line2d_27">
      <g>
       <use xlink:href="#m199a0c0163" x="186.69045" y="248.274783" style="stroke: #000000; stroke-width: 0.8"/>
      </g>
     </g>
    </g>
    <g id="xtick_19">
     <g id="line2d_28">
      <g>
       <use xlink:href="#m199a0c0163" x="256.179865" y="248.274783" style="stroke: #000000; stroke-width: 0.8"/>
      </g>
     </g>
    </g>
    <g id="xtick_20">
     <g id="line2d_29">
      <g>
       <use xlink:href="#m199a0c0163" x="325.669279" y="248.274783" style="stroke: #000000; stroke-width: 0.8"/>
      </g>
     </g>
    </g>
    <g id="xtick_21">
     <g id="line2d_30">
      <g>
       <use xlink:href="#m199a0c0163" x="395.158694" y="248.274783" style="stroke: #000000; stroke-width: 0.8"/>
      </g>
     </g>
    </g>
    <g id="xtick_22">
     <g id="line2d_31">
      <g>
       <use xlink:href="#m199a0c0163" x="464.648109" y="248.274783" style="stroke: #000000; stroke-width: 0.8"/>
      </g>
     </g>
    </g>
    <g id="xtick_23">
     <g id="line2d_32">
      <g>
       <use xlink:href="#m199a0c0163" x="534.137523" y="248.274783" style="stroke: #000000; stroke-width: 0.8"/>
      </g>
     </g>
    </g>
    <g id="xtick_24">
     <g id="line2d_33">
      <g>
       <use xlink:href="#m199a0c0163" x="603.626938" y="248.274783" style="stroke: #000000; stroke-width: 0.8"/>
      </g>
     </g>
    </g>
   </g>
   <g id="matplotlib.axis_6">
    <g id="ytick_6">
     <g id="line2d_34">
      <g>
       <use xlink:href="#m7d9d63adb6" x="50.14375" y="245.051858" style="stroke: #000000; stroke-width: 0.8"/>
      </g>
     </g>
     <g id="text_10">
      <!-- 0.0 -->
      <g transform="translate(27.240625 248.851076) scale(0.1 -0.1)">
       <use xlink:href="#DejaVuSans-30"/>
       <use xlink:href="#DejaVuSans-2e" x="63.623047"/>
       <use xlink:href="#DejaVuSans-30" x="95.410156"/>
      </g>
     </g>
    </g>
    <g id="ytick_7">
     <g id="line2d_35">
      <g>
       <use xlink:href="#m7d9d63adb6" x="50.14375" y="200.56851" style="stroke: #000000; stroke-width: 0.8"/>
      </g>
     </g>
     <g id="text_11">
      <!-- 0.1 -->
      <g transform="translate(27.240625 204.367729) scale(0.1 -0.1)">
       <use xlink:href="#DejaVuSans-30"/>
       <use xlink:href="#DejaVuSans-2e" x="63.623047"/>
       <use xlink:href="#DejaVuSans-31" x="95.410156"/>
      </g>
     </g>
    </g>
    <g id="text_12">
     <!-- Density -->
     <g transform="translate(21.160937 231.831202) rotate(-90) scale(0.1 -0.1)">
      <use xlink:href="#DejaVuSans-44"/>
      <use xlink:href="#DejaVuSans-65" x="77.001953"/>
      <use xlink:href="#DejaVuSans-6e" x="138.525391"/>
      <use xlink:href="#DejaVuSans-73" x="201.904297"/>
      <use xlink:href="#DejaVuSans-69" x="254.003906"/>
      <use xlink:href="#DejaVuSans-74" x="281.787109"/>
      <use xlink:href="#DejaVuSans-79" x="320.996094"/>
     </g>
    </g>
   </g>
   <g id="line2d_36">
    <path d="M 110.252094 245.051858 
L 185.932257 244.948168 
L 191.135268 244.705311 
L 194.919276 244.296939 
L 197.757283 243.770247 
L 200.122288 243.12985 
L 202.487293 242.26175 
L 204.852298 241.131222 
L 207.217303 239.718926 
L 209.582308 238.029915 
L 212.420314 235.692827 
L 221.407334 227.942876 
L 223.299338 226.727825 
L 225.191342 225.80653 
L 226.610345 225.331497 
L 228.029348 225.048802 
L 229.448351 224.954498 
L 231.340355 225.095484 
L 233.232359 225.481532 
L 239.854373 227.177601 
L 241.273377 227.221725 
L 242.69238 227.014377 
L 244.111383 226.499027 
L 245.530386 225.627283 
L 246.949389 224.361743 
L 248.368392 222.678645 
L 249.787395 220.570172 
L 251.206398 218.046274 
L 253.098402 214.087597 
L 254.990406 209.565802 
L 257.828412 202.134244 
L 261.61242 192.305122 
L 263.504424 188.043533 
L 264.923428 185.351888 
L 266.342431 183.199261 
L 267.288433 182.101901 
L 268.234435 181.29496 
L 269.180437 180.790063 
L 270.126439 180.59336 
L 271.072441 180.705294 
L 272.018443 181.120523 
L 272.964445 181.827965 
L 273.910447 182.810989 
L 274.856449 184.047735 
L 276.275452 186.319131 
L 278.167456 189.953341 
L 281.005462 196.087827 
L 283.843468 202.071327 
L 285.262471 204.678654 
L 286.681475 206.878444 
L 288.100478 208.580461 
L 289.04648 209.404363 
L 289.992482 209.962931 
L 290.938484 210.247753 
L 291.884486 210.255828 
L 292.830488 209.989587 
L 293.77649 209.456837 
L 294.722492 208.670605 
L 295.668494 207.648885 
L 297.087497 205.725453 
L 298.5065 203.417782 
L 300.871505 199.025389 
L 304.655513 191.894677 
L 306.074516 189.612531 
L 307.493519 187.728939 
L 308.439521 186.743507 
L 309.385524 186.002625 
L 310.331526 185.525378 
L 311.277528 185.325856 
L 312.22353 185.41294 
L 313.169532 185.790212 
L 314.115534 186.455988 
L 315.061536 187.403488 
L 316.007538 188.621119 
L 317.426541 190.917942 
L 318.845544 193.715601 
L 320.737548 198.075754 
L 323.102553 204.213439 
L 329.251566 220.67103 
L 331.616572 226.194403 
L 333.508576 230.052784 
L 335.40058 233.367222 
L 337.292584 236.136187 
L 338.711587 237.871081 
L 340.13059 239.334565 
L 341.549593 240.550951 
L 343.441597 241.834715 
L 345.333601 242.791289 
L 347.225605 243.481771 
L 349.117609 243.9598 
L 351.482614 244.324084 
L 354.320621 244.495448 
L 357.158627 244.423257 
L 359.996633 244.104034 
L 362.361638 243.613276 
L 364.726643 242.865534 
L 366.618647 242.041062 
L 368.510651 240.979772 
L 370.402655 239.651866 
L 372.294659 238.035409 
L 374.186663 236.121426 
L 376.078667 233.918875 
L 378.443673 230.809583 
L 381.75468 226.015 
L 386.011689 219.880456 
L 387.903693 217.501793 
L 389.795697 215.520001 
L 391.2147 214.363072 
L 392.633703 213.532333 
L 393.579705 213.174248 
L 394.525707 212.97956 
L 395.471709 212.951296 
L 396.417711 213.089896 
L 397.363713 213.393201 
L 398.782716 214.146034 
L 400.20172 215.232425 
L 401.620723 216.615774 
L 403.512727 218.842974 
L 405.877732 222.066394 
L 413.918749 233.51268 
L 416.283754 236.273421 
L 418.175758 238.154155 
L 420.067762 239.732142 
L 421.959767 241.015079 
L 423.851771 242.022377 
L 425.743775 242.780013 
L 427.635779 243.315928 
L 429.527783 243.656344 
L 431.892788 243.839856 
L 434.257793 243.782145 
L 436.622798 243.499654 
L 438.987803 242.998187 
L 441.352808 242.278992 
L 443.717813 241.34651 
L 446.55582 239.969368 
L 449.866827 238.09055 
L 456.488841 234.228769 
L 458.853846 233.138373 
L 460.74585 232.48527 
L 462.637854 232.069567 
L 464.529858 231.916578 
L 466.421862 232.035762 
L 468.313867 232.419766 
L 470.205871 233.045181 
L 472.570876 234.108898 
L 475.408882 235.673441 
L 483.9229 240.595524 
L 486.760906 241.885585 
L 489.598913 242.905199 
L 492.436919 243.663115 
L 495.274925 244.194575 
L 498.585932 244.591619 
L 502.842941 244.863516 
L 508.991954 245.008846 
L 523.181985 245.051243 
L 582.780114 245.051858 
L 582.780114 245.051858 
" clip-path="url(#pef14679f84)" style="fill: none; stroke: #2ca02c; stroke-width: 1.5; stroke-linecap: square"/>
   </g>
   <g id="patch_15">
    <path d="M 50.14375 248.274783 
L 50.14375 177.370435 
" style="fill: none; stroke: #000000; stroke-width: 0.8; stroke-linejoin: miter; stroke-linecap: square"/>
   </g>
   <g id="patch_16">
    <path d="M 608.14375 248.274783 
L 608.14375 177.370435 
" style="fill: none; stroke: #000000; stroke-width: 0.8; stroke-linejoin: miter; stroke-linecap: square"/>
   </g>
   <g id="patch_17">
    <path d="M 50.14375 248.274783 
L 608.14375 248.274783 
" style="fill: none; stroke: #000000; stroke-width: 0.8; stroke-linejoin: miter; stroke-linecap: square"/>
   </g>
   <g id="patch_18">
    <path d="M 50.14375 177.370435 
L 608.14375 177.370435 
" style="fill: none; stroke: #000000; stroke-width: 0.8; stroke-linejoin: miter; stroke-linecap: square"/>
   </g>
   <g id="legend_3">
    <g id="patch_19">
     <path d="M 419.725 200.04856 
L 601.14375 200.04856 
Q 603.14375 200.04856 603.14375 198.04856 
L 603.14375 184.370435 
Q 603.14375 182.370435 601.14375 182.370435 
L 419.725 182.370435 
Q 417.725 182.370435 417.725 184.370435 
L 417.725 198.04856 
Q 417.725 200.04856 419.725 200.04856 
z
" style="fill: #ffffff; opacity: 0.8; stroke: #cccccc; stroke-linejoin: miter"/>
    </g>
    <g id="line2d_37">
     <path d="M 421.725 190.468872 
L 431.725 190.468872 
L 441.725 190.468872 
" style="fill: none; stroke: #2ca02c; stroke-width: 1.5; stroke-linecap: square"/>
    </g>
    <g id="text_13">
     <!-- Max ideal reported wait times -->
     <g transform="translate(449.725 193.968872) scale(0.1 -0.1)">
      <defs>
       <path id="DejaVuSans-78" d="M 3513 3500 
L 2247 1797 
L 3578 0 
L 2900 0 
L 1881 1375 
L 863 0 
L 184 0 
L 1544 1831 
L 300 3500 
L 978 3500 
L 1906 2253 
L 2834 3500 
L 3513 3500 
z
" transform="scale(0.015625)"/>
      </defs>
      <use xlink:href="#DejaVuSans-4d"/>
      <use xlink:href="#DejaVuSans-61" x="86.279297"/>
      <use xlink:href="#DejaVuSans-78" x="147.558594"/>
      <use xlink:href="#DejaVuSans-20" x="206.738281"/>
      <use xlink:href="#DejaVuSans-69" x="238.525391"/>
      <use xlink:href="#DejaVuSans-64" x="266.308594"/>
      <use xlink:href="#DejaVuSans-65" x="329.785156"/>
      <use xlink:href="#DejaVuSans-61" x="391.308594"/>
      <use xlink:href="#DejaVuSans-6c" x="452.587891"/>
      <use xlink:href="#DejaVuSans-20" x="480.371094"/>
      <use xlink:href="#DejaVuSans-72" x="512.158203"/>
      <use xlink:href="#DejaVuSans-65" x="551.021484"/>
      <use xlink:href="#DejaVuSans-70" x="612.544922"/>
      <use xlink:href="#DejaVuSans-6f" x="676.021484"/>
      <use xlink:href="#DejaVuSans-72" x="737.203125"/>
      <use xlink:href="#DejaVuSans-74" x="778.316406"/>
      <use xlink:href="#DejaVuSans-65" x="817.525391"/>
      <use xlink:href="#DejaVuSans-64" x="879.048828"/>
      <use xlink:href="#DejaVuSans-20" x="942.525391"/>
      <use xlink:href="#DejaVuSans-77" x="974.3125"/>
      <use xlink:href="#DejaVuSans-61" x="1056.099609"/>
      <use xlink:href="#DejaVuSans-69" x="1117.378906"/>
      <use xlink:href="#DejaVuSans-74" x="1145.162109"/>
      <use xlink:href="#DejaVuSans-20" x="1184.371094"/>
      <use xlink:href="#DejaVuSans-74" x="1216.158203"/>
      <use xlink:href="#DejaVuSans-69" x="1255.367188"/>
      <use xlink:href="#DejaVuSans-6d" x="1283.150391"/>
      <use xlink:href="#DejaVuSans-65" x="1380.5625"/>
      <use xlink:href="#DejaVuSans-73" x="1442.085938"/>
     </g>
    </g>
   </g>
  </g>
  <g id="axes_4">
   <g id="patch_20">
    <path d="M 50.14375 333.36 
L 608.14375 333.36 
L 608.14375 262.455652 
L 50.14375 262.455652 
z
" style="fill: #ffffff"/>
   </g>
   <g id="matplotlib.axis_7">
    <g id="xtick_25">
     <g id="line2d_38">
      <g>
       <use xlink:href="#m199a0c0163" x="117.201035" y="333.36" style="stroke: #000000; stroke-width: 0.8"/>
      </g>
     </g>
     <g id="text_14">
      <!-- −5 -->
      <g transform="translate(109.829941 347.958438) scale(0.1 -0.1)">
       <defs>
        <path id="DejaVuSans-2212" d="M 678 2272 
L 4684 2272 
L 4684 1741 
L 678 1741 
L 678 2272 
z
" transform="scale(0.015625)"/>
       </defs>
       <use xlink:href="#DejaVuSans-2212"/>
       <use xlink:href="#DejaVuSans-35" x="83.789062"/>
      </g>
     </g>
    </g>
    <g id="xtick_26">
     <g id="line2d_39">
      <g>
       <use xlink:href="#m199a0c0163" x="186.69045" y="333.36" style="stroke: #000000; stroke-width: 0.8"/>
      </g>
     </g>
     <g id="text_15">
      <!-- 0 -->
      <g transform="translate(183.5092 347.958438) scale(0.1 -0.1)">
       <use xlink:href="#DejaVuSans-30"/>
      </g>
     </g>
    </g>
    <g id="xtick_27">
     <g id="line2d_40">
      <g>
       <use xlink:href="#m199a0c0163" x="256.179865" y="333.36" style="stroke: #000000; stroke-width: 0.8"/>
      </g>
     </g>
     <g id="text_16">
      <!-- 5 -->
      <g transform="translate(252.998615 347.958438) scale(0.1 -0.1)">
       <use xlink:href="#DejaVuSans-35"/>
      </g>
     </g>
    </g>
    <g id="xtick_28">
     <g id="line2d_41">
      <g>
       <use xlink:href="#m199a0c0163" x="325.669279" y="333.36" style="stroke: #000000; stroke-width: 0.8"/>
      </g>
     </g>
     <g id="text_17">
      <!-- 10 -->
      <g transform="translate(319.306779 347.958438) scale(0.1 -0.1)">
       <use xlink:href="#DejaVuSans-31"/>
       <use xlink:href="#DejaVuSans-30" x="63.623047"/>
      </g>
     </g>
    </g>
    <g id="xtick_29">
     <g id="line2d_42">
      <g>
       <use xlink:href="#m199a0c0163" x="395.158694" y="333.36" style="stroke: #000000; stroke-width: 0.8"/>
      </g>
     </g>
     <g id="text_18">
      <!-- 15 -->
      <g transform="translate(388.796194 347.958438) scale(0.1 -0.1)">
       <use xlink:href="#DejaVuSans-31"/>
       <use xlink:href="#DejaVuSans-35" x="63.623047"/>
      </g>
     </g>
    </g>
    <g id="xtick_30">
     <g id="line2d_43">
      <g>
       <use xlink:href="#m199a0c0163" x="464.648109" y="333.36" style="stroke: #000000; stroke-width: 0.8"/>
      </g>
     </g>
     <g id="text_19">
      <!-- 20 -->
      <g transform="translate(458.285609 347.958438) scale(0.1 -0.1)">
       <defs>
        <path id="DejaVuSans-32" d="M 1228 531 
L 3431 531 
L 3431 0 
L 469 0 
L 469 531 
Q 828 903 1448 1529 
Q 2069 2156 2228 2338 
Q 2531 2678 2651 2914 
Q 2772 3150 2772 3378 
Q 2772 3750 2511 3984 
Q 2250 4219 1831 4219 
Q 1534 4219 1204 4116 
Q 875 4013 500 3803 
L 500 4441 
Q 881 4594 1212 4672 
Q 1544 4750 1819 4750 
Q 2544 4750 2975 4387 
Q 3406 4025 3406 3419 
Q 3406 3131 3298 2873 
Q 3191 2616 2906 2266 
Q 2828 2175 2409 1742 
Q 1991 1309 1228 531 
z
" transform="scale(0.015625)"/>
       </defs>
       <use xlink:href="#DejaVuSans-32"/>
       <use xlink:href="#DejaVuSans-30" x="63.623047"/>
      </g>
     </g>
    </g>
    <g id="xtick_31">
     <g id="line2d_44">
      <g>
       <use xlink:href="#m199a0c0163" x="534.137523" y="333.36" style="stroke: #000000; stroke-width: 0.8"/>
      </g>
     </g>
     <g id="text_20">
      <!-- 25 -->
      <g transform="translate(527.775023 347.958438) scale(0.1 -0.1)">
       <use xlink:href="#DejaVuSans-32"/>
       <use xlink:href="#DejaVuSans-35" x="63.623047"/>
      </g>
     </g>
    </g>
    <g id="xtick_32">
     <g id="line2d_45">
      <g>
       <use xlink:href="#m199a0c0163" x="603.626938" y="333.36" style="stroke: #000000; stroke-width: 0.8"/>
      </g>
     </g>
     <g id="text_21">
      <!-- 30 -->
      <g transform="translate(597.264438 347.958438) scale(0.1 -0.1)">
       <defs>
        <path id="DejaVuSans-33" d="M 2597 2516 
Q 3050 2419 3304 2112 
Q 3559 1806 3559 1356 
Q 3559 666 3084 287 
Q 2609 -91 1734 -91 
Q 1441 -91 1130 -33 
Q 819 25 488 141 
L 488 750 
Q 750 597 1062 519 
Q 1375 441 1716 441 
Q 2309 441 2620 675 
Q 2931 909 2931 1356 
Q 2931 1769 2642 2001 
Q 2353 2234 1838 2234 
L 1294 2234 
L 1294 2753 
L 1863 2753 
Q 2328 2753 2575 2939 
Q 2822 3125 2822 3475 
Q 2822 3834 2567 4026 
Q 2313 4219 1838 4219 
Q 1578 4219 1281 4162 
Q 984 4106 628 3988 
L 628 4550 
Q 988 4650 1302 4700 
Q 1616 4750 1894 4750 
Q 2613 4750 3031 4423 
Q 3450 4097 3450 3541 
Q 3450 3153 3228 2886 
Q 3006 2619 2597 2516 
z
" transform="scale(0.015625)"/>
       </defs>
       <use xlink:href="#DejaVuSans-33"/>
       <use xlink:href="#DejaVuSans-30" x="63.623047"/>
      </g>
     </g>
    </g>
   </g>
   <g id="matplotlib.axis_8">
    <g id="ytick_8">
     <g id="line2d_46">
      <g>
       <use xlink:href="#m7d9d63adb6" x="50.14375" y="330.137075" style="stroke: #000000; stroke-width: 0.8"/>
      </g>
     </g>
     <g id="text_22">
      <!-- 0.00 -->
      <g transform="translate(20.878125 333.936294) scale(0.1 -0.1)">
       <use xlink:href="#DejaVuSans-30"/>
       <use xlink:href="#DejaVuSans-2e" x="63.623047"/>
       <use xlink:href="#DejaVuSans-30" x="95.410156"/>
       <use xlink:href="#DejaVuSans-30" x="159.033203"/>
      </g>
     </g>
    </g>
    <g id="ytick_9">
     <g id="line2d_47">
      <g>
       <use xlink:href="#m7d9d63adb6" x="50.14375" y="299.727568" style="stroke: #000000; stroke-width: 0.8"/>
      </g>
     </g>
     <g id="text_23">
      <!-- 0.05 -->
      <g transform="translate(20.878125 303.526787) scale(0.1 -0.1)">
       <use xlink:href="#DejaVuSans-30"/>
       <use xlink:href="#DejaVuSans-2e" x="63.623047"/>
       <use xlink:href="#DejaVuSans-30" x="95.410156"/>
       <use xlink:href="#DejaVuSans-35" x="159.033203"/>
      </g>
     </g>
    </g>
    <g id="ytick_10">
     <g id="line2d_48">
      <g>
       <use xlink:href="#m7d9d63adb6" x="50.14375" y="269.318062" style="stroke: #000000; stroke-width: 0.8"/>
      </g>
     </g>
     <g id="text_24">
      <!-- 0.10 -->
      <g transform="translate(20.878125 273.11728) scale(0.1 -0.1)">
       <use xlink:href="#DejaVuSans-30"/>
       <use xlink:href="#DejaVuSans-2e" x="63.623047"/>
       <use xlink:href="#DejaVuSans-31" x="95.410156"/>
       <use xlink:href="#DejaVuSans-30" x="159.033203"/>
      </g>
     </g>
    </g>
    <g id="text_25">
     <!-- Density -->
     <g transform="translate(14.798437 316.91642) rotate(-90) scale(0.1 -0.1)">
      <use xlink:href="#DejaVuSans-44"/>
      <use xlink:href="#DejaVuSans-65" x="77.001953"/>
      <use xlink:href="#DejaVuSans-6e" x="138.525391"/>
      <use xlink:href="#DejaVuSans-73" x="201.904297"/>
      <use xlink:href="#DejaVuSans-69" x="254.003906"/>
      <use xlink:href="#DejaVuSans-74" x="281.787109"/>
      <use xlink:href="#DejaVuSans-79" x="320.996094"/>
     </g>
    </g>
   </g>
   <g id="line2d_49">
    <path d="M 110.252094 330.137075 
L 178.837242 330.02735 
L 184.513254 329.795412 
L 188.770263 329.405537 
L 192.08127 328.883649 
L 194.919276 328.221366 
L 197.757283 327.308328 
L 200.122288 326.324447 
L 202.487293 325.119633 
L 204.852298 323.689658 
L 207.690304 321.695152 
L 211.001311 319.062785 
L 219.51533 312.067965 
L 221.880335 310.463324 
L 224.24534 309.146118 
L 226.137344 308.323514 
L 228.029348 307.706505 
L 230.394353 307.192524 
L 233.232359 306.840605 
L 237.962369 306.290218 
L 239.854373 305.833089 
L 241.746378 305.108023 
L 243.165381 304.341359 
L 244.584384 303.353845 
L 246.003387 302.126354 
L 247.42239 300.648393 
L 249.314394 298.288371 
L 251.206398 295.51037 
L 253.571403 291.546808 
L 256.88241 285.440136 
L 260.666418 278.52156 
L 262.558422 275.449699 
L 264.450427 272.830694 
L 265.86943 271.237135 
L 267.288433 270.005543 
L 268.707436 269.162257 
L 269.653438 268.822462 
L 270.59944 268.660967 
L 271.545442 268.67471 
L 272.491444 268.857624 
L 273.910447 269.428748 
L 275.32945 270.31767 
L 276.748453 271.469932 
L 278.640457 273.302745 
L 284.316469 279.137117 
L 285.735472 280.276887 
L 287.154476 281.158547 
L 288.573479 281.735038 
L 289.519481 281.932954 
L 290.465483 281.974386 
L 291.411485 281.856656 
L 292.357487 281.580386 
L 293.77649 280.878195 
L 295.195493 279.855671 
L 296.614496 278.554899 
L 298.5065 276.485617 
L 302.290508 271.83545 
L 304.655513 269.131944 
L 306.074516 267.776561 
L 307.493519 266.71077 
L 308.912523 265.997077 
L 309.858525 265.742397 
L 310.804527 265.678577 
L 311.750529 265.814344 
L 312.696531 266.155419 
L 313.642533 266.70447 
L 314.588535 267.461126 
L 316.007538 268.97729 
L 317.426541 270.929358 
L 318.845544 273.281449 
L 320.737548 276.957674 
L 322.629552 281.127351 
L 325.467558 287.977329 
L 331.616572 303.062205 
L 333.981577 308.254207 
L 336.346582 312.85927 
L 338.238586 316.068101 
L 340.13059 318.838812 
L 342.022594 321.176626 
L 343.914598 323.100454 
L 345.806602 324.638006 
L 347.698606 325.821117 
L 349.59061 326.681594 
L 351.482614 327.247803 
L 353.374618 327.542141 
L 355.266623 327.579432 
L 357.158627 327.366273 
L 359.050631 326.901295 
L 360.942635 326.176289 
L 362.834639 325.178141 
L 364.726643 323.891466 
L 366.618647 322.301815 
L 368.510651 320.399286 
L 370.402655 318.182271 
L 372.294659 315.661081 
L 374.659664 312.122101 
L 377.497671 307.428916 
L 385.065687 294.534727 
L 386.957691 291.795034 
L 388.849695 289.472747 
L 390.268698 288.064657 
L 391.687701 286.981625 
L 393.106704 286.25085 
L 394.052706 285.968928 
L 394.998708 285.855233 
L 395.94471 285.91105 
L 396.890712 286.135714 
L 397.836714 286.526619 
L 399.255718 287.414343 
L 400.674721 288.642878 
L 402.093724 290.181349 
L 403.985728 292.648593 
L 405.877732 295.495042 
L 408.715738 300.225016 
L 414.864751 310.699271 
L 417.229756 314.271687 
L 419.12176 316.803917 
L 421.013764 319.000395 
L 422.905769 320.834074 
L 424.797773 322.290021 
L 426.216776 323.130409 
L 427.635779 323.755104 
L 429.054782 324.165675 
L 430.473785 324.364698 
L 431.892788 324.355438 
L 433.311791 324.141707 
L 434.730794 323.72788 
L 436.149797 323.119065 
L 438.041801 322.014834 
L 439.933805 320.593896 
L 441.825809 318.881724 
L 444.190814 316.384924 
L 447.028821 312.987653 
L 455.542839 302.424957 
L 457.434843 300.538458 
L 459.326847 299.000925 
L 460.74585 298.117949 
L 462.164853 297.491944 
L 463.583856 297.139048 
L 465.002859 297.06848 
L 466.421862 297.282179 
L 467.840866 297.77473 
L 469.259869 298.533609 
L 470.678872 299.539723 
L 472.570876 301.22213 
L 474.46288 303.227856 
L 476.827885 306.065263 
L 482.030896 312.8224 
L 485.341903 316.920188 
L 487.706908 319.547808 
L 490.071914 321.85392 
L 492.436919 323.811226 
L 494.801924 325.42041 
L 497.166929 326.703517 
L 499.531934 327.696754 
L 501.896939 328.443741 
L 504.734945 329.078893 
L 508.045952 329.551736 
L 511.82996 329.856181 
L 517.505973 330.053843 
L 527.911995 330.130821 
L 582.780114 330.137075 
L 582.780114 330.137075 
" clip-path="url(#pf6507e1c41)" style="fill: none; stroke: #d62728; stroke-width: 1.5; stroke-linecap: square"/>
   </g>
   <g id="patch_21">
    <path d="M 50.14375 333.36 
L 50.14375 262.455652 
" style="fill: none; stroke: #000000; stroke-width: 0.8; stroke-linejoin: miter; stroke-linecap: square"/>
   </g>
   <g id="patch_22">
    <path d="M 608.14375 333.36 
L 608.14375 262.455652 
" style="fill: none; stroke: #000000; stroke-width: 0.8; stroke-linejoin: miter; stroke-linecap: square"/>
   </g>
   <g id="patch_23">
    <path d="M 50.14375 333.36 
L 608.14375 333.36 
" style="fill: none; stroke: #000000; stroke-width: 0.8; stroke-linejoin: miter; stroke-linecap: square"/>
   </g>
   <g id="patch_24">
    <path d="M 50.14375 262.455652 
L 608.14375 262.455652 
" style="fill: none; stroke: #000000; stroke-width: 0.8; stroke-linejoin: miter; stroke-linecap: square"/>
   </g>
   <g id="legend_4">
    <g id="patch_25">
     <path d="M 413.120313 285.133777 
L 601.14375 285.133777 
Q 603.14375 285.133777 603.14375 283.133777 
L 603.14375 269.455652 
Q 603.14375 267.455652 601.14375 267.455652 
L 413.120313 267.455652 
Q 411.120313 267.455652 411.120313 269.455652 
L 411.120313 283.133777 
Q 411.120313 285.133777 413.120313 285.133777 
z
" style="fill: #ffffff; opacity: 0.8; stroke: #cccccc; stroke-linejoin: miter"/>
    </g>
    <g id="line2d_50">
     <path d="M 415.120313 275.55409 
L 425.120313 275.55409 
L 435.120313 275.55409 
" style="fill: none; stroke: #d62728; stroke-width: 1.5; stroke-linecap: square"/>
    </g>
    <g id="text_26">
     <!-- Max actual reported wait times -->
     <g transform="translate(443.120313 279.05409) scale(0.1 -0.1)">
      <use xlink:href="#DejaVuSans-4d"/>
      <use xlink:href="#DejaVuSans-61" x="86.279297"/>
      <use xlink:href="#DejaVuSans-78" x="147.558594"/>
      <use xlink:href="#DejaVuSans-20" x="206.738281"/>
      <use xlink:href="#DejaVuSans-61" x="238.525391"/>
      <use xlink:href="#DejaVuSans-63" x="299.804688"/>
      <use xlink:href="#DejaVuSans-74" x="354.785156"/>
      <use xlink:href="#DejaVuSans-75" x="393.994141"/>
      <use xlink:href="#DejaVuSans-61" x="457.373047"/>
      <use xlink:href="#DejaVuSans-6c" x="518.652344"/>
      <use xlink:href="#DejaVuSans-20" x="546.435547"/>
      <use xlink:href="#DejaVuSans-72" x="578.222656"/>
      <use xlink:href="#DejaVuSans-65" x="617.085938"/>
      <use xlink:href="#DejaVuSans-70" x="678.609375"/>
      <use xlink:href="#DejaVuSans-6f" x="742.085938"/>
      <use xlink:href="#DejaVuSans-72" x="803.267578"/>
      <use xlink:href="#DejaVuSans-74" x="844.380859"/>
      <use xlink:href="#DejaVuSans-65" x="883.589844"/>
      <use xlink:href="#DejaVuSans-64" x="945.113281"/>
      <use xlink:href="#DejaVuSans-20" x="1008.589844"/>
      <use xlink:href="#DejaVuSans-77" x="1040.376953"/>
      <use xlink:href="#DejaVuSans-61" x="1122.164062"/>
      <use xlink:href="#DejaVuSans-69" x="1183.443359"/>
      <use xlink:href="#DejaVuSans-74" x="1211.226562"/>
      <use xlink:href="#DejaVuSans-20" x="1250.435547"/>
      <use xlink:href="#DejaVuSans-74" x="1282.222656"/>
      <use xlink:href="#DejaVuSans-69" x="1321.431641"/>
      <use xlink:href="#DejaVuSans-6d" x="1349.214844"/>
      <use xlink:href="#DejaVuSans-65" x="1446.626953"/>
      <use xlink:href="#DejaVuSans-73" x="1508.150391"/>
     </g>
    </g>
   </g>
  </g>
 </g>
 <defs>
  <clipPath id="paa45ab9017">
   <rect x="50.14375" y="7.2" width="558" height="70.904348"/>
  </clipPath>
  <clipPath id="pea6d0d9aa7">
   <rect x="50.14375" y="92.285217" width="558" height="70.904348"/>
  </clipPath>
  <clipPath id="pef14679f84">
   <rect x="50.14375" y="177.370435" width="558" height="70.904348"/>
  </clipPath>
  <clipPath id="pf6507e1c41">
   <rect x="50.14375" y="262.455652" width="558" height="70.904348"/>
  </clipPath>
 </defs>
</svg>
