<?xml version="1.0" encoding="utf-8" standalone="no"?>
<!DOCTYPE svg PUBLIC "-//W3C//DTD SVG 1.1//EN"
  "http://www.w3.org/Graphics/SVG/1.1/DTD/svg11.dtd">
<svg xmlns:xlink="http://www.w3.org/1999/xlink" width="615.34375pt" height="486.375625pt" viewBox="0 0 615.34375 486.375625" xmlns="http://www.w3.org/2000/svg" version="1.1">
 <metadata>
  <rdf:RDF xmlns:dc="http://purl.org/dc/elements/1.1/" xmlns:cc="http://creativecommons.org/ns#" xmlns:rdf="http://www.w3.org/1999/02/22-rdf-syntax-ns#">
   <cc:Work>
    <dc:type rdf:resource="http://purl.org/dc/dcmitype/StillImage"/>
    <dc:date>2022-10-17T08:52:18.777354</dc:date>
    <dc:format>image/svg+xml</dc:format>
    <dc:creator>
     <cc:Agent>
      <dc:title>Matplotlib v3.6.0, https://matplotlib.org/</dc:title>
     </cc:Agent>
    </dc:creator>
   </cc:Work>
  </rdf:RDF>
 </metadata>
 <defs>
  <style type="text/css">*{stroke-linejoin: round; stroke-linecap: butt}</style>
 </defs>
 <g id="figure_1">
  <g id="patch_1">
   <path d="M 0 486.375625 
L 615.34375 486.375625 
L 615.34375 0 
L 0 0 
L 0 486.375625 
z
" style="fill: none"/>
  </g>
  <g id="axes_1">
   <g id="patch_2">
    <path d="M 50.14375 376.56 
L 608.14375 376.56 
L 608.14375 50.4 
L 50.14375 50.4 
z
" style="fill: #ffffff"/>
   </g>
   <g id="patch_3">
    <path d="M 78.04375 376.56 
L 87.34375 376.56 
L 87.34375 105.064621 
L 78.04375 105.064621 
z
" clip-path="url(#pf4e5800e55)" style="fill: #1f77b4"/>
   </g>
   <g id="patch_4">
    <path d="M 189.64375 376.56 
L 198.94375 376.56 
L 198.94375 176.071105 
L 189.64375 176.071105 
z
" clip-path="url(#pf4e5800e55)" style="fill: #1f77b4"/>
   </g>
   <g id="patch_5">
    <path d="M 301.24375 376.56 
L 310.54375 376.56 
L 310.54375 188.601661 
L 301.24375 188.601661 
z
" clip-path="url(#pf4e5800e55)" style="fill: #1f77b4"/>
   </g>
   <g id="patch_6">
    <path d="M 412.84375 376.56 
L 422.14375 376.56 
L 422.14375 230.370181 
L 412.84375 230.370181 
z
" clip-path="url(#pf4e5800e55)" style="fill: #1f77b4"/>
   </g>
   <g id="patch_7">
    <path d="M 524.44375 376.56 
L 533.74375 376.56 
L 533.74375 334.79148 
L 524.44375 334.79148 
z
" clip-path="url(#pf4e5800e55)" style="fill: #1f77b4"/>
   </g>
   <g id="patch_8">
    <path d="M 87.34375 376.56 
L 96.64375 376.56 
L 96.64375 142.987285 
L 87.34375 142.987285 
z
" clip-path="url(#pf4e5800e55)" style="fill: #ff7f0e"/>
   </g>
   <g id="patch_9">
    <path d="M 198.94375 376.56 
L 208.24375 376.56 
L 208.24375 141.387472 
L 198.94375 141.387472 
z
" clip-path="url(#pf4e5800e55)" style="fill: #ff7f0e"/>
   </g>
   <g id="patch_10">
    <path d="M 310.54375 376.56 
L 319.84375 376.56 
L 319.84375 121.123172 
L 310.54375 121.123172 
z
" clip-path="url(#pf4e5800e55)" style="fill: #ff7f0e"/>
   </g>
   <g id="patch_11">
    <path d="M 422.14375 376.56 
L 431.44375 376.56 
L 431.44375 270.439063 
L 422.14375 270.439063 
z
" clip-path="url(#pf4e5800e55)" style="fill: #ff7f0e"/>
   </g>
   <g id="patch_12">
    <path d="M 533.74375 376.56 
L 543.04375 376.56 
L 543.04375 358.962056 
L 533.74375 358.962056 
z
" clip-path="url(#pf4e5800e55)" style="fill: #ff7f0e"/>
   </g>
   <g id="patch_13">
    <path d="M 96.64375 376.56 
L 105.94375 376.56 
L 105.94375 186.731429 
L 96.64375 186.731429 
z
" clip-path="url(#pf4e5800e55)" style="fill: #2ca02c"/>
   </g>
   <g id="patch_14">
    <path d="M 208.24375 376.56 
L 217.54375 376.56 
L 217.54375 108.499048 
L 208.24375 108.499048 
z
" clip-path="url(#pf4e5800e55)" style="fill: #2ca02c"/>
   </g>
   <g id="patch_15">
    <path d="M 319.84375 376.56 
L 329.14375 376.56 
L 329.14375 65.931429 
L 319.84375 65.931429 
z
" clip-path="url(#pf4e5800e55)" style="fill: #2ca02c"/>
   </g>
   <g id="patch_16">
    <path d="M 431.44375 376.56 
L 440.74375 376.56 
L 440.74375 308.681905 
L 431.44375 308.681905 
z
" clip-path="url(#pf4e5800e55)" style="fill: #2ca02c"/>
   </g>
   <g id="patch_17">
    <path d="M 543.04375 376.56 
L 552.34375 376.56 
L 552.34375 365.055238 
L 543.04375 365.055238 
z
" clip-path="url(#pf4e5800e55)" style="fill: #2ca02c"/>
   </g>
   <g id="patch_18">
    <path d="M 105.94375 376.56 
L 115.24375 376.56 
L 115.24375 202.082187 
L 105.94375 202.082187 
z
" clip-path="url(#pf4e5800e55)" style="fill: #d62728"/>
   </g>
   <g id="patch_19">
    <path d="M 217.54375 376.56 
L 226.84375 376.56 
L 226.84375 162.289001 
L 217.54375 162.289001 
z
" clip-path="url(#pf4e5800e55)" style="fill: #d62728"/>
   </g>
   <g id="patch_20">
    <path d="M 329.14375 376.56 
L 338.44375 376.56 
L 338.44375 104.12973 
L 329.14375 104.12973 
z
" clip-path="url(#pf4e5800e55)" style="fill: #d62728"/>
   </g>
   <g id="patch_21">
    <path d="M 440.74375 376.56 
L 450.04375 376.56 
L 450.04375 238.814358 
L 440.74375 238.814358 
z
" clip-path="url(#pf4e5800e55)" style="fill: #d62728"/>
   </g>
   <g id="patch_22">
    <path d="M 552.34375 376.56 
L 561.64375 376.56 
L 561.64375 327.583772 
L 552.34375 327.583772 
z
" clip-path="url(#pf4e5800e55)" style="fill: #d62728"/>
   </g>
   <g id="patch_23">
    <path d="M 115.24375 376.56 
L 124.54375 376.56 
L 124.54375 282.348783 
L 115.24375 282.348783 
z
" clip-path="url(#pf4e5800e55)" style="fill: #9467bd"/>
   </g>
   <g id="patch_24">
    <path d="M 226.84375 376.56 
L 236.14375 376.56 
L 236.14375 125.330088 
L 226.84375 125.330088 
z
" clip-path="url(#pf4e5800e55)" style="fill: #9467bd"/>
   </g>
   <g id="patch_25">
    <path d="M 338.44375 376.56 
L 347.74375 376.56 
L 347.74375 188.137566 
L 338.44375 188.137566 
z
" clip-path="url(#pf4e5800e55)" style="fill: #9467bd"/>
   </g>
   <g id="patch_26">
    <path d="M 450.04375 376.56 
L 459.34375 376.56 
L 459.34375 282.348783 
L 450.04375 282.348783 
z
" clip-path="url(#pf4e5800e55)" style="fill: #9467bd"/>
   </g>
   <g id="patch_27">
    <path d="M 561.64375 376.56 
L 570.94375 376.56 
L 570.94375 156.733827 
L 561.64375 156.733827 
z
" clip-path="url(#pf4e5800e55)" style="fill: #9467bd"/>
   </g>
   <g id="patch_28">
    <path d="M 124.54375 376.56 
L 133.84375 376.56 
L 133.84375 158.605207 
L 124.54375 158.605207 
z
" clip-path="url(#pf4e5800e55)" style="fill: #8c564b"/>
   </g>
   <g id="patch_29">
    <path d="M 236.14375 376.56 
L 245.44375 376.56 
L 245.44375 137.377785 
L 236.14375 137.377785 
z
" clip-path="url(#pf4e5800e55)" style="fill: #8c564b"/>
   </g>
   <g id="patch_30">
    <path d="M 347.74375 376.56 
L 357.04375 376.56 
L 357.04375 110.469786 
L 347.74375 110.469786 
z
" clip-path="url(#pf4e5800e55)" style="fill: #8c564b"/>
   </g>
   <g id="patch_31">
    <path d="M 459.34375 376.56 
L 468.64375 376.56 
L 468.64375 274.608581 
L 459.34375 274.608581 
z
" clip-path="url(#pf4e5800e55)" style="fill: #8c564b"/>
   </g>
   <g id="patch_32">
    <path d="M 570.94375 376.56 
L 580.24375 376.56 
L 580.24375 353.83769 
L 570.94375 353.83769 
z
" clip-path="url(#pf4e5800e55)" style="fill: #8c564b"/>
   </g>
   <g id="matplotlib.axis_1">
    <g id="xtick_1">
     <g id="line2d_1">
      <defs>
       <path id="m058dc4fccd" d="M 0 0 
L 0 3.5 
" style="stroke: #000000; stroke-width: 0.8"/>
      </defs>
      <g>
       <use xlink:href="#m058dc4fccd" x="105.94375" y="376.56" style="stroke: #000000; stroke-width: 0.8"/>
      </g>
     </g>
     <g id="text_1">
      <!-- Very likely -->
      <g transform="translate(108.703125 434.820937) rotate(-90) scale(0.1 -0.1)">
       <defs>
        <path id="DejaVuSans-56" d="M 1831 0 
L 50 4666 
L 709 4666 
L 2188 738 
L 3669 4666 
L 4325 4666 
L 2547 0 
L 1831 0 
z
" transform="scale(0.015625)"/>
        <path id="DejaVuSans-65" d="M 3597 1894 
L 3597 1613 
L 953 1613 
Q 991 1019 1311 708 
Q 1631 397 2203 397 
Q 2534 397 2845 478 
Q 3156 559 3463 722 
L 3463 178 
Q 3153 47 2828 -22 
Q 2503 -91 2169 -91 
Q 1331 -91 842 396 
Q 353 884 353 1716 
Q 353 2575 817 3079 
Q 1281 3584 2069 3584 
Q 2775 3584 3186 3129 
Q 3597 2675 3597 1894 
z
M 3022 2063 
Q 3016 2534 2758 2815 
Q 2500 3097 2075 3097 
Q 1594 3097 1305 2825 
Q 1016 2553 972 2059 
L 3022 2063 
z
" transform="scale(0.015625)"/>
        <path id="DejaVuSans-72" d="M 2631 2963 
Q 2534 3019 2420 3045 
Q 2306 3072 2169 3072 
Q 1681 3072 1420 2755 
Q 1159 2438 1159 1844 
L 1159 0 
L 581 0 
L 581 3500 
L 1159 3500 
L 1159 2956 
Q 1341 3275 1631 3429 
Q 1922 3584 2338 3584 
Q 2397 3584 2469 3576 
Q 2541 3569 2628 3553 
L 2631 2963 
z
" transform="scale(0.015625)"/>
        <path id="DejaVuSans-79" d="M 2059 -325 
Q 1816 -950 1584 -1140 
Q 1353 -1331 966 -1331 
L 506 -1331 
L 506 -850 
L 844 -850 
Q 1081 -850 1212 -737 
Q 1344 -625 1503 -206 
L 1606 56 
L 191 3500 
L 800 3500 
L 1894 763 
L 2988 3500 
L 3597 3500 
L 2059 -325 
z
" transform="scale(0.015625)"/>
        <path id="DejaVuSans-20" transform="scale(0.015625)"/>
        <path id="DejaVuSans-6c" d="M 603 4863 
L 1178 4863 
L 1178 0 
L 603 0 
L 603 4863 
z
" transform="scale(0.015625)"/>
        <path id="DejaVuSans-69" d="M 603 3500 
L 1178 3500 
L 1178 0 
L 603 0 
L 603 3500 
z
M 603 4863 
L 1178 4863 
L 1178 4134 
L 603 4134 
L 603 4863 
z
" transform="scale(0.015625)"/>
        <path id="DejaVuSans-6b" d="M 581 4863 
L 1159 4863 
L 1159 1991 
L 2875 3500 
L 3609 3500 
L 1753 1863 
L 3688 0 
L 2938 0 
L 1159 1709 
L 1159 0 
L 581 0 
L 581 4863 
z
" transform="scale(0.015625)"/>
       </defs>
       <use xlink:href="#DejaVuSans-56"/>
       <use xlink:href="#DejaVuSans-65" x="60.658203"/>
       <use xlink:href="#DejaVuSans-72" x="122.181641"/>
       <use xlink:href="#DejaVuSans-79" x="163.294922"/>
       <use xlink:href="#DejaVuSans-20" x="222.474609"/>
       <use xlink:href="#DejaVuSans-6c" x="254.261719"/>
       <use xlink:href="#DejaVuSans-69" x="282.044922"/>
       <use xlink:href="#DejaVuSans-6b" x="309.828125"/>
       <use xlink:href="#DejaVuSans-65" x="364.113281"/>
       <use xlink:href="#DejaVuSans-6c" x="425.636719"/>
       <use xlink:href="#DejaVuSans-79" x="453.419922"/>
      </g>
     </g>
    </g>
    <g id="xtick_2">
     <g id="line2d_2">
      <g>
       <use xlink:href="#m058dc4fccd" x="217.54375" y="376.56" style="stroke: #000000; stroke-width: 0.8"/>
      </g>
     </g>
     <g id="text_2">
      <!-- Somewhat likely -->
      <g transform="translate(220.303125 465.4975) rotate(-90) scale(0.1 -0.1)">
       <defs>
        <path id="DejaVuSans-53" d="M 3425 4513 
L 3425 3897 
Q 3066 4069 2747 4153 
Q 2428 4238 2131 4238 
Q 1616 4238 1336 4038 
Q 1056 3838 1056 3469 
Q 1056 3159 1242 3001 
Q 1428 2844 1947 2747 
L 2328 2669 
Q 3034 2534 3370 2195 
Q 3706 1856 3706 1288 
Q 3706 609 3251 259 
Q 2797 -91 1919 -91 
Q 1588 -91 1214 -16 
Q 841 59 441 206 
L 441 856 
Q 825 641 1194 531 
Q 1563 422 1919 422 
Q 2459 422 2753 634 
Q 3047 847 3047 1241 
Q 3047 1584 2836 1778 
Q 2625 1972 2144 2069 
L 1759 2144 
Q 1053 2284 737 2584 
Q 422 2884 422 3419 
Q 422 4038 858 4394 
Q 1294 4750 2059 4750 
Q 2388 4750 2728 4690 
Q 3069 4631 3425 4513 
z
" transform="scale(0.015625)"/>
        <path id="DejaVuSans-6f" d="M 1959 3097 
Q 1497 3097 1228 2736 
Q 959 2375 959 1747 
Q 959 1119 1226 758 
Q 1494 397 1959 397 
Q 2419 397 2687 759 
Q 2956 1122 2956 1747 
Q 2956 2369 2687 2733 
Q 2419 3097 1959 3097 
z
M 1959 3584 
Q 2709 3584 3137 3096 
Q 3566 2609 3566 1747 
Q 3566 888 3137 398 
Q 2709 -91 1959 -91 
Q 1206 -91 779 398 
Q 353 888 353 1747 
Q 353 2609 779 3096 
Q 1206 3584 1959 3584 
z
" transform="scale(0.015625)"/>
        <path id="DejaVuSans-6d" d="M 3328 2828 
Q 3544 3216 3844 3400 
Q 4144 3584 4550 3584 
Q 5097 3584 5394 3201 
Q 5691 2819 5691 2113 
L 5691 0 
L 5113 0 
L 5113 2094 
Q 5113 2597 4934 2840 
Q 4756 3084 4391 3084 
Q 3944 3084 3684 2787 
Q 3425 2491 3425 1978 
L 3425 0 
L 2847 0 
L 2847 2094 
Q 2847 2600 2669 2842 
Q 2491 3084 2119 3084 
Q 1678 3084 1418 2786 
Q 1159 2488 1159 1978 
L 1159 0 
L 581 0 
L 581 3500 
L 1159 3500 
L 1159 2956 
Q 1356 3278 1631 3431 
Q 1906 3584 2284 3584 
Q 2666 3584 2933 3390 
Q 3200 3197 3328 2828 
z
" transform="scale(0.015625)"/>
        <path id="DejaVuSans-77" d="M 269 3500 
L 844 3500 
L 1563 769 
L 2278 3500 
L 2956 3500 
L 3675 769 
L 4391 3500 
L 4966 3500 
L 4050 0 
L 3372 0 
L 2619 2869 
L 1863 0 
L 1184 0 
L 269 3500 
z
" transform="scale(0.015625)"/>
        <path id="DejaVuSans-68" d="M 3513 2113 
L 3513 0 
L 2938 0 
L 2938 2094 
Q 2938 2591 2744 2837 
Q 2550 3084 2163 3084 
Q 1697 3084 1428 2787 
Q 1159 2491 1159 1978 
L 1159 0 
L 581 0 
L 581 4863 
L 1159 4863 
L 1159 2956 
Q 1366 3272 1645 3428 
Q 1925 3584 2291 3584 
Q 2894 3584 3203 3211 
Q 3513 2838 3513 2113 
z
" transform="scale(0.015625)"/>
        <path id="DejaVuSans-61" d="M 2194 1759 
Q 1497 1759 1228 1600 
Q 959 1441 959 1056 
Q 959 750 1161 570 
Q 1363 391 1709 391 
Q 2188 391 2477 730 
Q 2766 1069 2766 1631 
L 2766 1759 
L 2194 1759 
z
M 3341 1997 
L 3341 0 
L 2766 0 
L 2766 531 
Q 2569 213 2275 61 
Q 1981 -91 1556 -91 
Q 1019 -91 701 211 
Q 384 513 384 1019 
Q 384 1609 779 1909 
Q 1175 2209 1959 2209 
L 2766 2209 
L 2766 2266 
Q 2766 2663 2505 2880 
Q 2244 3097 1772 3097 
Q 1472 3097 1187 3025 
Q 903 2953 641 2809 
L 641 3341 
Q 956 3463 1253 3523 
Q 1550 3584 1831 3584 
Q 2591 3584 2966 3190 
Q 3341 2797 3341 1997 
z
" transform="scale(0.015625)"/>
        <path id="DejaVuSans-74" d="M 1172 4494 
L 1172 3500 
L 2356 3500 
L 2356 3053 
L 1172 3053 
L 1172 1153 
Q 1172 725 1289 603 
Q 1406 481 1766 481 
L 2356 481 
L 2356 0 
L 1766 0 
Q 1100 0 847 248 
Q 594 497 594 1153 
L 594 3053 
L 172 3053 
L 172 3500 
L 594 3500 
L 594 4494 
L 1172 4494 
z
" transform="scale(0.015625)"/>
       </defs>
       <use xlink:href="#DejaVuSans-53"/>
       <use xlink:href="#DejaVuSans-6f" x="63.476562"/>
       <use xlink:href="#DejaVuSans-6d" x="124.658203"/>
       <use xlink:href="#DejaVuSans-65" x="222.070312"/>
       <use xlink:href="#DejaVuSans-77" x="283.59375"/>
       <use xlink:href="#DejaVuSans-68" x="365.380859"/>
       <use xlink:href="#DejaVuSans-61" x="428.759766"/>
       <use xlink:href="#DejaVuSans-74" x="490.039062"/>
       <use xlink:href="#DejaVuSans-20" x="529.248047"/>
       <use xlink:href="#DejaVuSans-6c" x="561.035156"/>
       <use xlink:href="#DejaVuSans-69" x="588.818359"/>
       <use xlink:href="#DejaVuSans-6b" x="616.601562"/>
       <use xlink:href="#DejaVuSans-65" x="670.886719"/>
       <use xlink:href="#DejaVuSans-6c" x="732.410156"/>
       <use xlink:href="#DejaVuSans-79" x="760.193359"/>
      </g>
     </g>
    </g>
    <g id="xtick_3">
     <g id="line2d_3">
      <g>
       <use xlink:href="#m058dc4fccd" x="329.14375" y="376.56" style="stroke: #000000; stroke-width: 0.8"/>
      </g>
     </g>
     <g id="text_3">
      <!-- Likely -->
      <g transform="translate(331.903125 412.188125) rotate(-90) scale(0.1 -0.1)">
       <defs>
        <path id="DejaVuSans-4c" d="M 628 4666 
L 1259 4666 
L 1259 531 
L 3531 531 
L 3531 0 
L 628 0 
L 628 4666 
z
" transform="scale(0.015625)"/>
       </defs>
       <use xlink:href="#DejaVuSans-4c"/>
       <use xlink:href="#DejaVuSans-69" x="55.712891"/>
       <use xlink:href="#DejaVuSans-6b" x="83.496094"/>
       <use xlink:href="#DejaVuSans-65" x="137.78125"/>
       <use xlink:href="#DejaVuSans-6c" x="199.304688"/>
       <use xlink:href="#DejaVuSans-79" x="227.087891"/>
      </g>
     </g>
    </g>
    <g id="xtick_4">
     <g id="line2d_4">
      <g>
       <use xlink:href="#m058dc4fccd" x="440.74375" y="376.56" style="stroke: #000000; stroke-width: 0.8"/>
      </g>
     </g>
     <g id="text_4">
      <!-- Not very likely -->
      <g transform="translate(443.503125 455.3725) rotate(-90) scale(0.1 -0.1)">
       <defs>
        <path id="DejaVuSans-4e" d="M 628 4666 
L 1478 4666 
L 3547 763 
L 3547 4666 
L 4159 4666 
L 4159 0 
L 3309 0 
L 1241 3903 
L 1241 0 
L 628 0 
L 628 4666 
z
" transform="scale(0.015625)"/>
        <path id="DejaVuSans-76" d="M 191 3500 
L 800 3500 
L 1894 563 
L 2988 3500 
L 3597 3500 
L 2284 0 
L 1503 0 
L 191 3500 
z
" transform="scale(0.015625)"/>
       </defs>
       <use xlink:href="#DejaVuSans-4e"/>
       <use xlink:href="#DejaVuSans-6f" x="74.804688"/>
       <use xlink:href="#DejaVuSans-74" x="135.986328"/>
       <use xlink:href="#DejaVuSans-20" x="175.195312"/>
       <use xlink:href="#DejaVuSans-76" x="206.982422"/>
       <use xlink:href="#DejaVuSans-65" x="266.162109"/>
       <use xlink:href="#DejaVuSans-72" x="327.685547"/>
       <use xlink:href="#DejaVuSans-79" x="368.798828"/>
       <use xlink:href="#DejaVuSans-20" x="427.978516"/>
       <use xlink:href="#DejaVuSans-6c" x="459.765625"/>
       <use xlink:href="#DejaVuSans-69" x="487.548828"/>
       <use xlink:href="#DejaVuSans-6b" x="515.332031"/>
       <use xlink:href="#DejaVuSans-65" x="569.617188"/>
       <use xlink:href="#DejaVuSans-6c" x="631.140625"/>
       <use xlink:href="#DejaVuSans-79" x="658.923828"/>
      </g>
     </g>
    </g>
    <g id="xtick_5">
     <g id="line2d_5">
      <g>
       <use xlink:href="#m058dc4fccd" x="552.34375" y="376.56" style="stroke: #000000; stroke-width: 0.8"/>
      </g>
     </g>
     <g id="text_5">
      <!-- Never -->
      <g transform="translate(555.103125 413.377187) rotate(-90) scale(0.1 -0.1)">
       <use xlink:href="#DejaVuSans-4e"/>
       <use xlink:href="#DejaVuSans-65" x="74.804688"/>
       <use xlink:href="#DejaVuSans-76" x="136.328125"/>
       <use xlink:href="#DejaVuSans-65" x="195.507812"/>
       <use xlink:href="#DejaVuSans-72" x="257.03125"/>
      </g>
     </g>
    </g>
    <g id="text_6">
     <!-- liklihood -->
     <g transform="translate(308.230469 477.095937) scale(0.1 -0.1)">
      <defs>
       <path id="DejaVuSans-64" d="M 2906 2969 
L 2906 4863 
L 3481 4863 
L 3481 0 
L 2906 0 
L 2906 525 
Q 2725 213 2448 61 
Q 2172 -91 1784 -91 
Q 1150 -91 751 415 
Q 353 922 353 1747 
Q 353 2572 751 3078 
Q 1150 3584 1784 3584 
Q 2172 3584 2448 3432 
Q 2725 3281 2906 2969 
z
M 947 1747 
Q 947 1113 1208 752 
Q 1469 391 1925 391 
Q 2381 391 2643 752 
Q 2906 1113 2906 1747 
Q 2906 2381 2643 2742 
Q 2381 3103 1925 3103 
Q 1469 3103 1208 2742 
Q 947 2381 947 1747 
z
" transform="scale(0.015625)"/>
      </defs>
      <use xlink:href="#DejaVuSans-6c"/>
      <use xlink:href="#DejaVuSans-69" x="27.783203"/>
      <use xlink:href="#DejaVuSans-6b" x="55.566406"/>
      <use xlink:href="#DejaVuSans-6c" x="113.476562"/>
      <use xlink:href="#DejaVuSans-69" x="141.259766"/>
      <use xlink:href="#DejaVuSans-68" x="169.042969"/>
      <use xlink:href="#DejaVuSans-6f" x="232.421875"/>
      <use xlink:href="#DejaVuSans-6f" x="293.603516"/>
      <use xlink:href="#DejaVuSans-64" x="354.785156"/>
     </g>
    </g>
   </g>
   <g id="matplotlib.axis_2">
    <g id="ytick_1">
     <g id="line2d_6">
      <defs>
       <path id="mac1e84c195" d="M 0 0 
L -3.5 0 
" style="stroke: #000000; stroke-width: 0.8"/>
      </defs>
      <g>
       <use xlink:href="#mac1e84c195" x="50.14375" y="376.56" style="stroke: #000000; stroke-width: 0.8"/>
      </g>
     </g>
     <g id="text_7">
      <!-- 0.00 -->
      <g transform="translate(20.878125 380.359219) scale(0.1 -0.1)">
       <defs>
        <path id="DejaVuSans-30" d="M 2034 4250 
Q 1547 4250 1301 3770 
Q 1056 3291 1056 2328 
Q 1056 1369 1301 889 
Q 1547 409 2034 409 
Q 2525 409 2770 889 
Q 3016 1369 3016 2328 
Q 3016 3291 2770 3770 
Q 2525 4250 2034 4250 
z
M 2034 4750 
Q 2819 4750 3233 4129 
Q 3647 3509 3647 2328 
Q 3647 1150 3233 529 
Q 2819 -91 2034 -91 
Q 1250 -91 836 529 
Q 422 1150 422 2328 
Q 422 3509 836 4129 
Q 1250 4750 2034 4750 
z
" transform="scale(0.015625)"/>
        <path id="DejaVuSans-2e" d="M 684 794 
L 1344 794 
L 1344 0 
L 684 0 
L 684 794 
z
" transform="scale(0.015625)"/>
       </defs>
       <use xlink:href="#DejaVuSans-30"/>
       <use xlink:href="#DejaVuSans-2e" x="63.623047"/>
       <use xlink:href="#DejaVuSans-30" x="95.410156"/>
       <use xlink:href="#DejaVuSans-30" x="159.033203"/>
      </g>
     </g>
    </g>
    <g id="ytick_2">
     <g id="line2d_7">
      <g>
       <use xlink:href="#mac1e84c195" x="50.14375" y="334.164952" style="stroke: #000000; stroke-width: 0.8"/>
      </g>
     </g>
     <g id="text_8">
      <!-- 0.05 -->
      <g transform="translate(20.878125 337.964171) scale(0.1 -0.1)">
       <defs>
        <path id="DejaVuSans-35" d="M 691 4666 
L 3169 4666 
L 3169 4134 
L 1269 4134 
L 1269 2991 
Q 1406 3038 1543 3061 
Q 1681 3084 1819 3084 
Q 2600 3084 3056 2656 
Q 3513 2228 3513 1497 
Q 3513 744 3044 326 
Q 2575 -91 1722 -91 
Q 1428 -91 1123 -41 
Q 819 9 494 109 
L 494 744 
Q 775 591 1075 516 
Q 1375 441 1709 441 
Q 2250 441 2565 725 
Q 2881 1009 2881 1497 
Q 2881 1984 2565 2268 
Q 2250 2553 1709 2553 
Q 1456 2553 1204 2497 
Q 953 2441 691 2322 
L 691 4666 
z
" transform="scale(0.015625)"/>
       </defs>
       <use xlink:href="#DejaVuSans-30"/>
       <use xlink:href="#DejaVuSans-2e" x="63.623047"/>
       <use xlink:href="#DejaVuSans-30" x="95.410156"/>
       <use xlink:href="#DejaVuSans-35" x="159.033203"/>
      </g>
     </g>
    </g>
    <g id="ytick_3">
     <g id="line2d_8">
      <g>
       <use xlink:href="#mac1e84c195" x="50.14375" y="291.769905" style="stroke: #000000; stroke-width: 0.8"/>
      </g>
     </g>
     <g id="text_9">
      <!-- 0.10 -->
      <g transform="translate(20.878125 295.569124) scale(0.1 -0.1)">
       <defs>
        <path id="DejaVuSans-31" d="M 794 531 
L 1825 531 
L 1825 4091 
L 703 3866 
L 703 4441 
L 1819 4666 
L 2450 4666 
L 2450 531 
L 3481 531 
L 3481 0 
L 794 0 
L 794 531 
z
" transform="scale(0.015625)"/>
       </defs>
       <use xlink:href="#DejaVuSans-30"/>
       <use xlink:href="#DejaVuSans-2e" x="63.623047"/>
       <use xlink:href="#DejaVuSans-31" x="95.410156"/>
       <use xlink:href="#DejaVuSans-30" x="159.033203"/>
      </g>
     </g>
    </g>
    <g id="ytick_4">
     <g id="line2d_9">
      <g>
       <use xlink:href="#mac1e84c195" x="50.14375" y="249.374857" style="stroke: #000000; stroke-width: 0.8"/>
      </g>
     </g>
     <g id="text_10">
      <!-- 0.15 -->
      <g transform="translate(20.878125 253.174076) scale(0.1 -0.1)">
       <use xlink:href="#DejaVuSans-30"/>
       <use xlink:href="#DejaVuSans-2e" x="63.623047"/>
       <use xlink:href="#DejaVuSans-31" x="95.410156"/>
       <use xlink:href="#DejaVuSans-35" x="159.033203"/>
      </g>
     </g>
    </g>
    <g id="ytick_5">
     <g id="line2d_10">
      <g>
       <use xlink:href="#mac1e84c195" x="50.14375" y="206.97981" style="stroke: #000000; stroke-width: 0.8"/>
      </g>
     </g>
     <g id="text_11">
      <!-- 0.20 -->
      <g transform="translate(20.878125 210.779028) scale(0.1 -0.1)">
       <defs>
        <path id="DejaVuSans-32" d="M 1228 531 
L 3431 531 
L 3431 0 
L 469 0 
L 469 531 
Q 828 903 1448 1529 
Q 2069 2156 2228 2338 
Q 2531 2678 2651 2914 
Q 2772 3150 2772 3378 
Q 2772 3750 2511 3984 
Q 2250 4219 1831 4219 
Q 1534 4219 1204 4116 
Q 875 4013 500 3803 
L 500 4441 
Q 881 4594 1212 4672 
Q 1544 4750 1819 4750 
Q 2544 4750 2975 4387 
Q 3406 4025 3406 3419 
Q 3406 3131 3298 2873 
Q 3191 2616 2906 2266 
Q 2828 2175 2409 1742 
Q 1991 1309 1228 531 
z
" transform="scale(0.015625)"/>
       </defs>
       <use xlink:href="#DejaVuSans-30"/>
       <use xlink:href="#DejaVuSans-2e" x="63.623047"/>
       <use xlink:href="#DejaVuSans-32" x="95.410156"/>
       <use xlink:href="#DejaVuSans-30" x="159.033203"/>
      </g>
     </g>
    </g>
    <g id="ytick_6">
     <g id="line2d_11">
      <g>
       <use xlink:href="#mac1e84c195" x="50.14375" y="164.584762" style="stroke: #000000; stroke-width: 0.8"/>
      </g>
     </g>
     <g id="text_12">
      <!-- 0.25 -->
      <g transform="translate(20.878125 168.383981) scale(0.1 -0.1)">
       <use xlink:href="#DejaVuSans-30"/>
       <use xlink:href="#DejaVuSans-2e" x="63.623047"/>
       <use xlink:href="#DejaVuSans-32" x="95.410156"/>
       <use xlink:href="#DejaVuSans-35" x="159.033203"/>
      </g>
     </g>
    </g>
    <g id="ytick_7">
     <g id="line2d_12">
      <g>
       <use xlink:href="#mac1e84c195" x="50.14375" y="122.189714" style="stroke: #000000; stroke-width: 0.8"/>
      </g>
     </g>
     <g id="text_13">
      <!-- 0.30 -->
      <g transform="translate(20.878125 125.988933) scale(0.1 -0.1)">
       <defs>
        <path id="DejaVuSans-33" d="M 2597 2516 
Q 3050 2419 3304 2112 
Q 3559 1806 3559 1356 
Q 3559 666 3084 287 
Q 2609 -91 1734 -91 
Q 1441 -91 1130 -33 
Q 819 25 488 141 
L 488 750 
Q 750 597 1062 519 
Q 1375 441 1716 441 
Q 2309 441 2620 675 
Q 2931 909 2931 1356 
Q 2931 1769 2642 2001 
Q 2353 2234 1838 2234 
L 1294 2234 
L 1294 2753 
L 1863 2753 
Q 2328 2753 2575 2939 
Q 2822 3125 2822 3475 
Q 2822 3834 2567 4026 
Q 2313 4219 1838 4219 
Q 1578 4219 1281 4162 
Q 984 4106 628 3988 
L 628 4550 
Q 988 4650 1302 4700 
Q 1616 4750 1894 4750 
Q 2613 4750 3031 4423 
Q 3450 4097 3450 3541 
Q 3450 3153 3228 2886 
Q 3006 2619 2597 2516 
z
" transform="scale(0.015625)"/>
       </defs>
       <use xlink:href="#DejaVuSans-30"/>
       <use xlink:href="#DejaVuSans-2e" x="63.623047"/>
       <use xlink:href="#DejaVuSans-33" x="95.410156"/>
       <use xlink:href="#DejaVuSans-30" x="159.033203"/>
      </g>
     </g>
    </g>
    <g id="ytick_8">
     <g id="line2d_13">
      <g>
       <use xlink:href="#mac1e84c195" x="50.14375" y="79.794667" style="stroke: #000000; stroke-width: 0.8"/>
      </g>
     </g>
     <g id="text_14">
      <!-- 0.35 -->
      <g transform="translate(20.878125 83.593885) scale(0.1 -0.1)">
       <use xlink:href="#DejaVuSans-30"/>
       <use xlink:href="#DejaVuSans-2e" x="63.623047"/>
       <use xlink:href="#DejaVuSans-33" x="95.410156"/>
       <use xlink:href="#DejaVuSans-35" x="159.033203"/>
      </g>
     </g>
    </g>
    <g id="text_15">
     <!-- Probability -->
     <g transform="translate(14.798437 239.908906) rotate(-90) scale(0.1 -0.1)">
      <defs>
       <path id="DejaVuSans-50" d="M 1259 4147 
L 1259 2394 
L 2053 2394 
Q 2494 2394 2734 2622 
Q 2975 2850 2975 3272 
Q 2975 3691 2734 3919 
Q 2494 4147 2053 4147 
L 1259 4147 
z
M 628 4666 
L 2053 4666 
Q 2838 4666 3239 4311 
Q 3641 3956 3641 3272 
Q 3641 2581 3239 2228 
Q 2838 1875 2053 1875 
L 1259 1875 
L 1259 0 
L 628 0 
L 628 4666 
z
" transform="scale(0.015625)"/>
       <path id="DejaVuSans-62" d="M 3116 1747 
Q 3116 2381 2855 2742 
Q 2594 3103 2138 3103 
Q 1681 3103 1420 2742 
Q 1159 2381 1159 1747 
Q 1159 1113 1420 752 
Q 1681 391 2138 391 
Q 2594 391 2855 752 
Q 3116 1113 3116 1747 
z
M 1159 2969 
Q 1341 3281 1617 3432 
Q 1894 3584 2278 3584 
Q 2916 3584 3314 3078 
Q 3713 2572 3713 1747 
Q 3713 922 3314 415 
Q 2916 -91 2278 -91 
Q 1894 -91 1617 61 
Q 1341 213 1159 525 
L 1159 0 
L 581 0 
L 581 4863 
L 1159 4863 
L 1159 2969 
z
" transform="scale(0.015625)"/>
      </defs>
      <use xlink:href="#DejaVuSans-50"/>
      <use xlink:href="#DejaVuSans-72" x="58.552734"/>
      <use xlink:href="#DejaVuSans-6f" x="97.416016"/>
      <use xlink:href="#DejaVuSans-62" x="158.597656"/>
      <use xlink:href="#DejaVuSans-61" x="222.074219"/>
      <use xlink:href="#DejaVuSans-62" x="283.353516"/>
      <use xlink:href="#DejaVuSans-69" x="346.830078"/>
      <use xlink:href="#DejaVuSans-6c" x="374.613281"/>
      <use xlink:href="#DejaVuSans-69" x="402.396484"/>
      <use xlink:href="#DejaVuSans-74" x="430.179688"/>
      <use xlink:href="#DejaVuSans-79" x="469.388672"/>
     </g>
    </g>
   </g>
   <g id="patch_33">
    <path d="M 50.14375 376.56 
L 50.14375 50.4 
" style="fill: none; stroke: #000000; stroke-width: 0.8; stroke-linejoin: miter; stroke-linecap: square"/>
   </g>
   <g id="patch_34">
    <path d="M 608.14375 376.56 
L 608.14375 50.4 
" style="fill: none; stroke: #000000; stroke-width: 0.8; stroke-linejoin: miter; stroke-linecap: square"/>
   </g>
   <g id="patch_35">
    <path d="M 50.14375 376.56 
L 608.14375 376.56 
" style="fill: none; stroke: #000000; stroke-width: 0.8; stroke-linejoin: miter; stroke-linecap: square"/>
   </g>
   <g id="patch_36">
    <path d="M 50.14375 50.4 
L 608.14375 50.4 
" style="fill: none; stroke: #000000; stroke-width: 0.8; stroke-linejoin: miter; stroke-linecap: square"/>
   </g>
   <g id="legend_1">
    <g id="patch_37">
     <path d="M 522.971875 146.46875 
L 601.14375 146.46875 
Q 603.14375 146.46875 603.14375 144.46875 
L 603.14375 57.4 
Q 603.14375 55.4 601.14375 55.4 
L 522.971875 55.4 
Q 520.971875 55.4 520.971875 57.4 
L 520.971875 144.46875 
Q 520.971875 146.46875 522.971875 146.46875 
z
" style="fill: #ffffff; opacity: 0.8; stroke: #cccccc; stroke-linejoin: miter"/>
    </g>
    <g id="patch_38">
     <path d="M 524.971875 66.998437 
L 544.971875 66.998437 
L 544.971875 59.998437 
L 524.971875 59.998437 
z
" style="fill: #1f77b4"/>
    </g>
    <g id="text_16">
     <!-- Under 21 -->
     <g transform="translate(552.971875 66.998437) scale(0.1 -0.1)">
      <defs>
       <path id="DejaVuSans-55" d="M 556 4666 
L 1191 4666 
L 1191 1831 
Q 1191 1081 1462 751 
Q 1734 422 2344 422 
Q 2950 422 3222 751 
Q 3494 1081 3494 1831 
L 3494 4666 
L 4128 4666 
L 4128 1753 
Q 4128 841 3676 375 
Q 3225 -91 2344 -91 
Q 1459 -91 1007 375 
Q 556 841 556 1753 
L 556 4666 
z
" transform="scale(0.015625)"/>
       <path id="DejaVuSans-6e" d="M 3513 2113 
L 3513 0 
L 2938 0 
L 2938 2094 
Q 2938 2591 2744 2837 
Q 2550 3084 2163 3084 
Q 1697 3084 1428 2787 
Q 1159 2491 1159 1978 
L 1159 0 
L 581 0 
L 581 3500 
L 1159 3500 
L 1159 2956 
Q 1366 3272 1645 3428 
Q 1925 3584 2291 3584 
Q 2894 3584 3203 3211 
Q 3513 2838 3513 2113 
z
" transform="scale(0.015625)"/>
      </defs>
      <use xlink:href="#DejaVuSans-55"/>
      <use xlink:href="#DejaVuSans-6e" x="73.193359"/>
      <use xlink:href="#DejaVuSans-64" x="136.572266"/>
      <use xlink:href="#DejaVuSans-65" x="200.048828"/>
      <use xlink:href="#DejaVuSans-72" x="261.572266"/>
      <use xlink:href="#DejaVuSans-20" x="302.685547"/>
      <use xlink:href="#DejaVuSans-32" x="334.472656"/>
      <use xlink:href="#DejaVuSans-31" x="398.095703"/>
     </g>
    </g>
    <g id="patch_39">
     <path d="M 524.971875 81.676562 
L 544.971875 81.676562 
L 544.971875 74.676562 
L 524.971875 74.676562 
z
" style="fill: #ff7f0e"/>
    </g>
    <g id="text_17">
     <!-- 21 - 35 -->
     <g transform="translate(552.971875 81.676562) scale(0.1 -0.1)">
      <defs>
       <path id="DejaVuSans-2d" d="M 313 2009 
L 1997 2009 
L 1997 1497 
L 313 1497 
L 313 2009 
z
" transform="scale(0.015625)"/>
      </defs>
      <use xlink:href="#DejaVuSans-32"/>
      <use xlink:href="#DejaVuSans-31" x="63.623047"/>
      <use xlink:href="#DejaVuSans-20" x="127.246094"/>
      <use xlink:href="#DejaVuSans-2d" x="159.033203"/>
      <use xlink:href="#DejaVuSans-20" x="195.117188"/>
      <use xlink:href="#DejaVuSans-33" x="226.904297"/>
      <use xlink:href="#DejaVuSans-35" x="290.527344"/>
     </g>
    </g>
    <g id="patch_40">
     <path d="M 524.971875 96.354687 
L 544.971875 96.354687 
L 544.971875 89.354687 
L 524.971875 89.354687 
z
" style="fill: #2ca02c"/>
    </g>
    <g id="text_18">
     <!-- 35 - 40 -->
     <g transform="translate(552.971875 96.354687) scale(0.1 -0.1)">
      <defs>
       <path id="DejaVuSans-34" d="M 2419 4116 
L 825 1625 
L 2419 1625 
L 2419 4116 
z
M 2253 4666 
L 3047 4666 
L 3047 1625 
L 3713 1625 
L 3713 1100 
L 3047 1100 
L 3047 0 
L 2419 0 
L 2419 1100 
L 313 1100 
L 313 1709 
L 2253 4666 
z
" transform="scale(0.015625)"/>
      </defs>
      <use xlink:href="#DejaVuSans-33"/>
      <use xlink:href="#DejaVuSans-35" x="63.623047"/>
      <use xlink:href="#DejaVuSans-20" x="127.246094"/>
      <use xlink:href="#DejaVuSans-2d" x="159.033203"/>
      <use xlink:href="#DejaVuSans-20" x="195.117188"/>
      <use xlink:href="#DejaVuSans-34" x="226.904297"/>
      <use xlink:href="#DejaVuSans-30" x="290.527344"/>
     </g>
    </g>
    <g id="patch_41">
     <path d="M 524.971875 111.032812 
L 544.971875 111.032812 
L 544.971875 104.032812 
L 524.971875 104.032812 
z
" style="fill: #d62728"/>
    </g>
    <g id="text_19">
     <!-- 40 - 64 -->
     <g transform="translate(552.971875 111.032812) scale(0.1 -0.1)">
      <defs>
       <path id="DejaVuSans-36" d="M 2113 2584 
Q 1688 2584 1439 2293 
Q 1191 2003 1191 1497 
Q 1191 994 1439 701 
Q 1688 409 2113 409 
Q 2538 409 2786 701 
Q 3034 994 3034 1497 
Q 3034 2003 2786 2293 
Q 2538 2584 2113 2584 
z
M 3366 4563 
L 3366 3988 
Q 3128 4100 2886 4159 
Q 2644 4219 2406 4219 
Q 1781 4219 1451 3797 
Q 1122 3375 1075 2522 
Q 1259 2794 1537 2939 
Q 1816 3084 2150 3084 
Q 2853 3084 3261 2657 
Q 3669 2231 3669 1497 
Q 3669 778 3244 343 
Q 2819 -91 2113 -91 
Q 1303 -91 875 529 
Q 447 1150 447 2328 
Q 447 3434 972 4092 
Q 1497 4750 2381 4750 
Q 2619 4750 2861 4703 
Q 3103 4656 3366 4563 
z
" transform="scale(0.015625)"/>
      </defs>
      <use xlink:href="#DejaVuSans-34"/>
      <use xlink:href="#DejaVuSans-30" x="63.623047"/>
      <use xlink:href="#DejaVuSans-20" x="127.246094"/>
      <use xlink:href="#DejaVuSans-2d" x="159.033203"/>
      <use xlink:href="#DejaVuSans-20" x="195.117188"/>
      <use xlink:href="#DejaVuSans-36" x="226.904297"/>
      <use xlink:href="#DejaVuSans-34" x="290.527344"/>
     </g>
    </g>
    <g id="patch_42">
     <path d="M 524.971875 125.710937 
L 544.971875 125.710937 
L 544.971875 118.710937 
L 524.971875 118.710937 
z
" style="fill: #9467bd"/>
    </g>
    <g id="text_20">
     <!-- 65 + -->
     <g transform="translate(552.971875 125.710937) scale(0.1 -0.1)">
      <defs>
       <path id="DejaVuSans-2b" d="M 2944 4013 
L 2944 2272 
L 4684 2272 
L 4684 1741 
L 2944 1741 
L 2944 0 
L 2419 0 
L 2419 1741 
L 678 1741 
L 678 2272 
L 2419 2272 
L 2419 4013 
L 2944 4013 
z
" transform="scale(0.015625)"/>
      </defs>
      <use xlink:href="#DejaVuSans-36"/>
      <use xlink:href="#DejaVuSans-35" x="63.623047"/>
      <use xlink:href="#DejaVuSans-20" x="127.246094"/>
      <use xlink:href="#DejaVuSans-2b" x="159.033203"/>
     </g>
    </g>
    <g id="patch_43">
     <path d="M 524.971875 140.389062 
L 544.971875 140.389062 
L 544.971875 133.389062 
L 524.971875 133.389062 
z
" style="fill: #8c564b"/>
    </g>
    <g id="text_21">
     <!-- All -->
     <g transform="translate(552.971875 140.389062) scale(0.1 -0.1)">
      <defs>
       <path id="DejaVuSans-41" d="M 2188 4044 
L 1331 1722 
L 3047 1722 
L 2188 4044 
z
M 1831 4666 
L 2547 4666 
L 4325 0 
L 3669 0 
L 3244 1197 
L 1141 1197 
L 716 0 
L 50 0 
L 1831 4666 
z
" transform="scale(0.015625)"/>
      </defs>
      <use xlink:href="#DejaVuSans-41"/>
      <use xlink:href="#DejaVuSans-6c" x="68.408203"/>
      <use xlink:href="#DejaVuSans-6c" x="96.191406"/>
     </g>
    </g>
   </g>
  </g>
  <g id="text_22">
   <!-- Liklihood Responses by Age -->
   <g transform="translate(236.742813 16.318125) scale(0.12 -0.12)">
    <defs>
     <path id="DejaVuSans-52" d="M 2841 2188 
Q 3044 2119 3236 1894 
Q 3428 1669 3622 1275 
L 4263 0 
L 3584 0 
L 2988 1197 
Q 2756 1666 2539 1819 
Q 2322 1972 1947 1972 
L 1259 1972 
L 1259 0 
L 628 0 
L 628 4666 
L 2053 4666 
Q 2853 4666 3247 4331 
Q 3641 3997 3641 3322 
Q 3641 2881 3436 2590 
Q 3231 2300 2841 2188 
z
M 1259 4147 
L 1259 2491 
L 2053 2491 
Q 2509 2491 2742 2702 
Q 2975 2913 2975 3322 
Q 2975 3731 2742 3939 
Q 2509 4147 2053 4147 
L 1259 4147 
z
" transform="scale(0.015625)"/>
     <path id="DejaVuSans-73" d="M 2834 3397 
L 2834 2853 
Q 2591 2978 2328 3040 
Q 2066 3103 1784 3103 
Q 1356 3103 1142 2972 
Q 928 2841 928 2578 
Q 928 2378 1081 2264 
Q 1234 2150 1697 2047 
L 1894 2003 
Q 2506 1872 2764 1633 
Q 3022 1394 3022 966 
Q 3022 478 2636 193 
Q 2250 -91 1575 -91 
Q 1294 -91 989 -36 
Q 684 19 347 128 
L 347 722 
Q 666 556 975 473 
Q 1284 391 1588 391 
Q 1994 391 2212 530 
Q 2431 669 2431 922 
Q 2431 1156 2273 1281 
Q 2116 1406 1581 1522 
L 1381 1569 
Q 847 1681 609 1914 
Q 372 2147 372 2553 
Q 372 3047 722 3315 
Q 1072 3584 1716 3584 
Q 2034 3584 2315 3537 
Q 2597 3491 2834 3397 
z
" transform="scale(0.015625)"/>
     <path id="DejaVuSans-70" d="M 1159 525 
L 1159 -1331 
L 581 -1331 
L 581 3500 
L 1159 3500 
L 1159 2969 
Q 1341 3281 1617 3432 
Q 1894 3584 2278 3584 
Q 2916 3584 3314 3078 
Q 3713 2572 3713 1747 
Q 3713 922 3314 415 
Q 2916 -91 2278 -91 
Q 1894 -91 1617 61 
Q 1341 213 1159 525 
z
M 3116 1747 
Q 3116 2381 2855 2742 
Q 2594 3103 2138 3103 
Q 1681 3103 1420 2742 
Q 1159 2381 1159 1747 
Q 1159 1113 1420 752 
Q 1681 391 2138 391 
Q 2594 391 2855 752 
Q 3116 1113 3116 1747 
z
" transform="scale(0.015625)"/>
     <path id="DejaVuSans-67" d="M 2906 1791 
Q 2906 2416 2648 2759 
Q 2391 3103 1925 3103 
Q 1463 3103 1205 2759 
Q 947 2416 947 1791 
Q 947 1169 1205 825 
Q 1463 481 1925 481 
Q 2391 481 2648 825 
Q 2906 1169 2906 1791 
z
M 3481 434 
Q 3481 -459 3084 -895 
Q 2688 -1331 1869 -1331 
Q 1566 -1331 1297 -1286 
Q 1028 -1241 775 -1147 
L 775 -588 
Q 1028 -725 1275 -790 
Q 1522 -856 1778 -856 
Q 2344 -856 2625 -561 
Q 2906 -266 2906 331 
L 2906 616 
Q 2728 306 2450 153 
Q 2172 0 1784 0 
Q 1141 0 747 490 
Q 353 981 353 1791 
Q 353 2603 747 3093 
Q 1141 3584 1784 3584 
Q 2172 3584 2450 3431 
Q 2728 3278 2906 2969 
L 2906 3500 
L 3481 3500 
L 3481 434 
z
" transform="scale(0.015625)"/>
    </defs>
    <use xlink:href="#DejaVuSans-4c"/>
    <use xlink:href="#DejaVuSans-69" x="55.712891"/>
    <use xlink:href="#DejaVuSans-6b" x="83.496094"/>
    <use xlink:href="#DejaVuSans-6c" x="141.40625"/>
    <use xlink:href="#DejaVuSans-69" x="169.189453"/>
    <use xlink:href="#DejaVuSans-68" x="196.972656"/>
    <use xlink:href="#DejaVuSans-6f" x="260.351562"/>
    <use xlink:href="#DejaVuSans-6f" x="321.533203"/>
    <use xlink:href="#DejaVuSans-64" x="382.714844"/>
    <use xlink:href="#DejaVuSans-20" x="446.191406"/>
    <use xlink:href="#DejaVuSans-52" x="477.978516"/>
    <use xlink:href="#DejaVuSans-65" x="542.960938"/>
    <use xlink:href="#DejaVuSans-73" x="604.484375"/>
    <use xlink:href="#DejaVuSans-70" x="656.583984"/>
    <use xlink:href="#DejaVuSans-6f" x="720.060547"/>
    <use xlink:href="#DejaVuSans-6e" x="781.242188"/>
    <use xlink:href="#DejaVuSans-73" x="844.621094"/>
    <use xlink:href="#DejaVuSans-65" x="896.720703"/>
    <use xlink:href="#DejaVuSans-73" x="958.244141"/>
    <use xlink:href="#DejaVuSans-20" x="1010.34375"/>
    <use xlink:href="#DejaVuSans-62" x="1042.130859"/>
    <use xlink:href="#DejaVuSans-79" x="1105.607422"/>
    <use xlink:href="#DejaVuSans-20" x="1164.787109"/>
    <use xlink:href="#DejaVuSans-41" x="1196.574219"/>
    <use xlink:href="#DejaVuSans-67" x="1264.982422"/>
    <use xlink:href="#DejaVuSans-65" x="1328.458984"/>
   </g>
  </g>
 </g>
 <defs>
  <clipPath id="pf4e5800e55">
   <rect x="50.14375" y="50.4" width="558" height="326.16"/>
  </clipPath>
 </defs>
</svg>
