<?xml version="1.0" encoding="utf-8" standalone="no"?>
<!DOCTYPE svg PUBLIC "-//W3C//DTD SVG 1.1//EN"
  "http://www.w3.org/Graphics/SVG/1.1/DTD/svg11.dtd">
<svg xmlns:xlink="http://www.w3.org/1999/xlink" width="608.98125pt" height="414.11625pt" viewBox="0 0 608.98125 414.11625" xmlns="http://www.w3.org/2000/svg" version="1.1">
 <metadata>
  <rdf:RDF xmlns:dc="http://purl.org/dc/elements/1.1/" xmlns:cc="http://creativecommons.org/ns#" xmlns:rdf="http://www.w3.org/1999/02/22-rdf-syntax-ns#">
   <cc:Work>
    <dc:type rdf:resource="http://purl.org/dc/dcmitype/StillImage"/>
    <dc:date>2022-10-12T16:22:37.156717</dc:date>
    <dc:format>image/svg+xml</dc:format>
    <dc:creator>
     <cc:Agent>
      <dc:title>Matplotlib v3.6.0, https://matplotlib.org/</dc:title>
     </cc:Agent>
    </dc:creator>
   </cc:Work>
  </rdf:RDF>
 </metadata>
 <defs>
  <style type="text/css">*{stroke-linejoin: round; stroke-linecap: butt}</style>
 </defs>
 <g id="figure_1">
  <g id="patch_1">
   <path d="M 0 414.11625 
L 608.98125 414.11625 
L 608.98125 0 
L 0 0 
L 0 414.11625 
z
" style="fill: none"/>
  </g>
  <g id="axes_1">
   <g id="patch_2">
    <path d="M 43.78125 376.56 
L 601.78125 376.56 
L 601.78125 50.4 
L 43.78125 50.4 
z
" style="fill: #ffffff"/>
   </g>
   <g id="matplotlib.axis_1">
    <g id="xtick_1">
     <g id="line2d_1">
      <defs>
       <path id="m07bfd61c0c" d="M 0 0 
L 0 3.5 
" style="stroke: #000000; stroke-width: 0.8"/>
      </defs>
      <g>
       <use xlink:href="#m07bfd61c0c" x="113.404937" y="376.56" style="stroke: #000000; stroke-width: 0.8"/>
      </g>
     </g>
     <g id="text_1">
      <!-- −0.1 -->
      <g transform="translate(101.263531 391.158437) scale(0.1 -0.1)">
       <defs>
        <path id="DejaVuSans-2212" d="M 678 2272 
L 4684 2272 
L 4684 1741 
L 678 1741 
L 678 2272 
z
" transform="scale(0.015625)"/>
        <path id="DejaVuSans-30" d="M 2034 4250 
Q 1547 4250 1301 3770 
Q 1056 3291 1056 2328 
Q 1056 1369 1301 889 
Q 1547 409 2034 409 
Q 2525 409 2770 889 
Q 3016 1369 3016 2328 
Q 3016 3291 2770 3770 
Q 2525 4250 2034 4250 
z
M 2034 4750 
Q 2819 4750 3233 4129 
Q 3647 3509 3647 2328 
Q 3647 1150 3233 529 
Q 2819 -91 2034 -91 
Q 1250 -91 836 529 
Q 422 1150 422 2328 
Q 422 3509 836 4129 
Q 1250 4750 2034 4750 
z
" transform="scale(0.015625)"/>
        <path id="DejaVuSans-2e" d="M 684 794 
L 1344 794 
L 1344 0 
L 684 0 
L 684 794 
z
" transform="scale(0.015625)"/>
        <path id="DejaVuSans-31" d="M 794 531 
L 1825 531 
L 1825 4091 
L 703 3866 
L 703 4441 
L 1819 4666 
L 2450 4666 
L 2450 531 
L 3481 531 
L 3481 0 
L 794 0 
L 794 531 
z
" transform="scale(0.015625)"/>
       </defs>
       <use xlink:href="#DejaVuSans-2212"/>
       <use xlink:href="#DejaVuSans-30" x="83.789062"/>
       <use xlink:href="#DejaVuSans-2e" x="147.412109"/>
       <use xlink:href="#DejaVuSans-31" x="179.199219"/>
      </g>
     </g>
    </g>
    <g id="xtick_2">
     <g id="line2d_2">
      <g>
       <use xlink:href="#m07bfd61c0c" x="185.858034" y="376.56" style="stroke: #000000; stroke-width: 0.8"/>
      </g>
     </g>
     <g id="text_2">
      <!-- 0.0 -->
      <g transform="translate(177.906471 391.158437) scale(0.1 -0.1)">
       <use xlink:href="#DejaVuSans-30"/>
       <use xlink:href="#DejaVuSans-2e" x="63.623047"/>
       <use xlink:href="#DejaVuSans-30" x="95.410156"/>
      </g>
     </g>
    </g>
    <g id="xtick_3">
     <g id="line2d_3">
      <g>
       <use xlink:href="#m07bfd61c0c" x="258.31113" y="376.56" style="stroke: #000000; stroke-width: 0.8"/>
      </g>
     </g>
     <g id="text_3">
      <!-- 0.1 -->
      <g transform="translate(250.359568 391.158437) scale(0.1 -0.1)">
       <use xlink:href="#DejaVuSans-30"/>
       <use xlink:href="#DejaVuSans-2e" x="63.623047"/>
       <use xlink:href="#DejaVuSans-31" x="95.410156"/>
      </g>
     </g>
    </g>
    <g id="xtick_4">
     <g id="line2d_4">
      <g>
       <use xlink:href="#m07bfd61c0c" x="330.764227" y="376.56" style="stroke: #000000; stroke-width: 0.8"/>
      </g>
     </g>
     <g id="text_4">
      <!-- 0.2 -->
      <g transform="translate(322.812665 391.158437) scale(0.1 -0.1)">
       <defs>
        <path id="DejaVuSans-32" d="M 1228 531 
L 3431 531 
L 3431 0 
L 469 0 
L 469 531 
Q 828 903 1448 1529 
Q 2069 2156 2228 2338 
Q 2531 2678 2651 2914 
Q 2772 3150 2772 3378 
Q 2772 3750 2511 3984 
Q 2250 4219 1831 4219 
Q 1534 4219 1204 4116 
Q 875 4013 500 3803 
L 500 4441 
Q 881 4594 1212 4672 
Q 1544 4750 1819 4750 
Q 2544 4750 2975 4387 
Q 3406 4025 3406 3419 
Q 3406 3131 3298 2873 
Q 3191 2616 2906 2266 
Q 2828 2175 2409 1742 
Q 1991 1309 1228 531 
z
" transform="scale(0.015625)"/>
       </defs>
       <use xlink:href="#DejaVuSans-30"/>
       <use xlink:href="#DejaVuSans-2e" x="63.623047"/>
       <use xlink:href="#DejaVuSans-32" x="95.410156"/>
      </g>
     </g>
    </g>
    <g id="xtick_5">
     <g id="line2d_5">
      <g>
       <use xlink:href="#m07bfd61c0c" x="403.217324" y="376.56" style="stroke: #000000; stroke-width: 0.8"/>
      </g>
     </g>
     <g id="text_5">
      <!-- 0.3 -->
      <g transform="translate(395.265761 391.158437) scale(0.1 -0.1)">
       <defs>
        <path id="DejaVuSans-33" d="M 2597 2516 
Q 3050 2419 3304 2112 
Q 3559 1806 3559 1356 
Q 3559 666 3084 287 
Q 2609 -91 1734 -91 
Q 1441 -91 1130 -33 
Q 819 25 488 141 
L 488 750 
Q 750 597 1062 519 
Q 1375 441 1716 441 
Q 2309 441 2620 675 
Q 2931 909 2931 1356 
Q 2931 1769 2642 2001 
Q 2353 2234 1838 2234 
L 1294 2234 
L 1294 2753 
L 1863 2753 
Q 2328 2753 2575 2939 
Q 2822 3125 2822 3475 
Q 2822 3834 2567 4026 
Q 2313 4219 1838 4219 
Q 1578 4219 1281 4162 
Q 984 4106 628 3988 
L 628 4550 
Q 988 4650 1302 4700 
Q 1616 4750 1894 4750 
Q 2613 4750 3031 4423 
Q 3450 4097 3450 3541 
Q 3450 3153 3228 2886 
Q 3006 2619 2597 2516 
z
" transform="scale(0.015625)"/>
       </defs>
       <use xlink:href="#DejaVuSans-30"/>
       <use xlink:href="#DejaVuSans-2e" x="63.623047"/>
       <use xlink:href="#DejaVuSans-33" x="95.410156"/>
      </g>
     </g>
    </g>
    <g id="xtick_6">
     <g id="line2d_6">
      <g>
       <use xlink:href="#m07bfd61c0c" x="475.670421" y="376.56" style="stroke: #000000; stroke-width: 0.8"/>
      </g>
     </g>
     <g id="text_6">
      <!-- 0.4 -->
      <g transform="translate(467.718858 391.158437) scale(0.1 -0.1)">
       <defs>
        <path id="DejaVuSans-34" d="M 2419 4116 
L 825 1625 
L 2419 1625 
L 2419 4116 
z
M 2253 4666 
L 3047 4666 
L 3047 1625 
L 3713 1625 
L 3713 1100 
L 3047 1100 
L 3047 0 
L 2419 0 
L 2419 1100 
L 313 1100 
L 313 1709 
L 2253 4666 
z
" transform="scale(0.015625)"/>
       </defs>
       <use xlink:href="#DejaVuSans-30"/>
       <use xlink:href="#DejaVuSans-2e" x="63.623047"/>
       <use xlink:href="#DejaVuSans-34" x="95.410156"/>
      </g>
     </g>
    </g>
    <g id="xtick_7">
     <g id="line2d_7">
      <g>
       <use xlink:href="#m07bfd61c0c" x="548.123517" y="376.56" style="stroke: #000000; stroke-width: 0.8"/>
      </g>
     </g>
     <g id="text_7">
      <!-- 0.5 -->
      <g transform="translate(540.171955 391.158437) scale(0.1 -0.1)">
       <defs>
        <path id="DejaVuSans-35" d="M 691 4666 
L 3169 4666 
L 3169 4134 
L 1269 4134 
L 1269 2991 
Q 1406 3038 1543 3061 
Q 1681 3084 1819 3084 
Q 2600 3084 3056 2656 
Q 3513 2228 3513 1497 
Q 3513 744 3044 326 
Q 2575 -91 1722 -91 
Q 1428 -91 1123 -41 
Q 819 9 494 109 
L 494 744 
Q 775 591 1075 516 
Q 1375 441 1709 441 
Q 2250 441 2565 725 
Q 2881 1009 2881 1497 
Q 2881 1984 2565 2268 
Q 2250 2553 1709 2553 
Q 1456 2553 1204 2497 
Q 953 2441 691 2322 
L 691 4666 
z
" transform="scale(0.015625)"/>
       </defs>
       <use xlink:href="#DejaVuSans-30"/>
       <use xlink:href="#DejaVuSans-2e" x="63.623047"/>
       <use xlink:href="#DejaVuSans-35" x="95.410156"/>
      </g>
     </g>
    </g>
    <g id="text_8">
     <!-- Probability -->
     <g transform="translate(296.352344 404.836562) scale(0.1 -0.1)">
      <defs>
       <path id="DejaVuSans-50" d="M 1259 4147 
L 1259 2394 
L 2053 2394 
Q 2494 2394 2734 2622 
Q 2975 2850 2975 3272 
Q 2975 3691 2734 3919 
Q 2494 4147 2053 4147 
L 1259 4147 
z
M 628 4666 
L 2053 4666 
Q 2838 4666 3239 4311 
Q 3641 3956 3641 3272 
Q 3641 2581 3239 2228 
Q 2838 1875 2053 1875 
L 1259 1875 
L 1259 0 
L 628 0 
L 628 4666 
z
" transform="scale(0.015625)"/>
       <path id="DejaVuSans-72" d="M 2631 2963 
Q 2534 3019 2420 3045 
Q 2306 3072 2169 3072 
Q 1681 3072 1420 2755 
Q 1159 2438 1159 1844 
L 1159 0 
L 581 0 
L 581 3500 
L 1159 3500 
L 1159 2956 
Q 1341 3275 1631 3429 
Q 1922 3584 2338 3584 
Q 2397 3584 2469 3576 
Q 2541 3569 2628 3553 
L 2631 2963 
z
" transform="scale(0.015625)"/>
       <path id="DejaVuSans-6f" d="M 1959 3097 
Q 1497 3097 1228 2736 
Q 959 2375 959 1747 
Q 959 1119 1226 758 
Q 1494 397 1959 397 
Q 2419 397 2687 759 
Q 2956 1122 2956 1747 
Q 2956 2369 2687 2733 
Q 2419 3097 1959 3097 
z
M 1959 3584 
Q 2709 3584 3137 3096 
Q 3566 2609 3566 1747 
Q 3566 888 3137 398 
Q 2709 -91 1959 -91 
Q 1206 -91 779 398 
Q 353 888 353 1747 
Q 353 2609 779 3096 
Q 1206 3584 1959 3584 
z
" transform="scale(0.015625)"/>
       <path id="DejaVuSans-62" d="M 3116 1747 
Q 3116 2381 2855 2742 
Q 2594 3103 2138 3103 
Q 1681 3103 1420 2742 
Q 1159 2381 1159 1747 
Q 1159 1113 1420 752 
Q 1681 391 2138 391 
Q 2594 391 2855 752 
Q 3116 1113 3116 1747 
z
M 1159 2969 
Q 1341 3281 1617 3432 
Q 1894 3584 2278 3584 
Q 2916 3584 3314 3078 
Q 3713 2572 3713 1747 
Q 3713 922 3314 415 
Q 2916 -91 2278 -91 
Q 1894 -91 1617 61 
Q 1341 213 1159 525 
L 1159 0 
L 581 0 
L 581 4863 
L 1159 4863 
L 1159 2969 
z
" transform="scale(0.015625)"/>
       <path id="DejaVuSans-61" d="M 2194 1759 
Q 1497 1759 1228 1600 
Q 959 1441 959 1056 
Q 959 750 1161 570 
Q 1363 391 1709 391 
Q 2188 391 2477 730 
Q 2766 1069 2766 1631 
L 2766 1759 
L 2194 1759 
z
M 3341 1997 
L 3341 0 
L 2766 0 
L 2766 531 
Q 2569 213 2275 61 
Q 1981 -91 1556 -91 
Q 1019 -91 701 211 
Q 384 513 384 1019 
Q 384 1609 779 1909 
Q 1175 2209 1959 2209 
L 2766 2209 
L 2766 2266 
Q 2766 2663 2505 2880 
Q 2244 3097 1772 3097 
Q 1472 3097 1187 3025 
Q 903 2953 641 2809 
L 641 3341 
Q 956 3463 1253 3523 
Q 1550 3584 1831 3584 
Q 2591 3584 2966 3190 
Q 3341 2797 3341 1997 
z
" transform="scale(0.015625)"/>
       <path id="DejaVuSans-69" d="M 603 3500 
L 1178 3500 
L 1178 0 
L 603 0 
L 603 3500 
z
M 603 4863 
L 1178 4863 
L 1178 4134 
L 603 4134 
L 603 4863 
z
" transform="scale(0.015625)"/>
       <path id="DejaVuSans-6c" d="M 603 4863 
L 1178 4863 
L 1178 0 
L 603 0 
L 603 4863 
z
" transform="scale(0.015625)"/>
       <path id="DejaVuSans-74" d="M 1172 4494 
L 1172 3500 
L 2356 3500 
L 2356 3053 
L 1172 3053 
L 1172 1153 
Q 1172 725 1289 603 
Q 1406 481 1766 481 
L 2356 481 
L 2356 0 
L 1766 0 
Q 1100 0 847 248 
Q 594 497 594 1153 
L 594 3053 
L 172 3053 
L 172 3500 
L 594 3500 
L 594 4494 
L 1172 4494 
z
" transform="scale(0.015625)"/>
       <path id="DejaVuSans-79" d="M 2059 -325 
Q 1816 -950 1584 -1140 
Q 1353 -1331 966 -1331 
L 506 -1331 
L 506 -850 
L 844 -850 
Q 1081 -850 1212 -737 
Q 1344 -625 1503 -206 
L 1606 56 
L 191 3500 
L 800 3500 
L 1894 763 
L 2988 3500 
L 3597 3500 
L 2059 -325 
z
" transform="scale(0.015625)"/>
      </defs>
      <use xlink:href="#DejaVuSans-50"/>
      <use xlink:href="#DejaVuSans-72" x="58.552734"/>
      <use xlink:href="#DejaVuSans-6f" x="97.416016"/>
      <use xlink:href="#DejaVuSans-62" x="158.597656"/>
      <use xlink:href="#DejaVuSans-61" x="222.074219"/>
      <use xlink:href="#DejaVuSans-62" x="283.353516"/>
      <use xlink:href="#DejaVuSans-69" x="346.830078"/>
      <use xlink:href="#DejaVuSans-6c" x="374.613281"/>
      <use xlink:href="#DejaVuSans-69" x="402.396484"/>
      <use xlink:href="#DejaVuSans-74" x="430.179688"/>
      <use xlink:href="#DejaVuSans-79" x="469.388672"/>
     </g>
    </g>
   </g>
   <g id="matplotlib.axis_2">
    <g id="ytick_1">
     <g id="line2d_8">
      <defs>
       <path id="mfc6ba9e94a" d="M 0 0 
L -3.5 0 
" style="stroke: #000000; stroke-width: 0.8"/>
      </defs>
      <g>
       <use xlink:href="#mfc6ba9e94a" x="43.78125" y="337.933285" style="stroke: #000000; stroke-width: 0.8"/>
      </g>
     </g>
     <g id="text_9">
      <!-- 0.5 -->
      <g transform="translate(20.878125 341.732504) scale(0.1 -0.1)">
       <use xlink:href="#DejaVuSans-30"/>
       <use xlink:href="#DejaVuSans-2e" x="63.623047"/>
       <use xlink:href="#DejaVuSans-35" x="95.410156"/>
      </g>
     </g>
    </g>
    <g id="ytick_2">
     <g id="line2d_9">
      <g>
       <use xlink:href="#mfc6ba9e94a" x="43.78125" y="297.112167" style="stroke: #000000; stroke-width: 0.8"/>
      </g>
     </g>
     <g id="text_10">
      <!-- 1.0 -->
      <g transform="translate(20.878125 300.911385) scale(0.1 -0.1)">
       <use xlink:href="#DejaVuSans-31"/>
       <use xlink:href="#DejaVuSans-2e" x="63.623047"/>
       <use xlink:href="#DejaVuSans-30" x="95.410156"/>
      </g>
     </g>
    </g>
    <g id="ytick_3">
     <g id="line2d_10">
      <g>
       <use xlink:href="#mfc6ba9e94a" x="43.78125" y="256.291048" style="stroke: #000000; stroke-width: 0.8"/>
      </g>
     </g>
     <g id="text_11">
      <!-- 1.5 -->
      <g transform="translate(20.878125 260.090267) scale(0.1 -0.1)">
       <use xlink:href="#DejaVuSans-31"/>
       <use xlink:href="#DejaVuSans-2e" x="63.623047"/>
       <use xlink:href="#DejaVuSans-35" x="95.410156"/>
      </g>
     </g>
    </g>
    <g id="ytick_4">
     <g id="line2d_11">
      <g>
       <use xlink:href="#mfc6ba9e94a" x="43.78125" y="215.469929" style="stroke: #000000; stroke-width: 0.8"/>
      </g>
     </g>
     <g id="text_12">
      <!-- 2.0 -->
      <g transform="translate(20.878125 219.269148) scale(0.1 -0.1)">
       <use xlink:href="#DejaVuSans-32"/>
       <use xlink:href="#DejaVuSans-2e" x="63.623047"/>
       <use xlink:href="#DejaVuSans-30" x="95.410156"/>
      </g>
     </g>
    </g>
    <g id="ytick_5">
     <g id="line2d_12">
      <g>
       <use xlink:href="#mfc6ba9e94a" x="43.78125" y="174.648811" style="stroke: #000000; stroke-width: 0.8"/>
      </g>
     </g>
     <g id="text_13">
      <!-- 2.5 -->
      <g transform="translate(20.878125 178.448029) scale(0.1 -0.1)">
       <use xlink:href="#DejaVuSans-32"/>
       <use xlink:href="#DejaVuSans-2e" x="63.623047"/>
       <use xlink:href="#DejaVuSans-35" x="95.410156"/>
      </g>
     </g>
    </g>
    <g id="ytick_6">
     <g id="line2d_13">
      <g>
       <use xlink:href="#mfc6ba9e94a" x="43.78125" y="133.827692" style="stroke: #000000; stroke-width: 0.8"/>
      </g>
     </g>
     <g id="text_14">
      <!-- 3.0 -->
      <g transform="translate(20.878125 137.626911) scale(0.1 -0.1)">
       <use xlink:href="#DejaVuSans-33"/>
       <use xlink:href="#DejaVuSans-2e" x="63.623047"/>
       <use xlink:href="#DejaVuSans-30" x="95.410156"/>
      </g>
     </g>
    </g>
    <g id="ytick_7">
     <g id="line2d_14">
      <g>
       <use xlink:href="#mfc6ba9e94a" x="43.78125" y="93.006573" style="stroke: #000000; stroke-width: 0.8"/>
      </g>
     </g>
     <g id="text_15">
      <!-- 3.5 -->
      <g transform="translate(20.878125 96.805792) scale(0.1 -0.1)">
       <use xlink:href="#DejaVuSans-33"/>
       <use xlink:href="#DejaVuSans-2e" x="63.623047"/>
       <use xlink:href="#DejaVuSans-35" x="95.410156"/>
      </g>
     </g>
    </g>
    <g id="ytick_8">
     <g id="line2d_15">
      <g>
       <use xlink:href="#mfc6ba9e94a" x="43.78125" y="52.185455" style="stroke: #000000; stroke-width: 0.8"/>
      </g>
     </g>
     <g id="text_16">
      <!-- 4.0 -->
      <g transform="translate(20.878125 55.984673) scale(0.1 -0.1)">
       <use xlink:href="#DejaVuSans-34"/>
       <use xlink:href="#DejaVuSans-2e" x="63.623047"/>
       <use xlink:href="#DejaVuSans-30" x="95.410156"/>
      </g>
     </g>
    </g>
    <g id="text_17">
     <!-- Density -->
     <g transform="translate(14.798438 232.488594) rotate(-90) scale(0.1 -0.1)">
      <defs>
       <path id="DejaVuSans-44" d="M 1259 4147 
L 1259 519 
L 2022 519 
Q 2988 519 3436 956 
Q 3884 1394 3884 2338 
Q 3884 3275 3436 3711 
Q 2988 4147 2022 4147 
L 1259 4147 
z
M 628 4666 
L 1925 4666 
Q 3281 4666 3915 4102 
Q 4550 3538 4550 2338 
Q 4550 1131 3912 565 
Q 3275 0 1925 0 
L 628 0 
L 628 4666 
z
" transform="scale(0.015625)"/>
       <path id="DejaVuSans-65" d="M 3597 1894 
L 3597 1613 
L 953 1613 
Q 991 1019 1311 708 
Q 1631 397 2203 397 
Q 2534 397 2845 478 
Q 3156 559 3463 722 
L 3463 178 
Q 3153 47 2828 -22 
Q 2503 -91 2169 -91 
Q 1331 -91 842 396 
Q 353 884 353 1716 
Q 353 2575 817 3079 
Q 1281 3584 2069 3584 
Q 2775 3584 3186 3129 
Q 3597 2675 3597 1894 
z
M 3022 2063 
Q 3016 2534 2758 2815 
Q 2500 3097 2075 3097 
Q 1594 3097 1305 2825 
Q 1016 2553 972 2059 
L 3022 2063 
z
" transform="scale(0.015625)"/>
       <path id="DejaVuSans-6e" d="M 3513 2113 
L 3513 0 
L 2938 0 
L 2938 2094 
Q 2938 2591 2744 2837 
Q 2550 3084 2163 3084 
Q 1697 3084 1428 2787 
Q 1159 2491 1159 1978 
L 1159 0 
L 581 0 
L 581 3500 
L 1159 3500 
L 1159 2956 
Q 1366 3272 1645 3428 
Q 1925 3584 2291 3584 
Q 2894 3584 3203 3211 
Q 3513 2838 3513 2113 
z
" transform="scale(0.015625)"/>
       <path id="DejaVuSans-73" d="M 2834 3397 
L 2834 2853 
Q 2591 2978 2328 3040 
Q 2066 3103 1784 3103 
Q 1356 3103 1142 2972 
Q 928 2841 928 2578 
Q 928 2378 1081 2264 
Q 1234 2150 1697 2047 
L 1894 2003 
Q 2506 1872 2764 1633 
Q 3022 1394 3022 966 
Q 3022 478 2636 193 
Q 2250 -91 1575 -91 
Q 1294 -91 989 -36 
Q 684 19 347 128 
L 347 722 
Q 666 556 975 473 
Q 1284 391 1588 391 
Q 1994 391 2212 530 
Q 2431 669 2431 922 
Q 2431 1156 2273 1281 
Q 2116 1406 1581 1522 
L 1381 1569 
Q 847 1681 609 1914 
Q 372 2147 372 2553 
Q 372 3047 722 3315 
Q 1072 3584 1716 3584 
Q 2034 3584 2315 3537 
Q 2597 3491 2834 3397 
z
" transform="scale(0.015625)"/>
      </defs>
      <use xlink:href="#DejaVuSans-44"/>
      <use xlink:href="#DejaVuSans-65" x="77.001953"/>
      <use xlink:href="#DejaVuSans-6e" x="138.525391"/>
      <use xlink:href="#DejaVuSans-73" x="201.904297"/>
      <use xlink:href="#DejaVuSans-69" x="254.003906"/>
      <use xlink:href="#DejaVuSans-74" x="281.787109"/>
      <use xlink:href="#DejaVuSans-79" x="320.996094"/>
     </g>
    </g>
   </g>
   <g id="line2d_16">
    <path d="M 130.690701 361.295724 
L 134.740355 358.526931 
L 138.790009 355.468365 
L 142.839663 352.117295 
L 146.889317 348.47606 
L 151.307122 344.182313 
L 155.724926 339.571025 
L 160.510881 334.248407 
L 165.664986 328.186844 
L 171.923542 320.466528 
L 180.759151 309.170228 
L 193.276264 293.185743 
L 199.90297 285.096068 
L 205.793376 278.262649 
L 211.315632 272.204142 
L 216.837887 266.481021 
L 222.728293 260.698482 
L 230.827601 253.100495 
L 241.135811 243.417189 
L 246.289917 238.265716 
L 250.707721 233.539301 
L 254.757375 228.876126 
L 258.438879 224.309586 
L 262.120382 219.390685 
L 265.801886 214.088032 
L 269.48339 208.379527 
L 273.164893 202.253629 
L 276.846397 195.710336 
L 280.896051 188.045568 
L 285.313855 179.165329 
L 290.09981 169.012937 
L 295.622066 156.766143 
L 305.562126 134.040128 
L 312.556983 118.298253 
L 317.342937 108.040657 
L 321.392591 99.874102 
L 325.074095 92.973162 
L 328.387448 87.267377 
L 331.332651 82.650399 
L 333.909704 78.995551 
L 336.486756 75.726628 
L 338.695659 73.249372 
L 340.904561 71.085658 
L 343.113463 69.247139 
L 344.954215 67.970849 
L 346.794967 66.932588 
L 348.635719 66.13671 
L 350.47647 65.586819 
L 352.317222 65.285756 
L 354.157974 65.235605 
L 355.998726 65.437689 
L 357.839478 65.892579 
L 359.68023 66.600099 
L 361.520981 67.559343 
L 363.361733 68.768688 
L 365.202485 70.225809 
L 367.411387 72.297151 
L 369.62029 74.714514 
L 371.829192 77.470184 
L 374.038094 80.555224 
L 376.615147 84.557211 
L 379.192199 88.975901 
L 382.137402 94.510815 
L 385.082605 100.532418 
L 388.395958 107.845725 
L 392.077462 116.58003 
L 395.758966 125.88244 
L 400.17677 137.685912 
L 405.330875 152.166308 
L 411.589431 170.475345 
L 424.106544 208.024717 
L 432.205852 231.910666 
L 438.096258 248.623388 
L 443.250363 262.603774 
L 448.036318 274.941312 
L 452.454122 285.712516 
L 456.503776 295.025162 
L 460.55343 303.774454 
L 464.234934 311.224836 
L 467.916438 318.188244 
L 471.597941 324.662928 
L 475.279445 330.652072 
L 478.592798 335.633446 
L 481.906152 340.23616 
L 485.219505 344.471023 
L 488.532858 348.350903 
L 491.846211 351.890419 
L 495.159565 355.105626 
L 498.472918 358.013701 
L 498.472918 358.013701 
" clip-path="url(#pa8a5bc4487)" style="fill: none; stroke: #1f77b4; stroke-width: 1.5; stroke-linecap: square"/>
   </g>
   <g id="line2d_17">
    <path d="M 103.804429 354.651355 
L 108.88785 351.348689 
L 113.971271 347.774607 
L 119.054693 343.935775 
L 124.529146 339.518763 
L 130.394632 334.483753 
L 136.651151 328.805309 
L 143.689734 322.099554 
L 152.292447 313.569184 
L 182.010909 283.779829 
L 189.049493 277.223845 
L 195.306011 271.704833 
L 201.171497 266.832141 
L 206.645951 262.56719 
L 212.120404 258.583625 
L 217.594858 254.879503 
L 223.069312 251.442789 
L 228.934798 248.032013 
L 235.191316 244.659198 
L 242.620932 240.923185 
L 256.307066 234.370379 
L 264.909779 230.107205 
L 271.166297 226.75882 
L 276.640751 223.57361 
L 281.724172 220.350372 
L 286.416561 217.113951 
L 291.10895 213.602721 
L 295.801338 209.801191 
L 300.493727 205.702985 
L 305.186116 201.311957 
L 310.269537 196.242251 
L 315.743991 190.458356 
L 322.000509 183.519608 
L 332.167352 171.843996 
L 340.770065 162.076005 
L 346.244518 156.186474 
L 350.545875 151.861504 
L 354.456199 148.233804 
L 357.97549 145.267445 
L 361.10375 142.903909 
L 364.232009 140.827648 
L 366.969236 139.268273 
L 369.706462 137.967371 
L 372.443689 136.941187 
L 374.789884 136.291591 
L 377.136078 135.863326 
L 379.482272 135.66404 
L 381.828467 135.700446 
L 384.174661 135.978273 
L 386.520856 136.502212 
L 388.86705 137.275879 
L 391.213245 138.301787 
L 393.559439 139.581315 
L 395.905633 141.1147 
L 398.251828 142.901026 
L 400.598022 144.938229 
L 403.335249 147.62771 
L 406.072476 150.647251 
L 408.809703 153.987834 
L 411.937962 158.184627 
L 415.066221 162.767123 
L 418.585513 168.355789 
L 422.104804 174.369031 
L 426.015128 181.500645 
L 430.316485 189.825435 
L 435.008874 199.386343 
L 440.87436 211.874548 
L 449.08604 229.961426 
L 463.554239 261.883604 
L 469.810757 275.114181 
L 475.285211 286.184984 
L 480.368632 295.949772 
L 485.061021 304.46663 
L 489.362378 311.821672 
L 493.663734 318.723299 
L 494.445799 319.928332 
L 494.445799 319.928332 
" clip-path="url(#pa8a5bc4487)" style="fill: none; stroke: #ff7f0e; stroke-width: 1.5; stroke-linecap: square"/>
   </g>
   <g id="line2d_18">
    <path d="M 69.144886 357.309827 
L 74.730472 354.497497 
L 80.316058 351.442239 
L 85.901643 348.142612 
L 91.487229 344.600285 
L 97.580595 340.465155 
L 103.673961 336.05872 
L 110.275107 330.998517 
L 117.384035 325.247962 
L 125.000742 318.790567 
L 134.140791 310.731107 
L 147.850865 298.296588 
L 162.5765 285.017147 
L 171.208768 277.534493 
L 178.317696 271.655479 
L 184.918842 266.486627 
L 191.012208 262.003303 
L 196.597794 258.161827 
L 202.183379 254.594441 
L 207.261184 251.598962 
L 212.33899 248.844065 
L 217.416795 246.330287 
L 222.4946 244.054181 
L 227.572405 242.008424 
L 233.15799 240.010898 
L 238.743576 238.259312 
L 244.836942 236.600961 
L 250.930308 235.171201 
L 258.039235 233.739085 
L 266.671504 232.249459 
L 279.873797 230.240324 
L 295.614993 227.794842 
L 305.262822 226.073973 
L 314.402872 224.225635 
L 324.050701 222.047324 
L 336.745214 218.925904 
L 354.009751 214.682295 
L 361.626459 213.036745 
L 368.227605 211.833075 
L 373.813191 211.029012 
L 378.890996 210.505212 
L 383.968801 210.209496 
L 388.538826 210.161722 
L 393.10885 210.340685 
L 397.678875 210.763774 
L 401.741119 211.357279 
L 405.803363 212.165155 
L 409.865607 213.195149 
L 413.927851 214.453356 
L 417.990095 215.944121 
L 422.052339 217.669982 
L 426.114583 219.63162 
L 430.176827 221.82784 
L 434.239071 224.255572 
L 438.809096 227.257301 
L 443.379121 230.536032 
L 447.949145 234.079271 
L 453.02695 238.307996 
L 458.104755 242.820443 
L 463.690341 248.079061 
L 469.783707 254.121948 
L 476.892634 261.501847 
L 485.524903 270.808725 
L 501.266098 288.203223 
L 512.94505 300.94954 
L 521.069538 309.505946 
L 528.178465 316.683827 
L 534.779612 323.034665 
L 540.872978 328.593009 
L 546.458564 333.410307 
L 552.044149 337.947473 
L 557.629735 342.19514 
L 563.21532 346.148198 
L 568.293126 349.485206 
L 573.370931 352.579507 
L 576.417614 354.321163 
L 576.417614 354.321163 
" clip-path="url(#pa8a5bc4487)" style="fill: none; stroke: #2ca02c; stroke-width: 1.5; stroke-linecap: square"/>
   </g>
   <g id="line2d_19">
    <path d="M 123.398468 361.734545 
L 127.73889 359.048316 
L 132.079312 356.075223 
L 136.419735 352.809038 
L 140.760157 349.247512 
L 145.100579 345.392769 
L 149.441001 341.251597 
L 154.176008 336.42102 
L 159.305598 330.843964 
L 164.829771 324.478226 
L 170.748529 317.304882 
L 177.851038 308.322493 
L 187.321051 295.950243 
L 208.233994 268.528469 
L 217.309423 257.055237 
L 226.779435 245.443452 
L 240.58987 228.920498 
L 253.611137 213.23939 
L 262.291981 202.428234 
L 270.183658 192.24177 
L 278.469919 181.177972 
L 290.307434 164.94926 
L 301.355782 149.923555 
L 307.669124 141.721467 
L 312.798714 135.426598 
L 317.139136 130.444641 
L 321.084974 126.248167 
L 324.636229 122.783534 
L 327.7929 119.980795 
L 330.94957 117.462502 
L 334.106241 115.250172 
L 336.868328 113.58112 
L 339.630415 112.173945 
L 342.392502 111.03983 
L 344.760005 110.292666 
L 347.127508 109.759021 
L 349.495011 109.443738 
L 351.862514 109.350925 
L 354.230017 109.483951 
L 356.59752 109.845427 
L 358.965023 110.437205 
L 361.332527 111.260378 
L 363.70003 112.315281 
L 366.067533 113.601501 
L 368.435036 115.117888 
L 371.197123 117.175377 
L 373.95921 119.539393 
L 376.721297 122.2045 
L 379.483383 125.164054 
L 382.640054 128.896898 
L 385.796725 132.990737 
L 388.953396 137.430465 
L 392.50465 142.817735 
L 396.055905 148.595561 
L 400.001743 155.439146 
L 404.342166 163.434486 
L 409.077172 172.648454 
L 414.206762 183.119378 
L 420.520103 196.552941 
L 428.806364 214.780985 
L 448.140973 257.553336 
L 454.848898 271.730408 
L 460.373072 282.918317 
L 465.502662 292.828695 
L 470.237668 301.514276 
L 474.57809 309.05202 
L 478.918513 316.160197 
L 483.258935 322.821931 
L 487.204773 328.481528 
L 491.150612 333.759531 
L 495.09645 338.656132 
L 499.042289 343.175197 
L 502.593543 346.925476 
L 506.144798 350.383156 
L 509.696052 353.557384 
L 513.247307 356.458837 
L 516.798562 359.099478 
L 517.587729 359.652158 
L 517.587729 359.652158 
" clip-path="url(#pa8a5bc4487)" style="fill: none; stroke: #d62728; stroke-width: 1.5; stroke-linecap: square"/>
   </g>
   <g id="line2d_20">
    <path d="M 170.107361 347.007368 
L 173.260649 343.010525 
L 176.413936 338.67226 
L 179.882553 333.499657 
L 183.35117 327.905518 
L 186.819787 321.893356 
L 190.603732 314.869385 
L 194.387678 307.380905 
L 198.486952 298.780321 
L 202.901555 289.009352 
L 207.946816 277.300152 
L 214.253392 262.069759 
L 234.119106 213.621445 
L 238.849037 202.881343 
L 243.26364 193.404109 
L 247.047586 185.774351 
L 250.831532 178.650008 
L 254.300148 172.592578 
L 257.768765 167.004497 
L 260.922053 162.336854 
L 264.075341 158.059204 
L 267.228629 154.161864 
L 270.381917 150.628675 
L 273.535205 147.4375 
L 276.688493 144.560894 
L 279.84178 141.966906 
L 283.310397 139.397476 
L 287.094343 136.875735 
L 291.508946 134.215827 
L 297.184864 131.077195 
L 312.635975 122.675677 
L 318.627222 119.083931 
L 325.249127 114.845227 
L 340.06958 105.22494 
L 344.168854 102.889798 
L 347.637471 101.161736 
L 350.790759 99.846176 
L 353.628718 98.912505 
L 356.151348 98.311655 
L 358.673979 97.951811 
L 360.88128 97.853031 
L 363.088582 97.971477 
L 365.295883 98.321018 
L 367.503185 98.914436 
L 369.710486 99.763293 
L 371.917788 100.877806 
L 374.125089 102.266745 
L 376.332391 103.937336 
L 378.539693 105.895189 
L 380.746994 108.144235 
L 382.954296 110.686681 
L 385.476926 113.952106 
L 387.999556 117.599154 
L 390.522187 121.6227 
L 393.360146 126.589067 
L 396.198105 132.005843 
L 399.351393 138.52806 
L 402.504681 145.547736 
L 405.973298 153.796902 
L 409.757243 163.358299 
L 414.171846 175.143374 
L 419.217107 189.262052 
L 426.15434 209.395411 
L 440.659465 251.693403 
L 446.335383 267.452489 
L 451.065315 279.956267 
L 455.479918 291.002005 
L 459.579192 300.652937 
L 463.363138 309.004514 
L 467.147083 316.7969 
L 470.6157 323.436745 
L 474.084317 329.591242 
L 477.552933 335.262625 
L 480.706221 340.00555 
L 483.859509 344.364699 
L 485.120825 346.003518 
L 485.120825 346.003518 
" clip-path="url(#pa8a5bc4487)" style="fill: none; stroke: #9467bd; stroke-width: 1.5; stroke-linecap: square"/>
   </g>
   <g id="line2d_21">
    <path d="M 102.452108 356.446563 
L 107.364312 353.377701 
L 112.276516 350.040318 
L 117.18872 346.435395 
L 122.100924 342.567887 
L 127.422478 338.092499 
L 133.153383 332.96043 
L 139.293638 327.135396 
L 145.843243 320.601364 
L 153.620899 312.50554 
L 164.264008 301.069495 
L 180.22867 283.922295 
L 188.006327 275.916133 
L 194.555932 269.491924 
L 200.286836 264.16705 
L 205.608391 259.503615 
L 210.929945 255.132123 
L 216.251499 251.064299 
L 221.163703 247.581002 
L 226.075907 244.352733 
L 231.397461 241.128012 
L 236.719016 238.161315 
L 242.44992 235.21434 
L 249.408876 231.903054 
L 259.642634 227.326809 
L 270.695093 222.33353 
L 277.244698 219.130243 
L 282.975603 216.074125 
L 288.297157 212.969393 
L 293.209361 209.841981 
L 298.121565 206.44316 
L 303.033769 202.764108 
L 307.945973 198.808033 
L 313.267527 194.228757 
L 318.998432 188.999704 
L 325.957387 182.339916 
L 344.787502 164.124817 
L 349.699706 159.774552 
L 353.793209 156.421897 
L 357.477362 153.670175 
L 360.752165 151.472338 
L 364.026968 149.539276 
L 366.89242 148.08768 
L 369.757872 146.879095 
L 372.623325 145.930645 
L 375.079427 145.336751 
L 377.535528 144.954694 
L 379.99163 144.792675 
L 382.447732 144.857947 
L 384.903834 145.156756 
L 387.359936 145.694287 
L 389.816038 146.47462 
L 392.27214 147.500695 
L 394.728242 148.774284 
L 397.184344 150.295976 
L 399.640446 152.06517 
L 402.096548 154.080073 
L 404.962 156.737309 
L 407.827453 159.718177 
L 410.692905 163.01388 
L 413.967708 167.151976 
L 417.24251 171.667998 
L 420.926663 177.172622 
L 424.610816 183.091951 
L 428.704319 190.107437 
L 433.207173 198.289799 
L 438.119377 207.677236 
L 444.259632 219.921218 
L 453.265339 238.4636 
L 466.36455 265.411964 
L 472.914155 278.36492 
L 478.64506 289.206815 
L 483.557263 298.052058 
L 488.469467 306.429398 
L 492.972321 313.663988 
L 497.065824 319.852916 
L 501.159328 325.661474 
L 505.252831 331.084366 
L 509.346334 336.120991 
L 511.393086 338.495443 
L 511.393086 338.495443 
" clip-path="url(#pa8a5bc4487)" style="fill: none; stroke: #8c564b; stroke-width: 1.5; stroke-linecap: square"/>
   </g>
   <g id="patch_3">
    <path d="M 43.78125 376.56 
L 43.78125 50.4 
" style="fill: none; stroke: #000000; stroke-width: 0.8; stroke-linejoin: miter; stroke-linecap: square"/>
   </g>
   <g id="patch_4">
    <path d="M 601.78125 376.56 
L 601.78125 50.4 
" style="fill: none; stroke: #000000; stroke-width: 0.8; stroke-linejoin: miter; stroke-linecap: square"/>
   </g>
   <g id="patch_5">
    <path d="M 43.78125 376.56 
L 601.78125 376.56 
" style="fill: none; stroke: #000000; stroke-width: 0.8; stroke-linejoin: miter; stroke-linecap: square"/>
   </g>
   <g id="patch_6">
    <path d="M 43.78125 50.4 
L 601.78125 50.4 
" style="fill: none; stroke: #000000; stroke-width: 0.8; stroke-linejoin: miter; stroke-linecap: square"/>
   </g>
   <g id="legend_1">
    <g id="patch_7">
     <path d="M 516.609375 146.46875 
L 594.78125 146.46875 
Q 596.78125 146.46875 596.78125 144.46875 
L 596.78125 57.4 
Q 596.78125 55.4 594.78125 55.4 
L 516.609375 55.4 
Q 514.609375 55.4 514.609375 57.4 
L 514.609375 144.46875 
Q 514.609375 146.46875 516.609375 146.46875 
z
" style="fill: #ffffff; opacity: 0.8; stroke: #cccccc; stroke-linejoin: miter"/>
    </g>
    <g id="line2d_22">
     <path d="M 518.609375 63.498437 
L 528.609375 63.498437 
L 538.609375 63.498437 
" style="fill: none; stroke: #1f77b4; stroke-width: 1.5; stroke-linecap: square"/>
    </g>
    <g id="text_18">
     <!-- Under 21 -->
     <g transform="translate(546.609375 66.998437) scale(0.1 -0.1)">
      <defs>
       <path id="DejaVuSans-55" d="M 556 4666 
L 1191 4666 
L 1191 1831 
Q 1191 1081 1462 751 
Q 1734 422 2344 422 
Q 2950 422 3222 751 
Q 3494 1081 3494 1831 
L 3494 4666 
L 4128 4666 
L 4128 1753 
Q 4128 841 3676 375 
Q 3225 -91 2344 -91 
Q 1459 -91 1007 375 
Q 556 841 556 1753 
L 556 4666 
z
" transform="scale(0.015625)"/>
       <path id="DejaVuSans-64" d="M 2906 2969 
L 2906 4863 
L 3481 4863 
L 3481 0 
L 2906 0 
L 2906 525 
Q 2725 213 2448 61 
Q 2172 -91 1784 -91 
Q 1150 -91 751 415 
Q 353 922 353 1747 
Q 353 2572 751 3078 
Q 1150 3584 1784 3584 
Q 2172 3584 2448 3432 
Q 2725 3281 2906 2969 
z
M 947 1747 
Q 947 1113 1208 752 
Q 1469 391 1925 391 
Q 2381 391 2643 752 
Q 2906 1113 2906 1747 
Q 2906 2381 2643 2742 
Q 2381 3103 1925 3103 
Q 1469 3103 1208 2742 
Q 947 2381 947 1747 
z
" transform="scale(0.015625)"/>
       <path id="DejaVuSans-20" transform="scale(0.015625)"/>
      </defs>
      <use xlink:href="#DejaVuSans-55"/>
      <use xlink:href="#DejaVuSans-6e" x="73.193359"/>
      <use xlink:href="#DejaVuSans-64" x="136.572266"/>
      <use xlink:href="#DejaVuSans-65" x="200.048828"/>
      <use xlink:href="#DejaVuSans-72" x="261.572266"/>
      <use xlink:href="#DejaVuSans-20" x="302.685547"/>
      <use xlink:href="#DejaVuSans-32" x="334.472656"/>
      <use xlink:href="#DejaVuSans-31" x="398.095703"/>
     </g>
    </g>
    <g id="line2d_23">
     <path d="M 518.609375 78.176562 
L 528.609375 78.176562 
L 538.609375 78.176562 
" style="fill: none; stroke: #ff7f0e; stroke-width: 1.5; stroke-linecap: square"/>
    </g>
    <g id="text_19">
     <!-- 21 - 35 -->
     <g transform="translate(546.609375 81.676562) scale(0.1 -0.1)">
      <defs>
       <path id="DejaVuSans-2d" d="M 313 2009 
L 1997 2009 
L 1997 1497 
L 313 1497 
L 313 2009 
z
" transform="scale(0.015625)"/>
      </defs>
      <use xlink:href="#DejaVuSans-32"/>
      <use xlink:href="#DejaVuSans-31" x="63.623047"/>
      <use xlink:href="#DejaVuSans-20" x="127.246094"/>
      <use xlink:href="#DejaVuSans-2d" x="159.033203"/>
      <use xlink:href="#DejaVuSans-20" x="195.117188"/>
      <use xlink:href="#DejaVuSans-33" x="226.904297"/>
      <use xlink:href="#DejaVuSans-35" x="290.527344"/>
     </g>
    </g>
    <g id="line2d_24">
     <path d="M 518.609375 92.854687 
L 528.609375 92.854687 
L 538.609375 92.854687 
" style="fill: none; stroke: #2ca02c; stroke-width: 1.5; stroke-linecap: square"/>
    </g>
    <g id="text_20">
     <!-- 35 - 40 -->
     <g transform="translate(546.609375 96.354687) scale(0.1 -0.1)">
      <use xlink:href="#DejaVuSans-33"/>
      <use xlink:href="#DejaVuSans-35" x="63.623047"/>
      <use xlink:href="#DejaVuSans-20" x="127.246094"/>
      <use xlink:href="#DejaVuSans-2d" x="159.033203"/>
      <use xlink:href="#DejaVuSans-20" x="195.117188"/>
      <use xlink:href="#DejaVuSans-34" x="226.904297"/>
      <use xlink:href="#DejaVuSans-30" x="290.527344"/>
     </g>
    </g>
    <g id="line2d_25">
     <path d="M 518.609375 107.532812 
L 528.609375 107.532812 
L 538.609375 107.532812 
" style="fill: none; stroke: #d62728; stroke-width: 1.5; stroke-linecap: square"/>
    </g>
    <g id="text_21">
     <!-- 40 - 64 -->
     <g transform="translate(546.609375 111.032812) scale(0.1 -0.1)">
      <defs>
       <path id="DejaVuSans-36" d="M 2113 2584 
Q 1688 2584 1439 2293 
Q 1191 2003 1191 1497 
Q 1191 994 1439 701 
Q 1688 409 2113 409 
Q 2538 409 2786 701 
Q 3034 994 3034 1497 
Q 3034 2003 2786 2293 
Q 2538 2584 2113 2584 
z
M 3366 4563 
L 3366 3988 
Q 3128 4100 2886 4159 
Q 2644 4219 2406 4219 
Q 1781 4219 1451 3797 
Q 1122 3375 1075 2522 
Q 1259 2794 1537 2939 
Q 1816 3084 2150 3084 
Q 2853 3084 3261 2657 
Q 3669 2231 3669 1497 
Q 3669 778 3244 343 
Q 2819 -91 2113 -91 
Q 1303 -91 875 529 
Q 447 1150 447 2328 
Q 447 3434 972 4092 
Q 1497 4750 2381 4750 
Q 2619 4750 2861 4703 
Q 3103 4656 3366 4563 
z
" transform="scale(0.015625)"/>
      </defs>
      <use xlink:href="#DejaVuSans-34"/>
      <use xlink:href="#DejaVuSans-30" x="63.623047"/>
      <use xlink:href="#DejaVuSans-20" x="127.246094"/>
      <use xlink:href="#DejaVuSans-2d" x="159.033203"/>
      <use xlink:href="#DejaVuSans-20" x="195.117188"/>
      <use xlink:href="#DejaVuSans-36" x="226.904297"/>
      <use xlink:href="#DejaVuSans-34" x="290.527344"/>
     </g>
    </g>
    <g id="line2d_26">
     <path d="M 518.609375 122.210937 
L 528.609375 122.210937 
L 538.609375 122.210937 
" style="fill: none; stroke: #9467bd; stroke-width: 1.5; stroke-linecap: square"/>
    </g>
    <g id="text_22">
     <!-- 65 + -->
     <g transform="translate(546.609375 125.710937) scale(0.1 -0.1)">
      <defs>
       <path id="DejaVuSans-2b" d="M 2944 4013 
L 2944 2272 
L 4684 2272 
L 4684 1741 
L 2944 1741 
L 2944 0 
L 2419 0 
L 2419 1741 
L 678 1741 
L 678 2272 
L 2419 2272 
L 2419 4013 
L 2944 4013 
z
" transform="scale(0.015625)"/>
      </defs>
      <use xlink:href="#DejaVuSans-36"/>
      <use xlink:href="#DejaVuSans-35" x="63.623047"/>
      <use xlink:href="#DejaVuSans-20" x="127.246094"/>
      <use xlink:href="#DejaVuSans-2b" x="159.033203"/>
     </g>
    </g>
    <g id="line2d_27">
     <path d="M 518.609375 136.889062 
L 528.609375 136.889062 
L 538.609375 136.889062 
" style="fill: none; stroke: #8c564b; stroke-width: 1.5; stroke-linecap: square"/>
    </g>
    <g id="text_23">
     <!-- All -->
     <g transform="translate(546.609375 140.389062) scale(0.1 -0.1)">
      <defs>
       <path id="DejaVuSans-41" d="M 2188 4044 
L 1331 1722 
L 3047 1722 
L 2188 4044 
z
M 1831 4666 
L 2547 4666 
L 4325 0 
L 3669 0 
L 3244 1197 
L 1141 1197 
L 716 0 
L 50 0 
L 1831 4666 
z
" transform="scale(0.015625)"/>
      </defs>
      <use xlink:href="#DejaVuSans-41"/>
      <use xlink:href="#DejaVuSans-6c" x="68.408203"/>
      <use xlink:href="#DejaVuSans-6c" x="96.191406"/>
     </g>
    </g>
   </g>
  </g>
  <g id="text_24">
   <!-- Density of Response Probability by Age -->
   <g transform="translate(196.155937 16.318125) scale(0.12 -0.12)">
    <defs>
     <path id="DejaVuSans-66" d="M 2375 4863 
L 2375 4384 
L 1825 4384 
Q 1516 4384 1395 4259 
Q 1275 4134 1275 3809 
L 1275 3500 
L 2222 3500 
L 2222 3053 
L 1275 3053 
L 1275 0 
L 697 0 
L 697 3053 
L 147 3053 
L 147 3500 
L 697 3500 
L 697 3744 
Q 697 4328 969 4595 
Q 1241 4863 1831 4863 
L 2375 4863 
z
" transform="scale(0.015625)"/>
     <path id="DejaVuSans-52" d="M 2841 2188 
Q 3044 2119 3236 1894 
Q 3428 1669 3622 1275 
L 4263 0 
L 3584 0 
L 2988 1197 
Q 2756 1666 2539 1819 
Q 2322 1972 1947 1972 
L 1259 1972 
L 1259 0 
L 628 0 
L 628 4666 
L 2053 4666 
Q 2853 4666 3247 4331 
Q 3641 3997 3641 3322 
Q 3641 2881 3436 2590 
Q 3231 2300 2841 2188 
z
M 1259 4147 
L 1259 2491 
L 2053 2491 
Q 2509 2491 2742 2702 
Q 2975 2913 2975 3322 
Q 2975 3731 2742 3939 
Q 2509 4147 2053 4147 
L 1259 4147 
z
" transform="scale(0.015625)"/>
     <path id="DejaVuSans-70" d="M 1159 525 
L 1159 -1331 
L 581 -1331 
L 581 3500 
L 1159 3500 
L 1159 2969 
Q 1341 3281 1617 3432 
Q 1894 3584 2278 3584 
Q 2916 3584 3314 3078 
Q 3713 2572 3713 1747 
Q 3713 922 3314 415 
Q 2916 -91 2278 -91 
Q 1894 -91 1617 61 
Q 1341 213 1159 525 
z
M 3116 1747 
Q 3116 2381 2855 2742 
Q 2594 3103 2138 3103 
Q 1681 3103 1420 2742 
Q 1159 2381 1159 1747 
Q 1159 1113 1420 752 
Q 1681 391 2138 391 
Q 2594 391 2855 752 
Q 3116 1113 3116 1747 
z
" transform="scale(0.015625)"/>
     <path id="DejaVuSans-67" d="M 2906 1791 
Q 2906 2416 2648 2759 
Q 2391 3103 1925 3103 
Q 1463 3103 1205 2759 
Q 947 2416 947 1791 
Q 947 1169 1205 825 
Q 1463 481 1925 481 
Q 2391 481 2648 825 
Q 2906 1169 2906 1791 
z
M 3481 434 
Q 3481 -459 3084 -895 
Q 2688 -1331 1869 -1331 
Q 1566 -1331 1297 -1286 
Q 1028 -1241 775 -1147 
L 775 -588 
Q 1028 -725 1275 -790 
Q 1522 -856 1778 -856 
Q 2344 -856 2625 -561 
Q 2906 -266 2906 331 
L 2906 616 
Q 2728 306 2450 153 
Q 2172 0 1784 0 
Q 1141 0 747 490 
Q 353 981 353 1791 
Q 353 2603 747 3093 
Q 1141 3584 1784 3584 
Q 2172 3584 2450 3431 
Q 2728 3278 2906 2969 
L 2906 3500 
L 3481 3500 
L 3481 434 
z
" transform="scale(0.015625)"/>
    </defs>
    <use xlink:href="#DejaVuSans-44"/>
    <use xlink:href="#DejaVuSans-65" x="77.001953"/>
    <use xlink:href="#DejaVuSans-6e" x="138.525391"/>
    <use xlink:href="#DejaVuSans-73" x="201.904297"/>
    <use xlink:href="#DejaVuSans-69" x="254.003906"/>
    <use xlink:href="#DejaVuSans-74" x="281.787109"/>
    <use xlink:href="#DejaVuSans-79" x="320.996094"/>
    <use xlink:href="#DejaVuSans-20" x="380.175781"/>
    <use xlink:href="#DejaVuSans-6f" x="411.962891"/>
    <use xlink:href="#DejaVuSans-66" x="473.144531"/>
    <use xlink:href="#DejaVuSans-20" x="508.349609"/>
    <use xlink:href="#DejaVuSans-52" x="540.136719"/>
    <use xlink:href="#DejaVuSans-65" x="605.119141"/>
    <use xlink:href="#DejaVuSans-73" x="666.642578"/>
    <use xlink:href="#DejaVuSans-70" x="718.742188"/>
    <use xlink:href="#DejaVuSans-6f" x="782.21875"/>
    <use xlink:href="#DejaVuSans-6e" x="843.400391"/>
    <use xlink:href="#DejaVuSans-73" x="906.779297"/>
    <use xlink:href="#DejaVuSans-65" x="958.878906"/>
    <use xlink:href="#DejaVuSans-20" x="1020.402344"/>
    <use xlink:href="#DejaVuSans-50" x="1052.189453"/>
    <use xlink:href="#DejaVuSans-72" x="1110.742188"/>
    <use xlink:href="#DejaVuSans-6f" x="1149.605469"/>
    <use xlink:href="#DejaVuSans-62" x="1210.787109"/>
    <use xlink:href="#DejaVuSans-61" x="1274.263672"/>
    <use xlink:href="#DejaVuSans-62" x="1335.542969"/>
    <use xlink:href="#DejaVuSans-69" x="1399.019531"/>
    <use xlink:href="#DejaVuSans-6c" x="1426.802734"/>
    <use xlink:href="#DejaVuSans-69" x="1454.585938"/>
    <use xlink:href="#DejaVuSans-74" x="1482.369141"/>
    <use xlink:href="#DejaVuSans-79" x="1521.578125"/>
    <use xlink:href="#DejaVuSans-20" x="1580.757812"/>
    <use xlink:href="#DejaVuSans-62" x="1612.544922"/>
    <use xlink:href="#DejaVuSans-79" x="1676.021484"/>
    <use xlink:href="#DejaVuSans-20" x="1735.201172"/>
    <use xlink:href="#DejaVuSans-41" x="1766.988281"/>
    <use xlink:href="#DejaVuSans-67" x="1835.396484"/>
    <use xlink:href="#DejaVuSans-65" x="1898.873047"/>
   </g>
  </g>
 </g>
 <defs>
  <clipPath id="pa8a5bc4487">
   <rect x="43.78125" y="50.4" width="558" height="326.16"/>
  </clipPath>
 </defs>
</svg>
