<?xml version="1.0" encoding="utf-8" standalone="no"?>
<!DOCTYPE svg PUBLIC "-//W3C//DTD SVG 1.1//EN"
  "http://www.w3.org/Graphics/SVG/1.1/DTD/svg11.dtd">
<svg xmlns:xlink="http://www.w3.org/1999/xlink" width="617.189438pt" height="357.238125pt" viewBox="0 0 617.189438 357.238125" xmlns="http://www.w3.org/2000/svg" version="1.1">
 <metadata>
  <rdf:RDF xmlns:dc="http://purl.org/dc/elements/1.1/" xmlns:cc="http://creativecommons.org/ns#" xmlns:rdf="http://www.w3.org/1999/02/22-rdf-syntax-ns#">
   <cc:Work>
    <dc:type rdf:resource="http://purl.org/dc/dcmitype/StillImage"/>
    <dc:date>2022-10-12T16:22:55.045576</dc:date>
    <dc:format>image/svg+xml</dc:format>
    <dc:creator>
     <cc:Agent>
      <dc:title>Matplotlib v3.6.0, https://matplotlib.org/</dc:title>
     </cc:Agent>
    </dc:creator>
   </cc:Work>
  </rdf:RDF>
 </metadata>
 <defs>
  <style type="text/css">*{stroke-linejoin: round; stroke-linecap: butt}</style>
 </defs>
 <g id="figure_1">
  <g id="patch_1">
   <path d="M 0 357.238125 
L 617.189438 357.238125 
L 617.189438 0 
L 0 0 
L 0 357.238125 
z
" style="fill: none"/>
  </g>
  <g id="axes_1">
   <g id="patch_2">
    <path d="M 50.14375 78.104348 
L 608.14375 78.104348 
L 608.14375 7.2 
L 50.14375 7.2 
z
" style="fill: #ffffff"/>
   </g>
   <g id="matplotlib.axis_1">
    <g id="xtick_1">
     <g id="line2d_1">
      <defs>
       <path id="ma04d8bd704" d="M 0 0 
L 0 3.5 
" style="stroke: #000000; stroke-width: 0.8"/>
      </defs>
      <g>
       <use xlink:href="#ma04d8bd704" x="117.201035" y="78.104348" style="stroke: #000000; stroke-width: 0.8"/>
      </g>
     </g>
    </g>
    <g id="xtick_2">
     <g id="line2d_2">
      <g>
       <use xlink:href="#ma04d8bd704" x="186.69045" y="78.104348" style="stroke: #000000; stroke-width: 0.8"/>
      </g>
     </g>
    </g>
    <g id="xtick_3">
     <g id="line2d_3">
      <g>
       <use xlink:href="#ma04d8bd704" x="256.179865" y="78.104348" style="stroke: #000000; stroke-width: 0.8"/>
      </g>
     </g>
    </g>
    <g id="xtick_4">
     <g id="line2d_4">
      <g>
       <use xlink:href="#ma04d8bd704" x="325.669279" y="78.104348" style="stroke: #000000; stroke-width: 0.8"/>
      </g>
     </g>
    </g>
    <g id="xtick_5">
     <g id="line2d_5">
      <g>
       <use xlink:href="#ma04d8bd704" x="395.158694" y="78.104348" style="stroke: #000000; stroke-width: 0.8"/>
      </g>
     </g>
    </g>
    <g id="xtick_6">
     <g id="line2d_6">
      <g>
       <use xlink:href="#ma04d8bd704" x="464.648109" y="78.104348" style="stroke: #000000; stroke-width: 0.8"/>
      </g>
     </g>
    </g>
    <g id="xtick_7">
     <g id="line2d_7">
      <g>
       <use xlink:href="#ma04d8bd704" x="534.137523" y="78.104348" style="stroke: #000000; stroke-width: 0.8"/>
      </g>
     </g>
    </g>
    <g id="xtick_8">
     <g id="line2d_8">
      <g>
       <use xlink:href="#ma04d8bd704" x="603.626938" y="78.104348" style="stroke: #000000; stroke-width: 0.8"/>
      </g>
     </g>
    </g>
   </g>
   <g id="matplotlib.axis_2">
    <g id="ytick_1">
     <g id="line2d_9">
      <defs>
       <path id="m35783e6e5d" d="M 0 0 
L -3.5 0 
" style="stroke: #000000; stroke-width: 0.8"/>
      </defs>
      <g>
       <use xlink:href="#m35783e6e5d" x="50.14375" y="74.881423" style="stroke: #000000; stroke-width: 0.8"/>
      </g>
     </g>
     <g id="text_1">
      <!-- 0.0 -->
      <g transform="translate(27.240625 78.680642) scale(0.1 -0.1)">
       <defs>
        <path id="DejaVuSans-30" d="M 2034 4250 
Q 1547 4250 1301 3770 
Q 1056 3291 1056 2328 
Q 1056 1369 1301 889 
Q 1547 409 2034 409 
Q 2525 409 2770 889 
Q 3016 1369 3016 2328 
Q 3016 3291 2770 3770 
Q 2525 4250 2034 4250 
z
M 2034 4750 
Q 2819 4750 3233 4129 
Q 3647 3509 3647 2328 
Q 3647 1150 3233 529 
Q 2819 -91 2034 -91 
Q 1250 -91 836 529 
Q 422 1150 422 2328 
Q 422 3509 836 4129 
Q 1250 4750 2034 4750 
z
" transform="scale(0.015625)"/>
        <path id="DejaVuSans-2e" d="M 684 794 
L 1344 794 
L 1344 0 
L 684 0 
L 684 794 
z
" transform="scale(0.015625)"/>
       </defs>
       <use xlink:href="#DejaVuSans-30"/>
       <use xlink:href="#DejaVuSans-2e" x="63.623047"/>
       <use xlink:href="#DejaVuSans-30" x="95.410156"/>
      </g>
     </g>
    </g>
    <g id="ytick_2">
     <g id="line2d_10">
      <g>
       <use xlink:href="#m35783e6e5d" x="50.14375" y="34.682738" style="stroke: #000000; stroke-width: 0.8"/>
      </g>
     </g>
     <g id="text_2">
      <!-- 0.1 -->
      <g transform="translate(27.240625 38.481957) scale(0.1 -0.1)">
       <defs>
        <path id="DejaVuSans-31" d="M 794 531 
L 1825 531 
L 1825 4091 
L 703 3866 
L 703 4441 
L 1819 4666 
L 2450 4666 
L 2450 531 
L 3481 531 
L 3481 0 
L 794 0 
L 794 531 
z
" transform="scale(0.015625)"/>
       </defs>
       <use xlink:href="#DejaVuSans-30"/>
       <use xlink:href="#DejaVuSans-2e" x="63.623047"/>
       <use xlink:href="#DejaVuSans-31" x="95.410156"/>
      </g>
     </g>
    </g>
    <g id="text_3">
     <!-- Density -->
     <g transform="translate(21.160937 61.660768) rotate(-90) scale(0.1 -0.1)">
      <defs>
       <path id="DejaVuSans-44" d="M 1259 4147 
L 1259 519 
L 2022 519 
Q 2988 519 3436 956 
Q 3884 1394 3884 2338 
Q 3884 3275 3436 3711 
Q 2988 4147 2022 4147 
L 1259 4147 
z
M 628 4666 
L 1925 4666 
Q 3281 4666 3915 4102 
Q 4550 3538 4550 2338 
Q 4550 1131 3912 565 
Q 3275 0 1925 0 
L 628 0 
L 628 4666 
z
" transform="scale(0.015625)"/>
       <path id="DejaVuSans-65" d="M 3597 1894 
L 3597 1613 
L 953 1613 
Q 991 1019 1311 708 
Q 1631 397 2203 397 
Q 2534 397 2845 478 
Q 3156 559 3463 722 
L 3463 178 
Q 3153 47 2828 -22 
Q 2503 -91 2169 -91 
Q 1331 -91 842 396 
Q 353 884 353 1716 
Q 353 2575 817 3079 
Q 1281 3584 2069 3584 
Q 2775 3584 3186 3129 
Q 3597 2675 3597 1894 
z
M 3022 2063 
Q 3016 2534 2758 2815 
Q 2500 3097 2075 3097 
Q 1594 3097 1305 2825 
Q 1016 2553 972 2059 
L 3022 2063 
z
" transform="scale(0.015625)"/>
       <path id="DejaVuSans-6e" d="M 3513 2113 
L 3513 0 
L 2938 0 
L 2938 2094 
Q 2938 2591 2744 2837 
Q 2550 3084 2163 3084 
Q 1697 3084 1428 2787 
Q 1159 2491 1159 1978 
L 1159 0 
L 581 0 
L 581 3500 
L 1159 3500 
L 1159 2956 
Q 1366 3272 1645 3428 
Q 1925 3584 2291 3584 
Q 2894 3584 3203 3211 
Q 3513 2838 3513 2113 
z
" transform="scale(0.015625)"/>
       <path id="DejaVuSans-73" d="M 2834 3397 
L 2834 2853 
Q 2591 2978 2328 3040 
Q 2066 3103 1784 3103 
Q 1356 3103 1142 2972 
Q 928 2841 928 2578 
Q 928 2378 1081 2264 
Q 1234 2150 1697 2047 
L 1894 2003 
Q 2506 1872 2764 1633 
Q 3022 1394 3022 966 
Q 3022 478 2636 193 
Q 2250 -91 1575 -91 
Q 1294 -91 989 -36 
Q 684 19 347 128 
L 347 722 
Q 666 556 975 473 
Q 1284 391 1588 391 
Q 1994 391 2212 530 
Q 2431 669 2431 922 
Q 2431 1156 2273 1281 
Q 2116 1406 1581 1522 
L 1381 1569 
Q 847 1681 609 1914 
Q 372 2147 372 2553 
Q 372 3047 722 3315 
Q 1072 3584 1716 3584 
Q 2034 3584 2315 3537 
Q 2597 3491 2834 3397 
z
" transform="scale(0.015625)"/>
       <path id="DejaVuSans-69" d="M 603 3500 
L 1178 3500 
L 1178 0 
L 603 0 
L 603 3500 
z
M 603 4863 
L 1178 4863 
L 1178 4134 
L 603 4134 
L 603 4863 
z
" transform="scale(0.015625)"/>
       <path id="DejaVuSans-74" d="M 1172 4494 
L 1172 3500 
L 2356 3500 
L 2356 3053 
L 1172 3053 
L 1172 1153 
Q 1172 725 1289 603 
Q 1406 481 1766 481 
L 2356 481 
L 2356 0 
L 1766 0 
Q 1100 0 847 248 
Q 594 497 594 1153 
L 594 3053 
L 172 3053 
L 172 3500 
L 594 3500 
L 594 4494 
L 1172 4494 
z
" transform="scale(0.015625)"/>
       <path id="DejaVuSans-79" d="M 2059 -325 
Q 1816 -950 1584 -1140 
Q 1353 -1331 966 -1331 
L 506 -1331 
L 506 -850 
L 844 -850 
Q 1081 -850 1212 -737 
Q 1344 -625 1503 -206 
L 1606 56 
L 191 3500 
L 800 3500 
L 1894 763 
L 2988 3500 
L 3597 3500 
L 2059 -325 
z
" transform="scale(0.015625)"/>
      </defs>
      <use xlink:href="#DejaVuSans-44"/>
      <use xlink:href="#DejaVuSans-65" x="77.001953"/>
      <use xlink:href="#DejaVuSans-6e" x="138.525391"/>
      <use xlink:href="#DejaVuSans-73" x="201.904297"/>
      <use xlink:href="#DejaVuSans-69" x="254.003906"/>
      <use xlink:href="#DejaVuSans-74" x="281.787109"/>
      <use xlink:href="#DejaVuSans-79" x="320.996094"/>
     </g>
    </g>
   </g>
   <g id="line2d_11">
    <path d="M 75.507386 74.881423 
L 148.961663 74.773572 
L 153.413437 74.536632 
L 156.529679 74.16822 
L 159.200743 73.625124 
L 161.426631 72.946835 
L 163.652518 72.008914 
L 165.433228 71.042515 
L 167.213937 69.869233 
L 169.439824 68.111834 
L 171.665712 66.065361 
L 175.227131 62.410347 
L 178.78855 58.810965 
L 180.56926 57.265664 
L 182.34997 56.016768 
L 183.685502 55.323847 
L 185.021035 54.869605 
L 186.356567 54.671508 
L 187.692099 54.737194 
L 189.027631 55.063955 
L 190.363164 55.638885 
L 191.698696 56.439656 
L 193.479406 57.805181 
L 195.705293 59.863667 
L 203.273309 67.286228 
L 205.054019 68.635705 
L 206.834729 69.699528 
L 208.170261 70.281917 
L 209.505793 70.659511 
L 210.841326 70.814238 
L 212.176858 70.726967 
L 213.51239 70.376839 
L 214.847922 69.741065 
L 216.183455 68.795288 
L 217.518987 67.514589 
L 218.854519 65.875144 
L 220.190052 63.856492 
L 221.525584 61.444294 
L 222.861116 58.633417 
L 224.641826 54.280049 
L 226.422536 49.293048 
L 228.648423 42.353783 
L 234.880907 22.248535 
L 236.661617 17.560257 
L 237.997149 14.695936 
L 238.887504 13.156159 
L 239.777859 11.942236 
L 240.668213 11.073943 
L 241.558568 10.565062 
L 242.448923 10.422925 
L 243.339278 10.648124 
L 244.229633 11.234414 
L 245.119988 12.168786 
L 246.010343 13.43174 
L 247.345875 15.884814 
L 248.681407 18.909725 
L 250.462117 23.60419 
L 256.694601 41.054197 
L 258.030133 44.03507 
L 259.365666 46.4801 
L 260.25602 47.770709 
L 261.146375 48.767453 
L 262.03673 49.456716 
L 262.927085 49.829902 
L 263.81744 49.883486 
L 264.707795 49.619007 
L 265.59815 49.043028 
L 266.488504 48.167047 
L 267.378859 47.007376 
L 268.714392 44.782975 
L 270.049924 42.057383 
L 271.830634 37.834216 
L 278.063118 22.193291 
L 279.39865 19.613988 
L 280.734182 17.592801 
L 281.624537 16.602509 
L 282.514892 15.923246 
L 283.405247 15.570115 
L 284.295602 15.552021 
L 285.185957 15.871527 
L 286.076311 16.524878 
L 286.966666 17.502196 
L 287.857021 18.78784 
L 289.192553 21.247403 
L 290.528086 24.263308 
L 292.308795 28.963623 
L 294.97986 36.8937 
L 298.986457 48.924343 
L 301.212344 54.855576 
L 302.993054 58.95993 
L 304.773764 62.410824 
L 306.109296 64.550652 
L 307.444828 66.305228 
L 308.78036 67.682022 
L 310.115893 68.693197 
L 311.451425 69.353183 
L 312.786957 69.676807 
L 314.12249 69.678091 
L 315.458022 69.369765 
L 316.793554 68.76349 
L 318.129087 67.87069 
L 319.464619 66.703886 
L 320.800151 65.278352 
L 322.580861 63.01026 
L 324.361571 60.382863 
L 327.032635 55.971312 
L 331.484409 48.457489 
L 333.265119 45.856371 
L 334.600651 44.208582 
L 335.936184 42.888077 
L 337.271716 41.944634 
L 338.162071 41.543752 
L 339.052426 41.333951 
L 339.942781 41.318929 
L 340.833136 41.498982 
L 341.72349 41.871 
L 342.613845 42.428561 
L 343.949378 43.59112 
L 345.28491 45.105108 
L 347.06562 47.573264 
L 349.291507 51.163337 
L 355.969168 62.392612 
L 358.195055 65.504711 
L 359.975765 67.618252 
L 361.756475 69.383748 
L 363.537185 70.813596 
L 365.317894 71.936623 
L 367.098604 72.791192 
L 368.879314 73.419068 
L 371.105201 73.945965 
L 373.331088 74.24788 
L 376.002153 74.379636 
L 378.673217 74.299717 
L 381.344282 74.012178 
L 384.015346 73.49072 
L 386.241234 72.847633 
L 388.467121 71.991058 
L 390.693008 70.91063 
L 393.364072 69.335888 
L 396.480314 67.215678 
L 401.377266 63.84255 
L 403.603153 62.590059 
L 405.383863 61.833283 
L 407.164573 61.349145 
L 408.500105 61.185469 
L 409.835637 61.200431 
L 411.17117 61.393445 
L 412.951879 61.913851 
L 414.732589 62.701511 
L 416.958476 63.982443 
L 420.074718 66.106514 
L 424.97167 69.478278 
L 427.642735 71.031089 
L 429.868622 72.092284 
L 432.094509 72.933285 
L 434.765574 73.674406 
L 437.436638 74.171808 
L 440.55288 74.524078 
L 444.559477 74.748237 
L 451.237139 74.861646 
L 473.941188 74.88142 
L 520.23964 74.881423 
L 520.23964 74.881423 
" clip-path="url(#p3c8b98d7b5)" style="fill: none; stroke: #1f77b4; stroke-width: 1.5; stroke-linecap: square"/>
   </g>
   <g id="patch_3">
    <path d="M 50.14375 78.104348 
L 50.14375 7.2 
" style="fill: none; stroke: #000000; stroke-width: 0.8; stroke-linejoin: miter; stroke-linecap: square"/>
   </g>
   <g id="patch_4">
    <path d="M 608.14375 78.104348 
L 608.14375 7.2 
" style="fill: none; stroke: #000000; stroke-width: 0.8; stroke-linejoin: miter; stroke-linecap: square"/>
   </g>
   <g id="patch_5">
    <path d="M 50.14375 78.104348 
L 608.14375 78.104348 
" style="fill: none; stroke: #000000; stroke-width: 0.8; stroke-linejoin: miter; stroke-linecap: square"/>
   </g>
   <g id="patch_6">
    <path d="M 50.14375 7.2 
L 608.14375 7.2 
" style="fill: none; stroke: #000000; stroke-width: 0.8; stroke-linejoin: miter; stroke-linecap: square"/>
   </g>
   <g id="legend_1">
    <g id="patch_7">
     <path d="M 422.65625 29.878125 
L 601.14375 29.878125 
Q 603.14375 29.878125 603.14375 27.878125 
L 603.14375 14.2 
Q 603.14375 12.2 601.14375 12.2 
L 422.65625 12.2 
Q 420.65625 12.2 420.65625 14.2 
L 420.65625 27.878125 
Q 420.65625 29.878125 422.65625 29.878125 
z
" style="fill: #ffffff; opacity: 0.8; stroke: #cccccc; stroke-linejoin: miter"/>
    </g>
    <g id="line2d_12">
     <path d="M 424.65625 20.298437 
L 434.65625 20.298437 
L 444.65625 20.298437 
" style="fill: none; stroke: #1f77b4; stroke-width: 1.5; stroke-linecap: square"/>
    </g>
    <g id="text_4">
     <!-- Min ideal reported wait times -->
     <g transform="translate(452.65625 23.798437) scale(0.1 -0.1)">
      <defs>
       <path id="DejaVuSans-4d" d="M 628 4666 
L 1569 4666 
L 2759 1491 
L 3956 4666 
L 4897 4666 
L 4897 0 
L 4281 0 
L 4281 4097 
L 3078 897 
L 2444 897 
L 1241 4097 
L 1241 0 
L 628 0 
L 628 4666 
z
" transform="scale(0.015625)"/>
       <path id="DejaVuSans-20" transform="scale(0.015625)"/>
       <path id="DejaVuSans-64" d="M 2906 2969 
L 2906 4863 
L 3481 4863 
L 3481 0 
L 2906 0 
L 2906 525 
Q 2725 213 2448 61 
Q 2172 -91 1784 -91 
Q 1150 -91 751 415 
Q 353 922 353 1747 
Q 353 2572 751 3078 
Q 1150 3584 1784 3584 
Q 2172 3584 2448 3432 
Q 2725 3281 2906 2969 
z
M 947 1747 
Q 947 1113 1208 752 
Q 1469 391 1925 391 
Q 2381 391 2643 752 
Q 2906 1113 2906 1747 
Q 2906 2381 2643 2742 
Q 2381 3103 1925 3103 
Q 1469 3103 1208 2742 
Q 947 2381 947 1747 
z
" transform="scale(0.015625)"/>
       <path id="DejaVuSans-61" d="M 2194 1759 
Q 1497 1759 1228 1600 
Q 959 1441 959 1056 
Q 959 750 1161 570 
Q 1363 391 1709 391 
Q 2188 391 2477 730 
Q 2766 1069 2766 1631 
L 2766 1759 
L 2194 1759 
z
M 3341 1997 
L 3341 0 
L 2766 0 
L 2766 531 
Q 2569 213 2275 61 
Q 1981 -91 1556 -91 
Q 1019 -91 701 211 
Q 384 513 384 1019 
Q 384 1609 779 1909 
Q 1175 2209 1959 2209 
L 2766 2209 
L 2766 2266 
Q 2766 2663 2505 2880 
Q 2244 3097 1772 3097 
Q 1472 3097 1187 3025 
Q 903 2953 641 2809 
L 641 3341 
Q 956 3463 1253 3523 
Q 1550 3584 1831 3584 
Q 2591 3584 2966 3190 
Q 3341 2797 3341 1997 
z
" transform="scale(0.015625)"/>
       <path id="DejaVuSans-6c" d="M 603 4863 
L 1178 4863 
L 1178 0 
L 603 0 
L 603 4863 
z
" transform="scale(0.015625)"/>
       <path id="DejaVuSans-72" d="M 2631 2963 
Q 2534 3019 2420 3045 
Q 2306 3072 2169 3072 
Q 1681 3072 1420 2755 
Q 1159 2438 1159 1844 
L 1159 0 
L 581 0 
L 581 3500 
L 1159 3500 
L 1159 2956 
Q 1341 3275 1631 3429 
Q 1922 3584 2338 3584 
Q 2397 3584 2469 3576 
Q 2541 3569 2628 3553 
L 2631 2963 
z
" transform="scale(0.015625)"/>
       <path id="DejaVuSans-70" d="M 1159 525 
L 1159 -1331 
L 581 -1331 
L 581 3500 
L 1159 3500 
L 1159 2969 
Q 1341 3281 1617 3432 
Q 1894 3584 2278 3584 
Q 2916 3584 3314 3078 
Q 3713 2572 3713 1747 
Q 3713 922 3314 415 
Q 2916 -91 2278 -91 
Q 1894 -91 1617 61 
Q 1341 213 1159 525 
z
M 3116 1747 
Q 3116 2381 2855 2742 
Q 2594 3103 2138 3103 
Q 1681 3103 1420 2742 
Q 1159 2381 1159 1747 
Q 1159 1113 1420 752 
Q 1681 391 2138 391 
Q 2594 391 2855 752 
Q 3116 1113 3116 1747 
z
" transform="scale(0.015625)"/>
       <path id="DejaVuSans-6f" d="M 1959 3097 
Q 1497 3097 1228 2736 
Q 959 2375 959 1747 
Q 959 1119 1226 758 
Q 1494 397 1959 397 
Q 2419 397 2687 759 
Q 2956 1122 2956 1747 
Q 2956 2369 2687 2733 
Q 2419 3097 1959 3097 
z
M 1959 3584 
Q 2709 3584 3137 3096 
Q 3566 2609 3566 1747 
Q 3566 888 3137 398 
Q 2709 -91 1959 -91 
Q 1206 -91 779 398 
Q 353 888 353 1747 
Q 353 2609 779 3096 
Q 1206 3584 1959 3584 
z
" transform="scale(0.015625)"/>
       <path id="DejaVuSans-77" d="M 269 3500 
L 844 3500 
L 1563 769 
L 2278 3500 
L 2956 3500 
L 3675 769 
L 4391 3500 
L 4966 3500 
L 4050 0 
L 3372 0 
L 2619 2869 
L 1863 0 
L 1184 0 
L 269 3500 
z
" transform="scale(0.015625)"/>
       <path id="DejaVuSans-6d" d="M 3328 2828 
Q 3544 3216 3844 3400 
Q 4144 3584 4550 3584 
Q 5097 3584 5394 3201 
Q 5691 2819 5691 2113 
L 5691 0 
L 5113 0 
L 5113 2094 
Q 5113 2597 4934 2840 
Q 4756 3084 4391 3084 
Q 3944 3084 3684 2787 
Q 3425 2491 3425 1978 
L 3425 0 
L 2847 0 
L 2847 2094 
Q 2847 2600 2669 2842 
Q 2491 3084 2119 3084 
Q 1678 3084 1418 2786 
Q 1159 2488 1159 1978 
L 1159 0 
L 581 0 
L 581 3500 
L 1159 3500 
L 1159 2956 
Q 1356 3278 1631 3431 
Q 1906 3584 2284 3584 
Q 2666 3584 2933 3390 
Q 3200 3197 3328 2828 
z
" transform="scale(0.015625)"/>
      </defs>
      <use xlink:href="#DejaVuSans-4d"/>
      <use xlink:href="#DejaVuSans-69" x="86.279297"/>
      <use xlink:href="#DejaVuSans-6e" x="114.0625"/>
      <use xlink:href="#DejaVuSans-20" x="177.441406"/>
      <use xlink:href="#DejaVuSans-69" x="209.228516"/>
      <use xlink:href="#DejaVuSans-64" x="237.011719"/>
      <use xlink:href="#DejaVuSans-65" x="300.488281"/>
      <use xlink:href="#DejaVuSans-61" x="362.011719"/>
      <use xlink:href="#DejaVuSans-6c" x="423.291016"/>
      <use xlink:href="#DejaVuSans-20" x="451.074219"/>
      <use xlink:href="#DejaVuSans-72" x="482.861328"/>
      <use xlink:href="#DejaVuSans-65" x="521.724609"/>
      <use xlink:href="#DejaVuSans-70" x="583.248047"/>
      <use xlink:href="#DejaVuSans-6f" x="646.724609"/>
      <use xlink:href="#DejaVuSans-72" x="707.90625"/>
      <use xlink:href="#DejaVuSans-74" x="749.019531"/>
      <use xlink:href="#DejaVuSans-65" x="788.228516"/>
      <use xlink:href="#DejaVuSans-64" x="849.751953"/>
      <use xlink:href="#DejaVuSans-20" x="913.228516"/>
      <use xlink:href="#DejaVuSans-77" x="945.015625"/>
      <use xlink:href="#DejaVuSans-61" x="1026.802734"/>
      <use xlink:href="#DejaVuSans-69" x="1088.082031"/>
      <use xlink:href="#DejaVuSans-74" x="1115.865234"/>
      <use xlink:href="#DejaVuSans-20" x="1155.074219"/>
      <use xlink:href="#DejaVuSans-74" x="1186.861328"/>
      <use xlink:href="#DejaVuSans-69" x="1226.070312"/>
      <use xlink:href="#DejaVuSans-6d" x="1253.853516"/>
      <use xlink:href="#DejaVuSans-65" x="1351.265625"/>
      <use xlink:href="#DejaVuSans-73" x="1412.789062"/>
     </g>
    </g>
   </g>
  </g>
  <g id="axes_2">
   <g id="patch_8">
    <path d="M 50.14375 163.189565 
L 608.14375 163.189565 
L 608.14375 92.285217 
L 50.14375 92.285217 
z
" style="fill: #ffffff"/>
   </g>
   <g id="matplotlib.axis_3">
    <g id="xtick_9">
     <g id="line2d_13">
      <g>
       <use xlink:href="#ma04d8bd704" x="117.201035" y="163.189565" style="stroke: #000000; stroke-width: 0.8"/>
      </g>
     </g>
    </g>
    <g id="xtick_10">
     <g id="line2d_14">
      <g>
       <use xlink:href="#ma04d8bd704" x="186.69045" y="163.189565" style="stroke: #000000; stroke-width: 0.8"/>
      </g>
     </g>
    </g>
    <g id="xtick_11">
     <g id="line2d_15">
      <g>
       <use xlink:href="#ma04d8bd704" x="256.179865" y="163.189565" style="stroke: #000000; stroke-width: 0.8"/>
      </g>
     </g>
    </g>
    <g id="xtick_12">
     <g id="line2d_16">
      <g>
       <use xlink:href="#ma04d8bd704" x="325.669279" y="163.189565" style="stroke: #000000; stroke-width: 0.8"/>
      </g>
     </g>
    </g>
    <g id="xtick_13">
     <g id="line2d_17">
      <g>
       <use xlink:href="#ma04d8bd704" x="395.158694" y="163.189565" style="stroke: #000000; stroke-width: 0.8"/>
      </g>
     </g>
    </g>
    <g id="xtick_14">
     <g id="line2d_18">
      <g>
       <use xlink:href="#ma04d8bd704" x="464.648109" y="163.189565" style="stroke: #000000; stroke-width: 0.8"/>
      </g>
     </g>
    </g>
    <g id="xtick_15">
     <g id="line2d_19">
      <g>
       <use xlink:href="#ma04d8bd704" x="534.137523" y="163.189565" style="stroke: #000000; stroke-width: 0.8"/>
      </g>
     </g>
    </g>
    <g id="xtick_16">
     <g id="line2d_20">
      <g>
       <use xlink:href="#ma04d8bd704" x="603.626938" y="163.189565" style="stroke: #000000; stroke-width: 0.8"/>
      </g>
     </g>
    </g>
   </g>
   <g id="matplotlib.axis_4">
    <g id="ytick_3">
     <g id="line2d_21">
      <g>
       <use xlink:href="#m35783e6e5d" x="50.14375" y="159.96664" style="stroke: #000000; stroke-width: 0.8"/>
      </g>
     </g>
     <g id="text_5">
      <!-- 0.00 -->
      <g transform="translate(20.878125 163.765859) scale(0.1 -0.1)">
       <use xlink:href="#DejaVuSans-30"/>
       <use xlink:href="#DejaVuSans-2e" x="63.623047"/>
       <use xlink:href="#DejaVuSans-30" x="95.410156"/>
       <use xlink:href="#DejaVuSans-30" x="159.033203"/>
      </g>
     </g>
    </g>
    <g id="ytick_4">
     <g id="line2d_22">
      <g>
       <use xlink:href="#m35783e6e5d" x="50.14375" y="132.88444" style="stroke: #000000; stroke-width: 0.8"/>
      </g>
     </g>
     <g id="text_6">
      <!-- 0.05 -->
      <g transform="translate(20.878125 136.683659) scale(0.1 -0.1)">
       <defs>
        <path id="DejaVuSans-35" d="M 691 4666 
L 3169 4666 
L 3169 4134 
L 1269 4134 
L 1269 2991 
Q 1406 3038 1543 3061 
Q 1681 3084 1819 3084 
Q 2600 3084 3056 2656 
Q 3513 2228 3513 1497 
Q 3513 744 3044 326 
Q 2575 -91 1722 -91 
Q 1428 -91 1123 -41 
Q 819 9 494 109 
L 494 744 
Q 775 591 1075 516 
Q 1375 441 1709 441 
Q 2250 441 2565 725 
Q 2881 1009 2881 1497 
Q 2881 1984 2565 2268 
Q 2250 2553 1709 2553 
Q 1456 2553 1204 2497 
Q 953 2441 691 2322 
L 691 4666 
z
" transform="scale(0.015625)"/>
       </defs>
       <use xlink:href="#DejaVuSans-30"/>
       <use xlink:href="#DejaVuSans-2e" x="63.623047"/>
       <use xlink:href="#DejaVuSans-30" x="95.410156"/>
       <use xlink:href="#DejaVuSans-35" x="159.033203"/>
      </g>
     </g>
    </g>
    <g id="ytick_5">
     <g id="line2d_23">
      <g>
       <use xlink:href="#m35783e6e5d" x="50.14375" y="105.80224" style="stroke: #000000; stroke-width: 0.8"/>
      </g>
     </g>
     <g id="text_7">
      <!-- 0.10 -->
      <g transform="translate(20.878125 109.601458) scale(0.1 -0.1)">
       <use xlink:href="#DejaVuSans-30"/>
       <use xlink:href="#DejaVuSans-2e" x="63.623047"/>
       <use xlink:href="#DejaVuSans-31" x="95.410156"/>
       <use xlink:href="#DejaVuSans-30" x="159.033203"/>
      </g>
     </g>
    </g>
    <g id="text_8">
     <!-- Density -->
     <g transform="translate(14.798437 146.745985) rotate(-90) scale(0.1 -0.1)">
      <use xlink:href="#DejaVuSans-44"/>
      <use xlink:href="#DejaVuSans-65" x="77.001953"/>
      <use xlink:href="#DejaVuSans-6e" x="138.525391"/>
      <use xlink:href="#DejaVuSans-73" x="201.904297"/>
      <use xlink:href="#DejaVuSans-69" x="254.003906"/>
      <use xlink:href="#DejaVuSans-74" x="281.787109"/>
      <use xlink:href="#DejaVuSans-79" x="320.996094"/>
     </g>
    </g>
   </g>
   <g id="line2d_24">
    <path d="M 75.507386 159.96664 
L 143.174356 159.858196 
L 148.516485 159.602459 
L 152.077905 159.218762 
L 154.748969 158.741611 
L 157.420034 158.037964 
L 159.645921 157.235279 
L 161.871808 156.203478 
L 164.097695 154.922577 
L 166.323582 153.389124 
L 168.994647 151.244343 
L 172.556066 148.018569 
L 177.453018 143.549888 
L 179.678905 141.815489 
L 181.459615 140.682277 
L 183.240325 139.835192 
L 184.575857 139.413639 
L 185.911389 139.189035 
L 187.246922 139.167456 
L 188.582454 139.348781 
L 189.917986 139.726604 
L 191.698696 140.513611 
L 193.479406 141.582184 
L 195.705293 143.221816 
L 199.266712 146.210144 
L 202.382954 148.75741 
L 204.608841 150.291859 
L 206.389551 151.238682 
L 207.725084 151.741218 
L 209.060616 152.037091 
L 210.396148 152.102508 
L 211.73168 151.915703 
L 213.067213 151.45716 
L 214.402745 150.709993 
L 215.738277 149.660501 
L 217.07381 148.298915 
L 218.409342 146.620311 
L 219.744874 144.625639 
L 221.525584 141.489227 
L 223.306294 137.847224 
L 225.532181 132.693487 
L 228.648423 124.741953 
L 232.65502 114.460217 
L 234.880907 109.411888 
L 236.661617 106.022469 
L 237.997149 103.963722 
L 239.332681 102.378967 
L 240.223036 101.605366 
L 241.113391 101.067074 
L 242.003746 100.767834 
L 242.894101 100.707684 
L 243.784455 100.882883 
L 244.67481 101.285894 
L 245.565165 101.905467 
L 246.900697 103.207533 
L 248.23623 104.89889 
L 250.01694 107.62238 
L 252.688004 112.26217 
L 255.359069 116.847972 
L 257.139778 119.482313 
L 258.475311 121.086974 
L 259.810843 122.293017 
L 260.701198 122.847418 
L 261.591553 123.187446 
L 262.481908 123.304723 
L 263.372262 123.194772 
L 264.262617 122.857103 
L 265.152972 122.295238 
L 266.043327 121.516672 
L 267.378859 119.968388 
L 268.714392 118.012719 
L 270.495101 114.895614 
L 272.720989 110.476251 
L 276.282408 103.317447 
L 278.063118 100.233009 
L 279.39865 98.32815 
L 280.734182 96.865341 
L 281.624537 96.169063 
L 282.514892 95.714167 
L 283.405247 95.511998 
L 284.295602 95.569906 
L 285.185957 95.891161 
L 286.076311 96.474963 
L 286.966666 97.316521 
L 287.857021 98.407223 
L 289.192553 100.482845 
L 290.528086 103.036245 
L 292.308795 107.064377 
L 294.534683 112.831573 
L 302.102699 133.340127 
L 303.883409 137.339932 
L 305.664118 140.749181 
L 306.999651 142.870785 
L 308.335183 144.593706 
L 309.670715 145.903743 
L 310.56107 146.543989 
L 311.451425 146.997016 
L 312.34178 147.263531 
L 313.232135 147.345341 
L 314.12249 147.245309 
L 315.012844 146.967315 
L 315.903199 146.516258 
L 317.238732 145.528409 
L 318.574264 144.189147 
L 319.909796 142.528457 
L 321.690506 139.877039 
L 323.471216 136.820448 
L 326.14228 131.745305 
L 330.594055 123.198546 
L 332.374764 120.210151 
L 334.155474 117.69754 
L 335.491006 116.204885 
L 336.826539 115.098828 
L 337.716894 114.593489 
L 338.607248 114.282342 
L 339.497603 114.169826 
L 340.387958 114.257706 
L 341.278313 114.545051 
L 342.168668 115.028263 
L 343.059023 115.701169 
L 344.394555 117.046757 
L 345.730087 118.761005 
L 347.510797 121.53659 
L 349.291507 124.749999 
L 351.962571 130.074764 
L 357.3047 140.829022 
L 359.530588 144.784049 
L 361.311297 147.582014 
L 363.092007 150.01654 
L 364.872717 152.074461 
L 366.653427 153.758687 
L 368.434136 155.08315 
L 370.214846 156.067737 
L 371.995556 156.733693 
L 373.776265 157.099881 
L 375.556975 157.180171 
L 377.337685 156.982082 
L 379.118395 156.506741 
L 380.899104 155.75009 
L 382.679814 154.705229 
L 384.460524 153.36568 
L 386.241234 151.729275 
L 388.021943 149.802293 
L 390.24783 147.014855 
L 392.918895 143.214438 
L 401.377266 130.690344 
L 403.157976 128.658549 
L 404.493508 127.420659 
L 405.829041 126.467097 
L 407.164573 125.825299 
L 408.500105 125.514032 
L 409.39046 125.495098 
L 410.280815 125.62761 
L 411.616347 126.105995 
L 412.951879 126.906715 
L 414.287412 128.006556 
L 415.622944 129.374254 
L 417.403654 131.548386 
L 419.629541 134.6838 
L 424.081315 141.540087 
L 427.197557 146.135919 
L 429.423444 149.064548 
L 431.649332 151.606209 
L 433.430041 153.338336 
L 435.210751 154.803302 
L 436.991461 156.014675 
L 438.77217 156.994631 
L 440.998058 157.936179 
L 443.223945 158.617078 
L 445.895009 159.169487 
L 449.011251 159.556398 
L 453.017848 159.805314 
L 459.250332 159.934999 
L 476.167075 159.966512 
L 520.23964 159.96664 
L 520.23964 159.96664 
" clip-path="url(#pefdcb2dc6d)" style="fill: none; stroke: #ff7f0e; stroke-width: 1.5; stroke-linecap: square"/>
   </g>
   <g id="patch_9">
    <path d="M 50.14375 163.189565 
L 50.14375 92.285217 
" style="fill: none; stroke: #000000; stroke-width: 0.8; stroke-linejoin: miter; stroke-linecap: square"/>
   </g>
   <g id="patch_10">
    <path d="M 608.14375 163.189565 
L 608.14375 92.285217 
" style="fill: none; stroke: #000000; stroke-width: 0.8; stroke-linejoin: miter; stroke-linecap: square"/>
   </g>
   <g id="patch_11">
    <path d="M 50.14375 163.189565 
L 608.14375 163.189565 
" style="fill: none; stroke: #000000; stroke-width: 0.8; stroke-linejoin: miter; stroke-linecap: square"/>
   </g>
   <g id="patch_12">
    <path d="M 50.14375 92.285217 
L 608.14375 92.285217 
" style="fill: none; stroke: #000000; stroke-width: 0.8; stroke-linejoin: miter; stroke-linecap: square"/>
   </g>
   <g id="legend_2">
    <g id="patch_13">
     <path d="M 416.051562 114.963342 
L 601.14375 114.963342 
Q 603.14375 114.963342 603.14375 112.963342 
L 603.14375 99.285217 
Q 603.14375 97.285217 601.14375 97.285217 
L 416.051562 97.285217 
Q 414.051562 97.285217 414.051562 99.285217 
L 414.051562 112.963342 
Q 414.051562 114.963342 416.051562 114.963342 
z
" style="fill: #ffffff; opacity: 0.8; stroke: #cccccc; stroke-linejoin: miter"/>
    </g>
    <g id="line2d_25">
     <path d="M 418.051562 105.383655 
L 428.051562 105.383655 
L 438.051562 105.383655 
" style="fill: none; stroke: #ff7f0e; stroke-width: 1.5; stroke-linecap: square"/>
    </g>
    <g id="text_9">
     <!-- Min actual reported wait times -->
     <g transform="translate(446.051562 108.883655) scale(0.1 -0.1)">
      <defs>
       <path id="DejaVuSans-63" d="M 3122 3366 
L 3122 2828 
Q 2878 2963 2633 3030 
Q 2388 3097 2138 3097 
Q 1578 3097 1268 2742 
Q 959 2388 959 1747 
Q 959 1106 1268 751 
Q 1578 397 2138 397 
Q 2388 397 2633 464 
Q 2878 531 3122 666 
L 3122 134 
Q 2881 22 2623 -34 
Q 2366 -91 2075 -91 
Q 1284 -91 818 406 
Q 353 903 353 1747 
Q 353 2603 823 3093 
Q 1294 3584 2113 3584 
Q 2378 3584 2631 3529 
Q 2884 3475 3122 3366 
z
" transform="scale(0.015625)"/>
       <path id="DejaVuSans-75" d="M 544 1381 
L 544 3500 
L 1119 3500 
L 1119 1403 
Q 1119 906 1312 657 
Q 1506 409 1894 409 
Q 2359 409 2629 706 
Q 2900 1003 2900 1516 
L 2900 3500 
L 3475 3500 
L 3475 0 
L 2900 0 
L 2900 538 
Q 2691 219 2414 64 
Q 2138 -91 1772 -91 
Q 1169 -91 856 284 
Q 544 659 544 1381 
z
M 1991 3584 
L 1991 3584 
z
" transform="scale(0.015625)"/>
      </defs>
      <use xlink:href="#DejaVuSans-4d"/>
      <use xlink:href="#DejaVuSans-69" x="86.279297"/>
      <use xlink:href="#DejaVuSans-6e" x="114.0625"/>
      <use xlink:href="#DejaVuSans-20" x="177.441406"/>
      <use xlink:href="#DejaVuSans-61" x="209.228516"/>
      <use xlink:href="#DejaVuSans-63" x="270.507812"/>
      <use xlink:href="#DejaVuSans-74" x="325.488281"/>
      <use xlink:href="#DejaVuSans-75" x="364.697266"/>
      <use xlink:href="#DejaVuSans-61" x="428.076172"/>
      <use xlink:href="#DejaVuSans-6c" x="489.355469"/>
      <use xlink:href="#DejaVuSans-20" x="517.138672"/>
      <use xlink:href="#DejaVuSans-72" x="548.925781"/>
      <use xlink:href="#DejaVuSans-65" x="587.789062"/>
      <use xlink:href="#DejaVuSans-70" x="649.3125"/>
      <use xlink:href="#DejaVuSans-6f" x="712.789062"/>
      <use xlink:href="#DejaVuSans-72" x="773.970703"/>
      <use xlink:href="#DejaVuSans-74" x="815.083984"/>
      <use xlink:href="#DejaVuSans-65" x="854.292969"/>
      <use xlink:href="#DejaVuSans-64" x="915.816406"/>
      <use xlink:href="#DejaVuSans-20" x="979.292969"/>
      <use xlink:href="#DejaVuSans-77" x="1011.080078"/>
      <use xlink:href="#DejaVuSans-61" x="1092.867188"/>
      <use xlink:href="#DejaVuSans-69" x="1154.146484"/>
      <use xlink:href="#DejaVuSans-74" x="1181.929688"/>
      <use xlink:href="#DejaVuSans-20" x="1221.138672"/>
      <use xlink:href="#DejaVuSans-74" x="1252.925781"/>
      <use xlink:href="#DejaVuSans-69" x="1292.134766"/>
      <use xlink:href="#DejaVuSans-6d" x="1319.917969"/>
      <use xlink:href="#DejaVuSans-65" x="1417.330078"/>
      <use xlink:href="#DejaVuSans-73" x="1478.853516"/>
     </g>
    </g>
   </g>
  </g>
  <g id="axes_3">
   <g id="patch_14">
    <path d="M 50.14375 248.274783 
L 608.14375 248.274783 
L 608.14375 177.370435 
L 50.14375 177.370435 
z
" style="fill: #ffffff"/>
   </g>
   <g id="matplotlib.axis_5">
    <g id="xtick_17">
     <g id="line2d_26">
      <g>
       <use xlink:href="#ma04d8bd704" x="117.201035" y="248.274783" style="stroke: #000000; stroke-width: 0.8"/>
      </g>
     </g>
    </g>
    <g id="xtick_18">
     <g id="line2d_27">
      <g>
       <use xlink:href="#ma04d8bd704" x="186.69045" y="248.274783" style="stroke: #000000; stroke-width: 0.8"/>
      </g>
     </g>
    </g>
    <g id="xtick_19">
     <g id="line2d_28">
      <g>
       <use xlink:href="#ma04d8bd704" x="256.179865" y="248.274783" style="stroke: #000000; stroke-width: 0.8"/>
      </g>
     </g>
    </g>
    <g id="xtick_20">
     <g id="line2d_29">
      <g>
       <use xlink:href="#ma04d8bd704" x="325.669279" y="248.274783" style="stroke: #000000; stroke-width: 0.8"/>
      </g>
     </g>
    </g>
    <g id="xtick_21">
     <g id="line2d_30">
      <g>
       <use xlink:href="#ma04d8bd704" x="395.158694" y="248.274783" style="stroke: #000000; stroke-width: 0.8"/>
      </g>
     </g>
    </g>
    <g id="xtick_22">
     <g id="line2d_31">
      <g>
       <use xlink:href="#ma04d8bd704" x="464.648109" y="248.274783" style="stroke: #000000; stroke-width: 0.8"/>
      </g>
     </g>
    </g>
    <g id="xtick_23">
     <g id="line2d_32">
      <g>
       <use xlink:href="#ma04d8bd704" x="534.137523" y="248.274783" style="stroke: #000000; stroke-width: 0.8"/>
      </g>
     </g>
    </g>
    <g id="xtick_24">
     <g id="line2d_33">
      <g>
       <use xlink:href="#ma04d8bd704" x="603.626938" y="248.274783" style="stroke: #000000; stroke-width: 0.8"/>
      </g>
     </g>
    </g>
   </g>
   <g id="matplotlib.axis_6">
    <g id="ytick_6">
     <g id="line2d_34">
      <g>
       <use xlink:href="#m35783e6e5d" x="50.14375" y="245.051858" style="stroke: #000000; stroke-width: 0.8"/>
      </g>
     </g>
     <g id="text_10">
      <!-- 0.0 -->
      <g transform="translate(27.240625 248.851076) scale(0.1 -0.1)">
       <use xlink:href="#DejaVuSans-30"/>
       <use xlink:href="#DejaVuSans-2e" x="63.623047"/>
       <use xlink:href="#DejaVuSans-30" x="95.410156"/>
      </g>
     </g>
    </g>
    <g id="ytick_7">
     <g id="line2d_35">
      <g>
       <use xlink:href="#m35783e6e5d" x="50.14375" y="199.439356" style="stroke: #000000; stroke-width: 0.8"/>
      </g>
     </g>
     <g id="text_11">
      <!-- 0.1 -->
      <g transform="translate(27.240625 203.238575) scale(0.1 -0.1)">
       <use xlink:href="#DejaVuSans-30"/>
       <use xlink:href="#DejaVuSans-2e" x="63.623047"/>
       <use xlink:href="#DejaVuSans-31" x="95.410156"/>
      </g>
     </g>
    </g>
    <g id="text_12">
     <!-- Density -->
     <g transform="translate(21.160937 231.831202) rotate(-90) scale(0.1 -0.1)">
      <use xlink:href="#DejaVuSans-44"/>
      <use xlink:href="#DejaVuSans-65" x="77.001953"/>
      <use xlink:href="#DejaVuSans-6e" x="138.525391"/>
      <use xlink:href="#DejaVuSans-73" x="201.904297"/>
      <use xlink:href="#DejaVuSans-69" x="254.003906"/>
      <use xlink:href="#DejaVuSans-74" x="281.787109"/>
      <use xlink:href="#DejaVuSans-79" x="320.996094"/>
     </g>
    </g>
   </g>
   <g id="line2d_36">
    <path d="M 110.252094 245.051858 
L 184.986255 244.951235 
L 190.189266 244.71992 
L 193.973274 244.333196 
L 196.811281 243.835169 
L 199.176286 243.229211 
L 201.541291 242.405978 
L 203.906296 241.329787 
L 206.271301 239.977853 
L 208.636306 238.348745 
L 211.474312 236.06927 
L 215.25832 232.6793 
L 219.51533 228.922883 
L 221.880335 227.147429 
L 223.772339 226.001731 
L 225.664343 225.154803 
L 227.083346 224.733096 
L 228.502349 224.496906 
L 229.921352 224.438099 
L 231.813356 224.602611 
L 234.178361 225.093567 
L 238.908371 226.200236 
L 240.327374 226.315727 
L 241.746378 226.222814 
L 243.165381 225.863894 
L 244.584384 225.187669 
L 246.003387 224.151974 
L 247.42239 222.726443 
L 248.841393 220.894902 
L 250.260396 218.657345 
L 251.679399 216.031365 
L 253.571403 211.990599 
L 255.936408 206.272667 
L 262.085421 190.808838 
L 263.977426 186.869908 
L 265.396429 184.441534 
L 266.815432 182.557771 
L 267.761434 181.636819 
L 268.707436 180.999855 
L 269.653438 180.655066 
L 270.59944 180.60537 
L 271.545442 180.848276 
L 272.491444 181.375871 
L 273.437446 182.174929 
L 274.383448 183.227153 
L 275.802451 185.228644 
L 277.221454 187.651906 
L 279.113458 191.343328 
L 284.316469 201.871809 
L 285.735472 204.253411 
L 287.154476 206.220566 
L 288.100478 207.261665 
L 289.04648 208.064846 
L 289.992482 208.61694 
L 290.938484 208.909812 
L 291.884486 208.940488 
L 292.830488 208.711183 
L 293.77649 208.22924 
L 294.722492 207.506982 
L 295.668494 206.561467 
L 297.087497 204.772668 
L 298.5065 202.619666 
L 300.871505 198.513588 
L 304.655513 191.844854 
L 306.074516 189.714028 
L 307.493519 187.959657 
L 308.439521 187.045474 
L 309.385524 186.362477 
L 310.331526 185.928856 
L 311.277528 185.758152 
L 312.22353 185.859054 
L 313.169532 186.235319 
L 314.115534 186.885794 
L 315.061536 187.804575 
L 316.007538 188.98125 
L 317.426541 191.196948 
L 318.845544 193.895083 
L 320.737548 198.105197 
L 323.102553 204.049703 
L 330.197568 222.415069 
L 332.089573 226.631522 
L 333.981577 230.360778 
L 335.873581 233.567828 
L 337.765585 236.252525 
L 339.184588 237.938751 
L 340.603591 239.364745 
L 342.022594 240.553247 
L 343.914598 241.811665 
L 345.806602 242.752359 
L 347.698606 243.432117 
L 349.59061 243.900587 
L 351.955615 244.249063 
L 354.320621 244.383409 
L 357.158627 244.297576 
L 359.523632 244.017338 
L 361.888637 243.51847 
L 364.253642 242.754119 
L 366.145646 241.912208 
L 368.03765 240.831144 
L 369.929654 239.482061 
L 371.821658 237.843502 
L 373.713662 235.906328 
L 375.605666 233.678513 
L 377.970672 230.53172 
L 381.281679 225.662866 
L 385.538688 219.366269 
L 387.430692 216.883173 
L 389.322696 214.775619 
L 390.741699 213.511495 
L 392.160702 212.564513 
L 393.579705 211.965838 
L 394.525707 211.770608 
L 395.471709 211.742267 
L 396.417711 211.88124 
L 397.363713 212.185435 
L 398.782716 212.940905 
L 400.20172 214.032201 
L 401.620723 215.42374 
L 403.512727 217.66897 
L 405.877732 220.93003 
L 414.39175 233.264098 
L 416.756755 236.053792 
L 418.648759 237.954066 
L 420.540763 239.548986 
L 422.432768 240.845889 
L 424.324772 241.863179 
L 426.216776 242.625436 
L 428.10878 243.159067 
L 430.000784 243.488859 
L 432.365789 243.645665 
L 434.730794 243.545324 
L 437.095799 243.204738 
L 439.460804 242.632097 
L 441.825809 241.833088 
L 444.190814 240.818492 
L 447.028821 239.35065 
L 450.812829 237.103426 
L 456.01584 234.017253 
L 458.380845 232.868727 
L 460.272849 232.159363 
L 462.164853 231.680437 
L 464.056857 231.460014 
L 465.948861 231.511243 
L 467.840866 231.831077 
L 469.73287 232.400583 
L 471.624874 233.186802 
L 473.989879 234.406847 
L 477.773887 236.670053 
L 482.976898 239.761244 
L 485.814904 241.191365 
L 488.65291 242.359639 
L 491.490917 243.2575 
L 494.328923 243.908878 
L 497.63993 244.414088 
L 501.423938 244.748251 
L 506.626949 244.955922 
L 515.613969 245.042694 
L 564.333074 245.051858 
L 582.780114 245.051858 
L 582.780114 245.051858 
" clip-path="url(#p42f48697b7)" style="fill: none; stroke: #2ca02c; stroke-width: 1.5; stroke-linecap: square"/>
   </g>
   <g id="patch_15">
    <path d="M 50.14375 248.274783 
L 50.14375 177.370435 
" style="fill: none; stroke: #000000; stroke-width: 0.8; stroke-linejoin: miter; stroke-linecap: square"/>
   </g>
   <g id="patch_16">
    <path d="M 608.14375 248.274783 
L 608.14375 177.370435 
" style="fill: none; stroke: #000000; stroke-width: 0.8; stroke-linejoin: miter; stroke-linecap: square"/>
   </g>
   <g id="patch_17">
    <path d="M 50.14375 248.274783 
L 608.14375 248.274783 
" style="fill: none; stroke: #000000; stroke-width: 0.8; stroke-linejoin: miter; stroke-linecap: square"/>
   </g>
   <g id="patch_18">
    <path d="M 50.14375 177.370435 
L 608.14375 177.370435 
" style="fill: none; stroke: #000000; stroke-width: 0.8; stroke-linejoin: miter; stroke-linecap: square"/>
   </g>
   <g id="legend_3">
    <g id="patch_19">
     <path d="M 419.725 200.04856 
L 601.14375 200.04856 
Q 603.14375 200.04856 603.14375 198.04856 
L 603.14375 184.370435 
Q 603.14375 182.370435 601.14375 182.370435 
L 419.725 182.370435 
Q 417.725 182.370435 417.725 184.370435 
L 417.725 198.04856 
Q 417.725 200.04856 419.725 200.04856 
z
" style="fill: #ffffff; opacity: 0.8; stroke: #cccccc; stroke-linejoin: miter"/>
    </g>
    <g id="line2d_37">
     <path d="M 421.725 190.468872 
L 431.725 190.468872 
L 441.725 190.468872 
" style="fill: none; stroke: #2ca02c; stroke-width: 1.5; stroke-linecap: square"/>
    </g>
    <g id="text_13">
     <!-- Max ideal reported wait times -->
     <g transform="translate(449.725 193.968872) scale(0.1 -0.1)">
      <defs>
       <path id="DejaVuSans-78" d="M 3513 3500 
L 2247 1797 
L 3578 0 
L 2900 0 
L 1881 1375 
L 863 0 
L 184 0 
L 1544 1831 
L 300 3500 
L 978 3500 
L 1906 2253 
L 2834 3500 
L 3513 3500 
z
" transform="scale(0.015625)"/>
      </defs>
      <use xlink:href="#DejaVuSans-4d"/>
      <use xlink:href="#DejaVuSans-61" x="86.279297"/>
      <use xlink:href="#DejaVuSans-78" x="147.558594"/>
      <use xlink:href="#DejaVuSans-20" x="206.738281"/>
      <use xlink:href="#DejaVuSans-69" x="238.525391"/>
      <use xlink:href="#DejaVuSans-64" x="266.308594"/>
      <use xlink:href="#DejaVuSans-65" x="329.785156"/>
      <use xlink:href="#DejaVuSans-61" x="391.308594"/>
      <use xlink:href="#DejaVuSans-6c" x="452.587891"/>
      <use xlink:href="#DejaVuSans-20" x="480.371094"/>
      <use xlink:href="#DejaVuSans-72" x="512.158203"/>
      <use xlink:href="#DejaVuSans-65" x="551.021484"/>
      <use xlink:href="#DejaVuSans-70" x="612.544922"/>
      <use xlink:href="#DejaVuSans-6f" x="676.021484"/>
      <use xlink:href="#DejaVuSans-72" x="737.203125"/>
      <use xlink:href="#DejaVuSans-74" x="778.316406"/>
      <use xlink:href="#DejaVuSans-65" x="817.525391"/>
      <use xlink:href="#DejaVuSans-64" x="879.048828"/>
      <use xlink:href="#DejaVuSans-20" x="942.525391"/>
      <use xlink:href="#DejaVuSans-77" x="974.3125"/>
      <use xlink:href="#DejaVuSans-61" x="1056.099609"/>
      <use xlink:href="#DejaVuSans-69" x="1117.378906"/>
      <use xlink:href="#DejaVuSans-74" x="1145.162109"/>
      <use xlink:href="#DejaVuSans-20" x="1184.371094"/>
      <use xlink:href="#DejaVuSans-74" x="1216.158203"/>
      <use xlink:href="#DejaVuSans-69" x="1255.367188"/>
      <use xlink:href="#DejaVuSans-6d" x="1283.150391"/>
      <use xlink:href="#DejaVuSans-65" x="1380.5625"/>
      <use xlink:href="#DejaVuSans-73" x="1442.085938"/>
     </g>
    </g>
   </g>
  </g>
  <g id="axes_4">
   <g id="patch_20">
    <path d="M 50.14375 333.36 
L 608.14375 333.36 
L 608.14375 262.455652 
L 50.14375 262.455652 
z
" style="fill: #ffffff"/>
   </g>
   <g id="matplotlib.axis_7">
    <g id="xtick_25">
     <g id="line2d_38">
      <g>
       <use xlink:href="#ma04d8bd704" x="117.201035" y="333.36" style="stroke: #000000; stroke-width: 0.8"/>
      </g>
     </g>
     <g id="text_14">
      <!-- −5 -->
      <g transform="translate(109.829941 347.958438) scale(0.1 -0.1)">
       <defs>
        <path id="DejaVuSans-2212" d="M 678 2272 
L 4684 2272 
L 4684 1741 
L 678 1741 
L 678 2272 
z
" transform="scale(0.015625)"/>
       </defs>
       <use xlink:href="#DejaVuSans-2212"/>
       <use xlink:href="#DejaVuSans-35" x="83.789062"/>
      </g>
     </g>
    </g>
    <g id="xtick_26">
     <g id="line2d_39">
      <g>
       <use xlink:href="#ma04d8bd704" x="186.69045" y="333.36" style="stroke: #000000; stroke-width: 0.8"/>
      </g>
     </g>
     <g id="text_15">
      <!-- 0 -->
      <g transform="translate(183.5092 347.958438) scale(0.1 -0.1)">
       <use xlink:href="#DejaVuSans-30"/>
      </g>
     </g>
    </g>
    <g id="xtick_27">
     <g id="line2d_40">
      <g>
       <use xlink:href="#ma04d8bd704" x="256.179865" y="333.36" style="stroke: #000000; stroke-width: 0.8"/>
      </g>
     </g>
     <g id="text_16">
      <!-- 5 -->
      <g transform="translate(252.998615 347.958438) scale(0.1 -0.1)">
       <use xlink:href="#DejaVuSans-35"/>
      </g>
     </g>
    </g>
    <g id="xtick_28">
     <g id="line2d_41">
      <g>
       <use xlink:href="#ma04d8bd704" x="325.669279" y="333.36" style="stroke: #000000; stroke-width: 0.8"/>
      </g>
     </g>
     <g id="text_17">
      <!-- 10 -->
      <g transform="translate(319.306779 347.958438) scale(0.1 -0.1)">
       <use xlink:href="#DejaVuSans-31"/>
       <use xlink:href="#DejaVuSans-30" x="63.623047"/>
      </g>
     </g>
    </g>
    <g id="xtick_29">
     <g id="line2d_42">
      <g>
       <use xlink:href="#ma04d8bd704" x="395.158694" y="333.36" style="stroke: #000000; stroke-width: 0.8"/>
      </g>
     </g>
     <g id="text_18">
      <!-- 15 -->
      <g transform="translate(388.796194 347.958438) scale(0.1 -0.1)">
       <use xlink:href="#DejaVuSans-31"/>
       <use xlink:href="#DejaVuSans-35" x="63.623047"/>
      </g>
     </g>
    </g>
    <g id="xtick_30">
     <g id="line2d_43">
      <g>
       <use xlink:href="#ma04d8bd704" x="464.648109" y="333.36" style="stroke: #000000; stroke-width: 0.8"/>
      </g>
     </g>
     <g id="text_19">
      <!-- 20 -->
      <g transform="translate(458.285609 347.958438) scale(0.1 -0.1)">
       <defs>
        <path id="DejaVuSans-32" d="M 1228 531 
L 3431 531 
L 3431 0 
L 469 0 
L 469 531 
Q 828 903 1448 1529 
Q 2069 2156 2228 2338 
Q 2531 2678 2651 2914 
Q 2772 3150 2772 3378 
Q 2772 3750 2511 3984 
Q 2250 4219 1831 4219 
Q 1534 4219 1204 4116 
Q 875 4013 500 3803 
L 500 4441 
Q 881 4594 1212 4672 
Q 1544 4750 1819 4750 
Q 2544 4750 2975 4387 
Q 3406 4025 3406 3419 
Q 3406 3131 3298 2873 
Q 3191 2616 2906 2266 
Q 2828 2175 2409 1742 
Q 1991 1309 1228 531 
z
" transform="scale(0.015625)"/>
       </defs>
       <use xlink:href="#DejaVuSans-32"/>
       <use xlink:href="#DejaVuSans-30" x="63.623047"/>
      </g>
     </g>
    </g>
    <g id="xtick_31">
     <g id="line2d_44">
      <g>
       <use xlink:href="#ma04d8bd704" x="534.137523" y="333.36" style="stroke: #000000; stroke-width: 0.8"/>
      </g>
     </g>
     <g id="text_20">
      <!-- 25 -->
      <g transform="translate(527.775023 347.958438) scale(0.1 -0.1)">
       <use xlink:href="#DejaVuSans-32"/>
       <use xlink:href="#DejaVuSans-35" x="63.623047"/>
      </g>
     </g>
    </g>
    <g id="xtick_32">
     <g id="line2d_45">
      <g>
       <use xlink:href="#ma04d8bd704" x="603.626938" y="333.36" style="stroke: #000000; stroke-width: 0.8"/>
      </g>
     </g>
     <g id="text_21">
      <!-- 30 -->
      <g transform="translate(597.264438 347.958438) scale(0.1 -0.1)">
       <defs>
        <path id="DejaVuSans-33" d="M 2597 2516 
Q 3050 2419 3304 2112 
Q 3559 1806 3559 1356 
Q 3559 666 3084 287 
Q 2609 -91 1734 -91 
Q 1441 -91 1130 -33 
Q 819 25 488 141 
L 488 750 
Q 750 597 1062 519 
Q 1375 441 1716 441 
Q 2309 441 2620 675 
Q 2931 909 2931 1356 
Q 2931 1769 2642 2001 
Q 2353 2234 1838 2234 
L 1294 2234 
L 1294 2753 
L 1863 2753 
Q 2328 2753 2575 2939 
Q 2822 3125 2822 3475 
Q 2822 3834 2567 4026 
Q 2313 4219 1838 4219 
Q 1578 4219 1281 4162 
Q 984 4106 628 3988 
L 628 4550 
Q 988 4650 1302 4700 
Q 1616 4750 1894 4750 
Q 2613 4750 3031 4423 
Q 3450 4097 3450 3541 
Q 3450 3153 3228 2886 
Q 3006 2619 2597 2516 
z
" transform="scale(0.015625)"/>
       </defs>
       <use xlink:href="#DejaVuSans-33"/>
       <use xlink:href="#DejaVuSans-30" x="63.623047"/>
      </g>
     </g>
    </g>
   </g>
   <g id="matplotlib.axis_8">
    <g id="ytick_8">
     <g id="line2d_46">
      <g>
       <use xlink:href="#m35783e6e5d" x="50.14375" y="330.137075" style="stroke: #000000; stroke-width: 0.8"/>
      </g>
     </g>
     <g id="text_22">
      <!-- 0.00 -->
      <g transform="translate(20.878125 333.936294) scale(0.1 -0.1)">
       <use xlink:href="#DejaVuSans-30"/>
       <use xlink:href="#DejaVuSans-2e" x="63.623047"/>
       <use xlink:href="#DejaVuSans-30" x="95.410156"/>
       <use xlink:href="#DejaVuSans-30" x="159.033203"/>
      </g>
     </g>
    </g>
    <g id="ytick_9">
     <g id="line2d_47">
      <g>
       <use xlink:href="#m35783e6e5d" x="50.14375" y="299.546844" style="stroke: #000000; stroke-width: 0.8"/>
      </g>
     </g>
     <g id="text_23">
      <!-- 0.05 -->
      <g transform="translate(20.878125 303.346063) scale(0.1 -0.1)">
       <use xlink:href="#DejaVuSans-30"/>
       <use xlink:href="#DejaVuSans-2e" x="63.623047"/>
       <use xlink:href="#DejaVuSans-30" x="95.410156"/>
       <use xlink:href="#DejaVuSans-35" x="159.033203"/>
      </g>
     </g>
    </g>
    <g id="ytick_10">
     <g id="line2d_48">
      <g>
       <use xlink:href="#m35783e6e5d" x="50.14375" y="268.956613" style="stroke: #000000; stroke-width: 0.8"/>
      </g>
     </g>
     <g id="text_24">
      <!-- 0.10 -->
      <g transform="translate(20.878125 272.755831) scale(0.1 -0.1)">
       <use xlink:href="#DejaVuSans-30"/>
       <use xlink:href="#DejaVuSans-2e" x="63.623047"/>
       <use xlink:href="#DejaVuSans-31" x="95.410156"/>
       <use xlink:href="#DejaVuSans-30" x="159.033203"/>
      </g>
     </g>
    </g>
    <g id="text_25">
     <!-- Density -->
     <g transform="translate(14.798437 316.91642) rotate(-90) scale(0.1 -0.1)">
      <use xlink:href="#DejaVuSans-44"/>
      <use xlink:href="#DejaVuSans-65" x="77.001953"/>
      <use xlink:href="#DejaVuSans-6e" x="138.525391"/>
      <use xlink:href="#DejaVuSans-73" x="201.904297"/>
      <use xlink:href="#DejaVuSans-69" x="254.003906"/>
      <use xlink:href="#DejaVuSans-74" x="281.787109"/>
      <use xlink:href="#DejaVuSans-79" x="320.996094"/>
     </g>
    </g>
   </g>
   <g id="line2d_49">
    <path d="M 110.252094 330.137075 
L 178.364241 330.029594 
L 184.513254 329.776343 
L 188.770263 329.376927 
L 192.08127 328.849226 
L 194.919276 328.186143 
L 197.757283 327.279677 
L 200.122288 326.309724 
L 202.487293 325.128933 
L 205.325299 323.431393 
L 208.163305 321.453877 
L 211.947313 318.498707 
L 218.569328 313.227366 
L 221.407334 311.293098 
L 223.772339 309.960596 
L 226.137344 308.921899 
L 228.502349 308.176301 
L 230.867354 307.680895 
L 234.651362 307.179771 
L 237.962369 306.657495 
L 239.854373 306.146799 
L 241.746378 305.37996 
L 243.165381 304.593635 
L 244.584384 303.599217 
L 246.003387 302.379639 
L 247.42239 300.925949 
L 249.314394 298.62521 
L 251.206398 295.937277 
L 253.571403 292.125818 
L 257.355411 285.437279 
L 260.666418 279.696461 
L 262.558422 276.773056 
L 264.450427 274.277379 
L 265.86943 272.753926 
L 267.288433 271.569422 
L 268.707436 270.747616 
L 269.653438 270.407057 
L 270.59944 270.23242 
L 271.545442 270.220615 
L 272.491444 270.365758 
L 273.910447 270.858217 
L 275.32945 271.644061 
L 276.748453 272.671917 
L 278.640457 274.312458 
L 284.316469 279.49638 
L 285.735472 280.482507 
L 287.154476 281.223174 
L 288.573479 281.674891 
L 289.992482 281.807565 
L 290.938484 281.710583 
L 292.357487 281.285243 
L 293.77649 280.534853 
L 295.195493 279.485662 
L 296.614496 278.178352 
L 298.5065 276.127819 
L 305.128514 268.501594 
L 306.547517 267.284141 
L 307.96652 266.37239 
L 308.912523 265.962594 
L 309.858525 265.727608 
L 310.804527 265.678577 
L 311.750529 265.823886 
L 312.696531 266.169059 
L 313.642533 266.716713 
L 314.588535 267.466565 
L 316.007538 268.962909 
L 317.426541 270.884778 
L 318.845544 273.198058 
L 320.737548 276.81289 
L 322.629552 280.915396 
L 325.467558 287.666382 
L 332.089573 303.68595 
L 334.454578 308.760326 
L 336.346582 312.402328 
L 338.238586 315.630795 
L 340.13059 318.429714 
L 342.022594 320.801082 
L 343.914598 322.760522 
L 345.806602 324.332638 
L 347.698606 325.546511 
L 349.59061 326.431657 
L 351.482614 327.014673 
L 353.374618 327.316722 
L 355.266623 327.351927 
L 357.158627 327.126695 
L 359.050631 326.63996 
L 360.942635 325.884285 
L 362.834639 324.847772 
L 364.726643 323.51666 
L 366.618647 321.87848 
L 368.510651 319.925563 
L 370.402655 317.658687 
L 372.76766 314.404275 
L 375.132665 310.738198 
L 378.443673 305.112663 
L 384.119685 295.322413 
L 386.48469 291.74705 
L 388.376694 289.319144 
L 389.795697 287.816902 
L 391.2147 286.628299 
L 392.633703 285.782406 
L 393.579705 285.419603 
L 394.525707 285.222672 
L 395.471709 285.193804 
L 396.417711 285.333296 
L 397.363713 285.639548 
L 398.782716 286.403512 
L 400.20172 287.515211 
L 401.620723 288.947062 
L 403.039726 290.664234 
L 404.93173 293.326589 
L 407.296735 297.100318 
L 411.553744 304.464554 
L 414.864751 310.041063 
L 417.229756 313.651086 
L 419.12176 316.217599 
L 421.013764 318.449571 
L 422.905769 320.317416 
L 424.797773 321.803703 
L 426.216776 322.662977 
L 427.635779 323.302362 
L 429.054782 323.722824 
L 430.473785 323.926538 
L 431.892788 323.916589 
L 433.311791 323.696829 
L 434.730794 323.271882 
L 436.149797 322.647307 
L 438.041801 321.515933 
L 439.933805 320.062547 
L 441.825809 318.314712 
L 444.190814 315.772103 
L 447.028821 312.323162 
L 455.069838 302.184306 
L 456.961842 300.213274 
L 458.853846 298.57574 
L 460.272849 297.609131 
L 461.691852 296.893768 
L 463.110855 296.44767 
L 464.529858 296.282236 
L 465.948861 296.401792 
L 467.367865 296.803436 
L 468.786868 297.477166 
L 470.205871 298.406318 
L 471.624874 299.568251 
L 473.516878 301.431151 
L 475.881883 304.155326 
L 479.19289 308.413691 
L 484.868902 315.775661 
L 487.706908 319.037038 
L 490.071914 321.409583 
L 492.436919 323.434129 
L 494.801924 325.108404 
L 497.166929 326.451952 
L 499.531934 327.499153 
L 501.896939 328.292556 
L 504.734945 328.973005 
L 507.572951 329.426837 
L 511.356959 329.788353 
L 516.559971 330.018192 
L 525.073989 330.12108 
L 558.184061 330.137075 
L 582.780114 330.137075 
L 582.780114 330.137075 
" clip-path="url(#p6da830e1e1)" style="fill: none; stroke: #d62728; stroke-width: 1.5; stroke-linecap: square"/>
   </g>
   <g id="patch_21">
    <path d="M 50.14375 333.36 
L 50.14375 262.455652 
" style="fill: none; stroke: #000000; stroke-width: 0.8; stroke-linejoin: miter; stroke-linecap: square"/>
   </g>
   <g id="patch_22">
    <path d="M 608.14375 333.36 
L 608.14375 262.455652 
" style="fill: none; stroke: #000000; stroke-width: 0.8; stroke-linejoin: miter; stroke-linecap: square"/>
   </g>
   <g id="patch_23">
    <path d="M 50.14375 333.36 
L 608.14375 333.36 
" style="fill: none; stroke: #000000; stroke-width: 0.8; stroke-linejoin: miter; stroke-linecap: square"/>
   </g>
   <g id="patch_24">
    <path d="M 50.14375 262.455652 
L 608.14375 262.455652 
" style="fill: none; stroke: #000000; stroke-width: 0.8; stroke-linejoin: miter; stroke-linecap: square"/>
   </g>
   <g id="legend_4">
    <g id="patch_25">
     <path d="M 413.120313 285.133777 
L 601.14375 285.133777 
Q 603.14375 285.133777 603.14375 283.133777 
L 603.14375 269.455652 
Q 603.14375 267.455652 601.14375 267.455652 
L 413.120313 267.455652 
Q 411.120313 267.455652 411.120313 269.455652 
L 411.120313 283.133777 
Q 411.120313 285.133777 413.120313 285.133777 
z
" style="fill: #ffffff; opacity: 0.8; stroke: #cccccc; stroke-linejoin: miter"/>
    </g>
    <g id="line2d_50">
     <path d="M 415.120313 275.55409 
L 425.120313 275.55409 
L 435.120313 275.55409 
" style="fill: none; stroke: #d62728; stroke-width: 1.5; stroke-linecap: square"/>
    </g>
    <g id="text_26">
     <!-- Max actual reported wait times -->
     <g transform="translate(443.120313 279.05409) scale(0.1 -0.1)">
      <use xlink:href="#DejaVuSans-4d"/>
      <use xlink:href="#DejaVuSans-61" x="86.279297"/>
      <use xlink:href="#DejaVuSans-78" x="147.558594"/>
      <use xlink:href="#DejaVuSans-20" x="206.738281"/>
      <use xlink:href="#DejaVuSans-61" x="238.525391"/>
      <use xlink:href="#DejaVuSans-63" x="299.804688"/>
      <use xlink:href="#DejaVuSans-74" x="354.785156"/>
      <use xlink:href="#DejaVuSans-75" x="393.994141"/>
      <use xlink:href="#DejaVuSans-61" x="457.373047"/>
      <use xlink:href="#DejaVuSans-6c" x="518.652344"/>
      <use xlink:href="#DejaVuSans-20" x="546.435547"/>
      <use xlink:href="#DejaVuSans-72" x="578.222656"/>
      <use xlink:href="#DejaVuSans-65" x="617.085938"/>
      <use xlink:href="#DejaVuSans-70" x="678.609375"/>
      <use xlink:href="#DejaVuSans-6f" x="742.085938"/>
      <use xlink:href="#DejaVuSans-72" x="803.267578"/>
      <use xlink:href="#DejaVuSans-74" x="844.380859"/>
      <use xlink:href="#DejaVuSans-65" x="883.589844"/>
      <use xlink:href="#DejaVuSans-64" x="945.113281"/>
      <use xlink:href="#DejaVuSans-20" x="1008.589844"/>
      <use xlink:href="#DejaVuSans-77" x="1040.376953"/>
      <use xlink:href="#DejaVuSans-61" x="1122.164062"/>
      <use xlink:href="#DejaVuSans-69" x="1183.443359"/>
      <use xlink:href="#DejaVuSans-74" x="1211.226562"/>
      <use xlink:href="#DejaVuSans-20" x="1250.435547"/>
      <use xlink:href="#DejaVuSans-74" x="1282.222656"/>
      <use xlink:href="#DejaVuSans-69" x="1321.431641"/>
      <use xlink:href="#DejaVuSans-6d" x="1349.214844"/>
      <use xlink:href="#DejaVuSans-65" x="1446.626953"/>
      <use xlink:href="#DejaVuSans-73" x="1508.150391"/>
     </g>
    </g>
   </g>
  </g>
 </g>
 <defs>
  <clipPath id="p3c8b98d7b5">
   <rect x="50.14375" y="7.2" width="558" height="70.904348"/>
  </clipPath>
  <clipPath id="pefdcb2dc6d">
   <rect x="50.14375" y="92.285217" width="558" height="70.904348"/>
  </clipPath>
  <clipPath id="p42f48697b7">
   <rect x="50.14375" y="177.370435" width="558" height="70.904348"/>
  </clipPath>
  <clipPath id="p6da830e1e1">
   <rect x="50.14375" y="262.455652" width="558" height="70.904348"/>
  </clipPath>
 </defs>
</svg>
