<?xml version="1.0" encoding="utf-8" standalone="no"?>
<!DOCTYPE svg PUBLIC "-//W3C//DTD SVG 1.1//EN"
  "http://www.w3.org/Graphics/SVG/1.1/DTD/svg11.dtd">
<svg xmlns:xlink="http://www.w3.org/1999/xlink" width="618.528125pt" height="357.238125pt" viewBox="0 0 618.528125 357.238125" xmlns="http://www.w3.org/2000/svg" version="1.1">
 <metadata>
  <rdf:RDF xmlns:dc="http://purl.org/dc/elements/1.1/" xmlns:cc="http://creativecommons.org/ns#" xmlns:rdf="http://www.w3.org/1999/02/22-rdf-syntax-ns#">
   <cc:Work>
    <dc:type rdf:resource="http://purl.org/dc/dcmitype/StillImage"/>
    <dc:date>2022-11-13T21:27:13.834142</dc:date>
    <dc:format>image/svg+xml</dc:format>
    <dc:creator>
     <cc:Agent>
      <dc:title>Matplotlib v3.6.0, https://matplotlib.org/</dc:title>
     </cc:Agent>
    </dc:creator>
   </cc:Work>
  </rdf:RDF>
 </metadata>
 <defs>
  <style type="text/css">*{stroke-linejoin: round; stroke-linecap: butt}</style>
 </defs>
 <g id="figure_1">
  <g id="patch_1">
   <path d="M 0 357.238125 
L 618.528125 357.238125 
L 618.528125 0 
L 0 0 
L 0 357.238125 
z
" style="fill: none"/>
  </g>
  <g id="axes_1">
   <g id="patch_2">
    <path d="M 53.328125 333.36 
L 611.328125 333.36 
L 611.328125 7.2 
L 53.328125 7.2 
z
" style="fill: #ffffff"/>
   </g>
   <g id="patch_3">
    <path d="M 78.691761 333.36 
L 129.419034 333.36 
L 129.419034 237.980273 
L 78.691761 237.980273 
z
" clip-path="url(#p84afebf950)" style="fill: #1f77b4; opacity: 0.5"/>
   </g>
   <g id="patch_4">
    <path d="M 129.419034 333.36 
L 180.146307 333.36 
L 180.146307 333.36 
L 129.419034 333.36 
z
" clip-path="url(#p84afebf950)" style="fill: #1f77b4; opacity: 0.5"/>
   </g>
   <g id="patch_5">
    <path d="M 180.146307 333.36 
L 230.87358 333.36 
L 230.87358 22.731429 
L 180.146307 22.731429 
z
" clip-path="url(#p84afebf950)" style="fill: #1f77b4; opacity: 0.5"/>
   </g>
   <g id="patch_6">
    <path d="M 230.87358 333.36 
L 281.600852 333.36 
L 281.600852 45.287445 
L 230.87358 45.287445 
z
" clip-path="url(#p84afebf950)" style="fill: #1f77b4; opacity: 0.5"/>
   </g>
   <g id="patch_7">
    <path d="M 281.600852 333.36 
L 332.328125 333.36 
L 332.328125 333.36 
L 281.600852 333.36 
z
" clip-path="url(#p84afebf950)" style="fill: #1f77b4; opacity: 0.5"/>
   </g>
   <g id="patch_8">
    <path d="M 332.328125 333.36 
L 383.055398 333.36 
L 383.055398 177.401257 
L 332.328125 177.401257 
z
" clip-path="url(#p84afebf950)" style="fill: #1f77b4; opacity: 0.5"/>
   </g>
   <g id="patch_9">
    <path d="M 383.055398 333.36 
L 433.78267 333.36 
L 433.78267 333.36 
L 383.055398 333.36 
z
" clip-path="url(#p84afebf950)" style="fill: #1f77b4; opacity: 0.5"/>
   </g>
   <g id="patch_10">
    <path d="M 433.78267 333.36 
L 484.509943 333.36 
L 484.509943 333.36 
L 433.78267 333.36 
z
" clip-path="url(#p84afebf950)" style="fill: #1f77b4; opacity: 0.5"/>
   </g>
   <g id="patch_11">
    <path d="M 484.509943 333.36 
L 535.237216 333.36 
L 535.237216 269.558696 
L 484.509943 269.558696 
z
" clip-path="url(#p84afebf950)" style="fill: #1f77b4; opacity: 0.5"/>
   </g>
   <g id="patch_12">
    <path d="M 535.237216 333.36 
L 585.964489 333.36 
L 585.964489 333.36 
L 535.237216 333.36 
z
" clip-path="url(#p84afebf950)" style="fill: #1f77b4; opacity: 0.5"/>
   </g>
   <g id="patch_13">
    <path d="M 78.691761 333.36 
L 129.419034 333.36 
L 129.419034 246.035993 
L 78.691761 246.035993 
z
" clip-path="url(#p84afebf950)" style="fill: #ff7f0e; opacity: 0.5"/>
   </g>
   <g id="patch_14">
    <path d="M 129.419034 333.36 
L 180.146307 333.36 
L 180.146307 333.36 
L 129.419034 333.36 
z
" clip-path="url(#p84afebf950)" style="fill: #ff7f0e; opacity: 0.5"/>
   </g>
   <g id="patch_15">
    <path d="M 180.146307 333.36 
L 230.87358 333.36 
L 230.87358 87.499419 
L 180.146307 87.499419 
z
" clip-path="url(#p84afebf950)" style="fill: #ff7f0e; opacity: 0.5"/>
   </g>
   <g id="patch_16">
    <path d="M 230.87358 333.36 
L 281.600852 333.36 
L 281.600852 72.999123 
L 230.87358 72.999123 
z
" clip-path="url(#p84afebf950)" style="fill: #ff7f0e; opacity: 0.5"/>
   </g>
   <g id="patch_17">
    <path d="M 281.600852 333.36 
L 332.328125 333.36 
L 332.328125 333.36 
L 281.600852 333.36 
z
" clip-path="url(#p84afebf950)" style="fill: #ff7f0e; opacity: 0.5"/>
   </g>
   <g id="patch_18">
    <path d="M 332.328125 333.36 
L 383.055398 333.36 
L 383.055398 150.011808 
L 332.328125 150.011808 
z
" clip-path="url(#p84afebf950)" style="fill: #ff7f0e; opacity: 0.5"/>
   </g>
   <g id="patch_19">
    <path d="M 383.055398 333.36 
L 433.78267 333.36 
L 433.78267 333.36 
L 383.055398 333.36 
z
" clip-path="url(#p84afebf950)" style="fill: #ff7f0e; opacity: 0.5"/>
   </g>
   <g id="patch_20">
    <path d="M 433.78267 333.36 
L 484.509943 333.36 
L 484.509943 333.36 
L 433.78267 333.36 
z
" clip-path="url(#p84afebf950)" style="fill: #ff7f0e; opacity: 0.5"/>
   </g>
   <g id="patch_21">
    <path d="M 484.509943 333.36 
L 535.237216 333.36 
L 535.237216 196.412756 
L 484.509943 196.412756 
z
" clip-path="url(#p84afebf950)" style="fill: #ff7f0e; opacity: 0.5"/>
   </g>
   <g id="patch_22">
    <path d="M 535.237216 333.36 
L 585.964489 333.36 
L 585.964489 333.36 
L 535.237216 333.36 
z
" clip-path="url(#p84afebf950)" style="fill: #ff7f0e; opacity: 0.5"/>
   </g>
   <g id="patch_23">
    <path d="M 78.691761 333.36 
L 129.419034 333.36 
L 129.419034 333.36 
L 78.691761 333.36 
z
" clip-path="url(#p84afebf950)" style="fill: #2ca02c; opacity: 0.5"/>
   </g>
   <g id="patch_24">
    <path d="M 129.419034 333.36 
L 180.146307 333.36 
L 180.146307 237.980273 
L 129.419034 237.980273 
z
" clip-path="url(#p84afebf950)" style="fill: #2ca02c; opacity: 0.5"/>
   </g>
   <g id="patch_25">
    <path d="M 180.146307 333.36 
L 230.87358 333.36 
L 230.87358 333.36 
L 180.146307 333.36 
z
" clip-path="url(#p84afebf950)" style="fill: #2ca02c; opacity: 0.5"/>
   </g>
   <g id="patch_26">
    <path d="M 230.87358 333.36 
L 281.600852 333.36 
L 281.600852 22.731429 
L 230.87358 22.731429 
z
" clip-path="url(#p84afebf950)" style="fill: #2ca02c; opacity: 0.5"/>
   </g>
   <g id="patch_27">
    <path d="M 281.600852 333.36 
L 332.328125 333.36 
L 332.328125 45.287445 
L 281.600852 45.287445 
z
" clip-path="url(#p84afebf950)" style="fill: #2ca02c; opacity: 0.5"/>
   </g>
   <g id="patch_28">
    <path d="M 332.328125 333.36 
L 383.055398 333.36 
L 383.055398 333.36 
L 332.328125 333.36 
z
" clip-path="url(#p84afebf950)" style="fill: #2ca02c; opacity: 0.5"/>
   </g>
   <g id="patch_29">
    <path d="M 383.055398 333.36 
L 433.78267 333.36 
L 433.78267 333.36 
L 383.055398 333.36 
z
" clip-path="url(#p84afebf950)" style="fill: #2ca02c; opacity: 0.5"/>
   </g>
   <g id="patch_30">
    <path d="M 433.78267 333.36 
L 484.509943 333.36 
L 484.509943 177.401257 
L 433.78267 177.401257 
z
" clip-path="url(#p84afebf950)" style="fill: #2ca02c; opacity: 0.5"/>
   </g>
   <g id="patch_31">
    <path d="M 484.509943 333.36 
L 535.237216 333.36 
L 535.237216 333.36 
L 484.509943 333.36 
z
" clip-path="url(#p84afebf950)" style="fill: #2ca02c; opacity: 0.5"/>
   </g>
   <g id="patch_32">
    <path d="M 535.237216 333.36 
L 585.964489 333.36 
L 585.964489 269.558696 
L 535.237216 269.558696 
z
" clip-path="url(#p84afebf950)" style="fill: #2ca02c; opacity: 0.5"/>
   </g>
   <g id="patch_33">
    <path d="M 78.691761 333.36 
L 129.419034 333.36 
L 129.419034 333.36 
L 78.691761 333.36 
z
" clip-path="url(#p84afebf950)" style="fill: #d62728; opacity: 0.5"/>
   </g>
   <g id="patch_34">
    <path d="M 129.419034 333.36 
L 180.146307 333.36 
L 180.146307 246.035993 
L 129.419034 246.035993 
z
" clip-path="url(#p84afebf950)" style="fill: #d62728; opacity: 0.5"/>
   </g>
   <g id="patch_35">
    <path d="M 180.146307 333.36 
L 230.87358 333.36 
L 230.87358 333.36 
L 180.146307 333.36 
z
" clip-path="url(#p84afebf950)" style="fill: #d62728; opacity: 0.5"/>
   </g>
   <g id="patch_36">
    <path d="M 230.87358 333.36 
L 281.600852 333.36 
L 281.600852 87.499419 
L 230.87358 87.499419 
z
" clip-path="url(#p84afebf950)" style="fill: #d62728; opacity: 0.5"/>
   </g>
   <g id="patch_37">
    <path d="M 281.600852 333.36 
L 332.328125 333.36 
L 332.328125 72.999123 
L 281.600852 72.999123 
z
" clip-path="url(#p84afebf950)" style="fill: #d62728; opacity: 0.5"/>
   </g>
   <g id="patch_38">
    <path d="M 332.328125 333.36 
L 383.055398 333.36 
L 383.055398 333.36 
L 332.328125 333.36 
z
" clip-path="url(#p84afebf950)" style="fill: #d62728; opacity: 0.5"/>
   </g>
   <g id="patch_39">
    <path d="M 383.055398 333.36 
L 433.78267 333.36 
L 433.78267 333.36 
L 383.055398 333.36 
z
" clip-path="url(#p84afebf950)" style="fill: #d62728; opacity: 0.5"/>
   </g>
   <g id="patch_40">
    <path d="M 433.78267 333.36 
L 484.509943 333.36 
L 484.509943 150.011808 
L 433.78267 150.011808 
z
" clip-path="url(#p84afebf950)" style="fill: #d62728; opacity: 0.5"/>
   </g>
   <g id="patch_41">
    <path d="M 484.509943 333.36 
L 535.237216 333.36 
L 535.237216 333.36 
L 484.509943 333.36 
z
" clip-path="url(#p84afebf950)" style="fill: #d62728; opacity: 0.5"/>
   </g>
   <g id="patch_42">
    <path d="M 535.237216 333.36 
L 585.964489 333.36 
L 585.964489 196.412756 
L 535.237216 196.412756 
z
" clip-path="url(#p84afebf950)" style="fill: #d62728; opacity: 0.5"/>
   </g>
   <g id="matplotlib.axis_1">
    <g id="xtick_1">
     <g id="line2d_1">
      <defs>
       <path id="m740fedff78" d="M 0 0 
L 0 3.5 
" style="stroke: #000000; stroke-width: 0.8"/>
      </defs>
      <g>
       <use xlink:href="#m740fedff78" x="78.691761" y="333.36" style="stroke: #000000; stroke-width: 0.8"/>
      </g>
     </g>
     <g id="text_1">
      <!-- 0.0 -->
      <g transform="translate(70.740199 347.958438) scale(0.1 -0.1)">
       <defs>
        <path id="DejaVuSans-30" d="M 2034 4250 
Q 1547 4250 1301 3770 
Q 1056 3291 1056 2328 
Q 1056 1369 1301 889 
Q 1547 409 2034 409 
Q 2525 409 2770 889 
Q 3016 1369 3016 2328 
Q 3016 3291 2770 3770 
Q 2525 4250 2034 4250 
z
M 2034 4750 
Q 2819 4750 3233 4129 
Q 3647 3509 3647 2328 
Q 3647 1150 3233 529 
Q 2819 -91 2034 -91 
Q 1250 -91 836 529 
Q 422 1150 422 2328 
Q 422 3509 836 4129 
Q 1250 4750 2034 4750 
z
" transform="scale(0.015625)"/>
        <path id="DejaVuSans-2e" d="M 684 794 
L 1344 794 
L 1344 0 
L 684 0 
L 684 794 
z
" transform="scale(0.015625)"/>
       </defs>
       <use xlink:href="#DejaVuSans-30"/>
       <use xlink:href="#DejaVuSans-2e" x="63.623047"/>
       <use xlink:href="#DejaVuSans-30" x="95.410156"/>
      </g>
     </g>
    </g>
    <g id="xtick_2">
     <g id="line2d_2">
      <g>
       <use xlink:href="#m740fedff78" x="142.100852" y="333.36" style="stroke: #000000; stroke-width: 0.8"/>
      </g>
     </g>
     <g id="text_2">
      <!-- 2.5 -->
      <g transform="translate(134.14929 347.958438) scale(0.1 -0.1)">
       <defs>
        <path id="DejaVuSans-32" d="M 1228 531 
L 3431 531 
L 3431 0 
L 469 0 
L 469 531 
Q 828 903 1448 1529 
Q 2069 2156 2228 2338 
Q 2531 2678 2651 2914 
Q 2772 3150 2772 3378 
Q 2772 3750 2511 3984 
Q 2250 4219 1831 4219 
Q 1534 4219 1204 4116 
Q 875 4013 500 3803 
L 500 4441 
Q 881 4594 1212 4672 
Q 1544 4750 1819 4750 
Q 2544 4750 2975 4387 
Q 3406 4025 3406 3419 
Q 3406 3131 3298 2873 
Q 3191 2616 2906 2266 
Q 2828 2175 2409 1742 
Q 1991 1309 1228 531 
z
" transform="scale(0.015625)"/>
        <path id="DejaVuSans-35" d="M 691 4666 
L 3169 4666 
L 3169 4134 
L 1269 4134 
L 1269 2991 
Q 1406 3038 1543 3061 
Q 1681 3084 1819 3084 
Q 2600 3084 3056 2656 
Q 3513 2228 3513 1497 
Q 3513 744 3044 326 
Q 2575 -91 1722 -91 
Q 1428 -91 1123 -41 
Q 819 9 494 109 
L 494 744 
Q 775 591 1075 516 
Q 1375 441 1709 441 
Q 2250 441 2565 725 
Q 2881 1009 2881 1497 
Q 2881 1984 2565 2268 
Q 2250 2553 1709 2553 
Q 1456 2553 1204 2497 
Q 953 2441 691 2322 
L 691 4666 
z
" transform="scale(0.015625)"/>
       </defs>
       <use xlink:href="#DejaVuSans-32"/>
       <use xlink:href="#DejaVuSans-2e" x="63.623047"/>
       <use xlink:href="#DejaVuSans-35" x="95.410156"/>
      </g>
     </g>
    </g>
    <g id="xtick_3">
     <g id="line2d_3">
      <g>
       <use xlink:href="#m740fedff78" x="205.509943" y="333.36" style="stroke: #000000; stroke-width: 0.8"/>
      </g>
     </g>
     <g id="text_3">
      <!-- 5.0 -->
      <g transform="translate(197.558381 347.958438) scale(0.1 -0.1)">
       <use xlink:href="#DejaVuSans-35"/>
       <use xlink:href="#DejaVuSans-2e" x="63.623047"/>
       <use xlink:href="#DejaVuSans-30" x="95.410156"/>
      </g>
     </g>
    </g>
    <g id="xtick_4">
     <g id="line2d_4">
      <g>
       <use xlink:href="#m740fedff78" x="268.919034" y="333.36" style="stroke: #000000; stroke-width: 0.8"/>
      </g>
     </g>
     <g id="text_4">
      <!-- 7.5 -->
      <g transform="translate(260.967472 347.958438) scale(0.1 -0.1)">
       <defs>
        <path id="DejaVuSans-37" d="M 525 4666 
L 3525 4666 
L 3525 4397 
L 1831 0 
L 1172 0 
L 2766 4134 
L 525 4134 
L 525 4666 
z
" transform="scale(0.015625)"/>
       </defs>
       <use xlink:href="#DejaVuSans-37"/>
       <use xlink:href="#DejaVuSans-2e" x="63.623047"/>
       <use xlink:href="#DejaVuSans-35" x="95.410156"/>
      </g>
     </g>
    </g>
    <g id="xtick_5">
     <g id="line2d_5">
      <g>
       <use xlink:href="#m740fedff78" x="332.328125" y="333.36" style="stroke: #000000; stroke-width: 0.8"/>
      </g>
     </g>
     <g id="text_5">
      <!-- 10.0 -->
      <g transform="translate(321.195312 347.958438) scale(0.1 -0.1)">
       <defs>
        <path id="DejaVuSans-31" d="M 794 531 
L 1825 531 
L 1825 4091 
L 703 3866 
L 703 4441 
L 1819 4666 
L 2450 4666 
L 2450 531 
L 3481 531 
L 3481 0 
L 794 0 
L 794 531 
z
" transform="scale(0.015625)"/>
       </defs>
       <use xlink:href="#DejaVuSans-31"/>
       <use xlink:href="#DejaVuSans-30" x="63.623047"/>
       <use xlink:href="#DejaVuSans-2e" x="127.246094"/>
       <use xlink:href="#DejaVuSans-30" x="159.033203"/>
      </g>
     </g>
    </g>
    <g id="xtick_6">
     <g id="line2d_6">
      <g>
       <use xlink:href="#m740fedff78" x="395.737216" y="333.36" style="stroke: #000000; stroke-width: 0.8"/>
      </g>
     </g>
     <g id="text_6">
      <!-- 12.5 -->
      <g transform="translate(384.604403 347.958438) scale(0.1 -0.1)">
       <use xlink:href="#DejaVuSans-31"/>
       <use xlink:href="#DejaVuSans-32" x="63.623047"/>
       <use xlink:href="#DejaVuSans-2e" x="127.246094"/>
       <use xlink:href="#DejaVuSans-35" x="159.033203"/>
      </g>
     </g>
    </g>
    <g id="xtick_7">
     <g id="line2d_7">
      <g>
       <use xlink:href="#m740fedff78" x="459.146307" y="333.36" style="stroke: #000000; stroke-width: 0.8"/>
      </g>
     </g>
     <g id="text_7">
      <!-- 15.0 -->
      <g transform="translate(448.013494 347.958438) scale(0.1 -0.1)">
       <use xlink:href="#DejaVuSans-31"/>
       <use xlink:href="#DejaVuSans-35" x="63.623047"/>
       <use xlink:href="#DejaVuSans-2e" x="127.246094"/>
       <use xlink:href="#DejaVuSans-30" x="159.033203"/>
      </g>
     </g>
    </g>
    <g id="xtick_8">
     <g id="line2d_8">
      <g>
       <use xlink:href="#m740fedff78" x="522.555398" y="333.36" style="stroke: #000000; stroke-width: 0.8"/>
      </g>
     </g>
     <g id="text_8">
      <!-- 17.5 -->
      <g transform="translate(511.422585 347.958438) scale(0.1 -0.1)">
       <use xlink:href="#DejaVuSans-31"/>
       <use xlink:href="#DejaVuSans-37" x="63.623047"/>
       <use xlink:href="#DejaVuSans-2e" x="127.246094"/>
       <use xlink:href="#DejaVuSans-35" x="159.033203"/>
      </g>
     </g>
    </g>
    <g id="xtick_9">
     <g id="line2d_9">
      <g>
       <use xlink:href="#m740fedff78" x="585.964489" y="333.36" style="stroke: #000000; stroke-width: 0.8"/>
      </g>
     </g>
     <g id="text_9">
      <!-- 20.0 -->
      <g transform="translate(574.831676 347.958438) scale(0.1 -0.1)">
       <use xlink:href="#DejaVuSans-32"/>
       <use xlink:href="#DejaVuSans-30" x="63.623047"/>
       <use xlink:href="#DejaVuSans-2e" x="127.246094"/>
       <use xlink:href="#DejaVuSans-30" x="159.033203"/>
      </g>
     </g>
    </g>
   </g>
   <g id="matplotlib.axis_2">
    <g id="ytick_1">
     <g id="line2d_10">
      <defs>
       <path id="m8514564f65" d="M 0 0 
L -3.5 0 
" style="stroke: #000000; stroke-width: 0.8"/>
      </defs>
      <g>
       <use xlink:href="#m8514564f65" x="53.328125" y="333.36" style="stroke: #000000; stroke-width: 0.8"/>
      </g>
     </g>
     <g id="text_10">
      <!-- 0 -->
      <g transform="translate(39.965625 337.159219) scale(0.1 -0.1)">
       <use xlink:href="#DejaVuSans-30"/>
      </g>
     </g>
    </g>
    <g id="ytick_2">
     <g id="line2d_11">
      <g>
       <use xlink:href="#m8514564f65" x="53.328125" y="268.914238" style="stroke: #000000; stroke-width: 0.8"/>
      </g>
     </g>
     <g id="text_11">
      <!-- 200 -->
      <g transform="translate(27.240625 272.713457) scale(0.1 -0.1)">
       <use xlink:href="#DejaVuSans-32"/>
       <use xlink:href="#DejaVuSans-30" x="63.623047"/>
       <use xlink:href="#DejaVuSans-30" x="127.246094"/>
      </g>
     </g>
    </g>
    <g id="ytick_3">
     <g id="line2d_12">
      <g>
       <use xlink:href="#m8514564f65" x="53.328125" y="204.468477" style="stroke: #000000; stroke-width: 0.8"/>
      </g>
     </g>
     <g id="text_12">
      <!-- 400 -->
      <g transform="translate(27.240625 208.267695) scale(0.1 -0.1)">
       <defs>
        <path id="DejaVuSans-34" d="M 2419 4116 
L 825 1625 
L 2419 1625 
L 2419 4116 
z
M 2253 4666 
L 3047 4666 
L 3047 1625 
L 3713 1625 
L 3713 1100 
L 3047 1100 
L 3047 0 
L 2419 0 
L 2419 1100 
L 313 1100 
L 313 1709 
L 2253 4666 
z
" transform="scale(0.015625)"/>
       </defs>
       <use xlink:href="#DejaVuSans-34"/>
       <use xlink:href="#DejaVuSans-30" x="63.623047"/>
       <use xlink:href="#DejaVuSans-30" x="127.246094"/>
      </g>
     </g>
    </g>
    <g id="ytick_4">
     <g id="line2d_13">
      <g>
       <use xlink:href="#m8514564f65" x="53.328125" y="140.022715" style="stroke: #000000; stroke-width: 0.8"/>
      </g>
     </g>
     <g id="text_13">
      <!-- 600 -->
      <g transform="translate(27.240625 143.821934) scale(0.1 -0.1)">
       <defs>
        <path id="DejaVuSans-36" d="M 2113 2584 
Q 1688 2584 1439 2293 
Q 1191 2003 1191 1497 
Q 1191 994 1439 701 
Q 1688 409 2113 409 
Q 2538 409 2786 701 
Q 3034 994 3034 1497 
Q 3034 2003 2786 2293 
Q 2538 2584 2113 2584 
z
M 3366 4563 
L 3366 3988 
Q 3128 4100 2886 4159 
Q 2644 4219 2406 4219 
Q 1781 4219 1451 3797 
Q 1122 3375 1075 2522 
Q 1259 2794 1537 2939 
Q 1816 3084 2150 3084 
Q 2853 3084 3261 2657 
Q 3669 2231 3669 1497 
Q 3669 778 3244 343 
Q 2819 -91 2113 -91 
Q 1303 -91 875 529 
Q 447 1150 447 2328 
Q 447 3434 972 4092 
Q 1497 4750 2381 4750 
Q 2619 4750 2861 4703 
Q 3103 4656 3366 4563 
z
" transform="scale(0.015625)"/>
       </defs>
       <use xlink:href="#DejaVuSans-36"/>
       <use xlink:href="#DejaVuSans-30" x="63.623047"/>
       <use xlink:href="#DejaVuSans-30" x="127.246094"/>
      </g>
     </g>
    </g>
    <g id="ytick_5">
     <g id="line2d_14">
      <g>
       <use xlink:href="#m8514564f65" x="53.328125" y="75.576953" style="stroke: #000000; stroke-width: 0.8"/>
      </g>
     </g>
     <g id="text_14">
      <!-- 800 -->
      <g transform="translate(27.240625 79.376172) scale(0.1 -0.1)">
       <defs>
        <path id="DejaVuSans-38" d="M 2034 2216 
Q 1584 2216 1326 1975 
Q 1069 1734 1069 1313 
Q 1069 891 1326 650 
Q 1584 409 2034 409 
Q 2484 409 2743 651 
Q 3003 894 3003 1313 
Q 3003 1734 2745 1975 
Q 2488 2216 2034 2216 
z
M 1403 2484 
Q 997 2584 770 2862 
Q 544 3141 544 3541 
Q 544 4100 942 4425 
Q 1341 4750 2034 4750 
Q 2731 4750 3128 4425 
Q 3525 4100 3525 3541 
Q 3525 3141 3298 2862 
Q 3072 2584 2669 2484 
Q 3125 2378 3379 2068 
Q 3634 1759 3634 1313 
Q 3634 634 3220 271 
Q 2806 -91 2034 -91 
Q 1263 -91 848 271 
Q 434 634 434 1313 
Q 434 1759 690 2068 
Q 947 2378 1403 2484 
z
M 1172 3481 
Q 1172 3119 1398 2916 
Q 1625 2713 2034 2713 
Q 2441 2713 2670 2916 
Q 2900 3119 2900 3481 
Q 2900 3844 2670 4047 
Q 2441 4250 2034 4250 
Q 1625 4250 1398 4047 
Q 1172 3844 1172 3481 
z
" transform="scale(0.015625)"/>
       </defs>
       <use xlink:href="#DejaVuSans-38"/>
       <use xlink:href="#DejaVuSans-30" x="63.623047"/>
       <use xlink:href="#DejaVuSans-30" x="127.246094"/>
      </g>
     </g>
    </g>
    <g id="ytick_6">
     <g id="line2d_15">
      <g>
       <use xlink:href="#m8514564f65" x="53.328125" y="11.131191" style="stroke: #000000; stroke-width: 0.8"/>
      </g>
     </g>
     <g id="text_15">
      <!-- 1000 -->
      <g transform="translate(20.878125 14.93041) scale(0.1 -0.1)">
       <use xlink:href="#DejaVuSans-31"/>
       <use xlink:href="#DejaVuSans-30" x="63.623047"/>
       <use xlink:href="#DejaVuSans-30" x="127.246094"/>
       <use xlink:href="#DejaVuSans-30" x="190.869141"/>
      </g>
     </g>
    </g>
    <g id="text_16">
     <!-- Frequency -->
     <g transform="translate(14.798438 196.109688) rotate(-90) scale(0.1 -0.1)">
      <defs>
       <path id="DejaVuSans-46" d="M 628 4666 
L 3309 4666 
L 3309 4134 
L 1259 4134 
L 1259 2759 
L 3109 2759 
L 3109 2228 
L 1259 2228 
L 1259 0 
L 628 0 
L 628 4666 
z
" transform="scale(0.015625)"/>
       <path id="DejaVuSans-72" d="M 2631 2963 
Q 2534 3019 2420 3045 
Q 2306 3072 2169 3072 
Q 1681 3072 1420 2755 
Q 1159 2438 1159 1844 
L 1159 0 
L 581 0 
L 581 3500 
L 1159 3500 
L 1159 2956 
Q 1341 3275 1631 3429 
Q 1922 3584 2338 3584 
Q 2397 3584 2469 3576 
Q 2541 3569 2628 3553 
L 2631 2963 
z
" transform="scale(0.015625)"/>
       <path id="DejaVuSans-65" d="M 3597 1894 
L 3597 1613 
L 953 1613 
Q 991 1019 1311 708 
Q 1631 397 2203 397 
Q 2534 397 2845 478 
Q 3156 559 3463 722 
L 3463 178 
Q 3153 47 2828 -22 
Q 2503 -91 2169 -91 
Q 1331 -91 842 396 
Q 353 884 353 1716 
Q 353 2575 817 3079 
Q 1281 3584 2069 3584 
Q 2775 3584 3186 3129 
Q 3597 2675 3597 1894 
z
M 3022 2063 
Q 3016 2534 2758 2815 
Q 2500 3097 2075 3097 
Q 1594 3097 1305 2825 
Q 1016 2553 972 2059 
L 3022 2063 
z
" transform="scale(0.015625)"/>
       <path id="DejaVuSans-71" d="M 947 1747 
Q 947 1113 1208 752 
Q 1469 391 1925 391 
Q 2381 391 2643 752 
Q 2906 1113 2906 1747 
Q 2906 2381 2643 2742 
Q 2381 3103 1925 3103 
Q 1469 3103 1208 2742 
Q 947 2381 947 1747 
z
M 2906 525 
Q 2725 213 2448 61 
Q 2172 -91 1784 -91 
Q 1150 -91 751 415 
Q 353 922 353 1747 
Q 353 2572 751 3078 
Q 1150 3584 1784 3584 
Q 2172 3584 2448 3432 
Q 2725 3281 2906 2969 
L 2906 3500 
L 3481 3500 
L 3481 -1331 
L 2906 -1331 
L 2906 525 
z
" transform="scale(0.015625)"/>
       <path id="DejaVuSans-75" d="M 544 1381 
L 544 3500 
L 1119 3500 
L 1119 1403 
Q 1119 906 1312 657 
Q 1506 409 1894 409 
Q 2359 409 2629 706 
Q 2900 1003 2900 1516 
L 2900 3500 
L 3475 3500 
L 3475 0 
L 2900 0 
L 2900 538 
Q 2691 219 2414 64 
Q 2138 -91 1772 -91 
Q 1169 -91 856 284 
Q 544 659 544 1381 
z
M 1991 3584 
L 1991 3584 
z
" transform="scale(0.015625)"/>
       <path id="DejaVuSans-6e" d="M 3513 2113 
L 3513 0 
L 2938 0 
L 2938 2094 
Q 2938 2591 2744 2837 
Q 2550 3084 2163 3084 
Q 1697 3084 1428 2787 
Q 1159 2491 1159 1978 
L 1159 0 
L 581 0 
L 581 3500 
L 1159 3500 
L 1159 2956 
Q 1366 3272 1645 3428 
Q 1925 3584 2291 3584 
Q 2894 3584 3203 3211 
Q 3513 2838 3513 2113 
z
" transform="scale(0.015625)"/>
       <path id="DejaVuSans-63" d="M 3122 3366 
L 3122 2828 
Q 2878 2963 2633 3030 
Q 2388 3097 2138 3097 
Q 1578 3097 1268 2742 
Q 959 2388 959 1747 
Q 959 1106 1268 751 
Q 1578 397 2138 397 
Q 2388 397 2633 464 
Q 2878 531 3122 666 
L 3122 134 
Q 2881 22 2623 -34 
Q 2366 -91 2075 -91 
Q 1284 -91 818 406 
Q 353 903 353 1747 
Q 353 2603 823 3093 
Q 1294 3584 2113 3584 
Q 2378 3584 2631 3529 
Q 2884 3475 3122 3366 
z
" transform="scale(0.015625)"/>
       <path id="DejaVuSans-79" d="M 2059 -325 
Q 1816 -950 1584 -1140 
Q 1353 -1331 966 -1331 
L 506 -1331 
L 506 -850 
L 844 -850 
Q 1081 -850 1212 -737 
Q 1344 -625 1503 -206 
L 1606 56 
L 191 3500 
L 800 3500 
L 1894 763 
L 2988 3500 
L 3597 3500 
L 2059 -325 
z
" transform="scale(0.015625)"/>
      </defs>
      <use xlink:href="#DejaVuSans-46"/>
      <use xlink:href="#DejaVuSans-72" x="50.269531"/>
      <use xlink:href="#DejaVuSans-65" x="89.132812"/>
      <use xlink:href="#DejaVuSans-71" x="150.65625"/>
      <use xlink:href="#DejaVuSans-75" x="214.132812"/>
      <use xlink:href="#DejaVuSans-65" x="277.511719"/>
      <use xlink:href="#DejaVuSans-6e" x="339.035156"/>
      <use xlink:href="#DejaVuSans-63" x="402.414062"/>
      <use xlink:href="#DejaVuSans-79" x="457.394531"/>
     </g>
    </g>
   </g>
   <g id="patch_43">
    <path d="M 53.328125 333.36 
L 53.328125 7.2 
" style="fill: none; stroke: #000000; stroke-width: 0.8; stroke-linejoin: miter; stroke-linecap: square"/>
   </g>
   <g id="patch_44">
    <path d="M 611.328125 333.36 
L 611.328125 7.2 
" style="fill: none; stroke: #000000; stroke-width: 0.8; stroke-linejoin: miter; stroke-linecap: square"/>
   </g>
   <g id="patch_45">
    <path d="M 53.328125 333.36 
L 611.328125 333.36 
" style="fill: none; stroke: #000000; stroke-width: 0.8; stroke-linejoin: miter; stroke-linecap: square"/>
   </g>
   <g id="patch_46">
    <path d="M 53.328125 7.2 
L 611.328125 7.2 
" style="fill: none; stroke: #000000; stroke-width: 0.8; stroke-linejoin: miter; stroke-linecap: square"/>
   </g>
   <g id="legend_1">
    <g id="patch_47">
     <path d="M 416.304688 73.9125 
L 604.328125 73.9125 
Q 606.328125 73.9125 606.328125 71.9125 
L 606.328125 14.2 
Q 606.328125 12.2 604.328125 12.2 
L 416.304688 12.2 
Q 414.304688 12.2 414.304688 14.2 
L 414.304688 71.9125 
Q 414.304688 73.9125 416.304688 73.9125 
z
" style="fill: #ffffff; opacity: 0.8; stroke: #cccccc; stroke-linejoin: miter"/>
    </g>
    <g id="patch_48">
     <path d="M 418.304688 23.798438 
L 438.304688 23.798438 
L 438.304688 16.798438 
L 418.304688 16.798438 
z
" style="fill: #1f77b4; opacity: 0.5"/>
    </g>
    <g id="text_17">
     <!-- Min ideal reported wait times -->
     <g transform="translate(446.304688 23.798438) scale(0.1 -0.1)">
      <defs>
       <path id="DejaVuSans-4d" d="M 628 4666 
L 1569 4666 
L 2759 1491 
L 3956 4666 
L 4897 4666 
L 4897 0 
L 4281 0 
L 4281 4097 
L 3078 897 
L 2444 897 
L 1241 4097 
L 1241 0 
L 628 0 
L 628 4666 
z
" transform="scale(0.015625)"/>
       <path id="DejaVuSans-69" d="M 603 3500 
L 1178 3500 
L 1178 0 
L 603 0 
L 603 3500 
z
M 603 4863 
L 1178 4863 
L 1178 4134 
L 603 4134 
L 603 4863 
z
" transform="scale(0.015625)"/>
       <path id="DejaVuSans-20" transform="scale(0.015625)"/>
       <path id="DejaVuSans-64" d="M 2906 2969 
L 2906 4863 
L 3481 4863 
L 3481 0 
L 2906 0 
L 2906 525 
Q 2725 213 2448 61 
Q 2172 -91 1784 -91 
Q 1150 -91 751 415 
Q 353 922 353 1747 
Q 353 2572 751 3078 
Q 1150 3584 1784 3584 
Q 2172 3584 2448 3432 
Q 2725 3281 2906 2969 
z
M 947 1747 
Q 947 1113 1208 752 
Q 1469 391 1925 391 
Q 2381 391 2643 752 
Q 2906 1113 2906 1747 
Q 2906 2381 2643 2742 
Q 2381 3103 1925 3103 
Q 1469 3103 1208 2742 
Q 947 2381 947 1747 
z
" transform="scale(0.015625)"/>
       <path id="DejaVuSans-61" d="M 2194 1759 
Q 1497 1759 1228 1600 
Q 959 1441 959 1056 
Q 959 750 1161 570 
Q 1363 391 1709 391 
Q 2188 391 2477 730 
Q 2766 1069 2766 1631 
L 2766 1759 
L 2194 1759 
z
M 3341 1997 
L 3341 0 
L 2766 0 
L 2766 531 
Q 2569 213 2275 61 
Q 1981 -91 1556 -91 
Q 1019 -91 701 211 
Q 384 513 384 1019 
Q 384 1609 779 1909 
Q 1175 2209 1959 2209 
L 2766 2209 
L 2766 2266 
Q 2766 2663 2505 2880 
Q 2244 3097 1772 3097 
Q 1472 3097 1187 3025 
Q 903 2953 641 2809 
L 641 3341 
Q 956 3463 1253 3523 
Q 1550 3584 1831 3584 
Q 2591 3584 2966 3190 
Q 3341 2797 3341 1997 
z
" transform="scale(0.015625)"/>
       <path id="DejaVuSans-6c" d="M 603 4863 
L 1178 4863 
L 1178 0 
L 603 0 
L 603 4863 
z
" transform="scale(0.015625)"/>
       <path id="DejaVuSans-70" d="M 1159 525 
L 1159 -1331 
L 581 -1331 
L 581 3500 
L 1159 3500 
L 1159 2969 
Q 1341 3281 1617 3432 
Q 1894 3584 2278 3584 
Q 2916 3584 3314 3078 
Q 3713 2572 3713 1747 
Q 3713 922 3314 415 
Q 2916 -91 2278 -91 
Q 1894 -91 1617 61 
Q 1341 213 1159 525 
z
M 3116 1747 
Q 3116 2381 2855 2742 
Q 2594 3103 2138 3103 
Q 1681 3103 1420 2742 
Q 1159 2381 1159 1747 
Q 1159 1113 1420 752 
Q 1681 391 2138 391 
Q 2594 391 2855 752 
Q 3116 1113 3116 1747 
z
" transform="scale(0.015625)"/>
       <path id="DejaVuSans-6f" d="M 1959 3097 
Q 1497 3097 1228 2736 
Q 959 2375 959 1747 
Q 959 1119 1226 758 
Q 1494 397 1959 397 
Q 2419 397 2687 759 
Q 2956 1122 2956 1747 
Q 2956 2369 2687 2733 
Q 2419 3097 1959 3097 
z
M 1959 3584 
Q 2709 3584 3137 3096 
Q 3566 2609 3566 1747 
Q 3566 888 3137 398 
Q 2709 -91 1959 -91 
Q 1206 -91 779 398 
Q 353 888 353 1747 
Q 353 2609 779 3096 
Q 1206 3584 1959 3584 
z
" transform="scale(0.015625)"/>
       <path id="DejaVuSans-74" d="M 1172 4494 
L 1172 3500 
L 2356 3500 
L 2356 3053 
L 1172 3053 
L 1172 1153 
Q 1172 725 1289 603 
Q 1406 481 1766 481 
L 2356 481 
L 2356 0 
L 1766 0 
Q 1100 0 847 248 
Q 594 497 594 1153 
L 594 3053 
L 172 3053 
L 172 3500 
L 594 3500 
L 594 4494 
L 1172 4494 
z
" transform="scale(0.015625)"/>
       <path id="DejaVuSans-77" d="M 269 3500 
L 844 3500 
L 1563 769 
L 2278 3500 
L 2956 3500 
L 3675 769 
L 4391 3500 
L 4966 3500 
L 4050 0 
L 3372 0 
L 2619 2869 
L 1863 0 
L 1184 0 
L 269 3500 
z
" transform="scale(0.015625)"/>
       <path id="DejaVuSans-6d" d="M 3328 2828 
Q 3544 3216 3844 3400 
Q 4144 3584 4550 3584 
Q 5097 3584 5394 3201 
Q 5691 2819 5691 2113 
L 5691 0 
L 5113 0 
L 5113 2094 
Q 5113 2597 4934 2840 
Q 4756 3084 4391 3084 
Q 3944 3084 3684 2787 
Q 3425 2491 3425 1978 
L 3425 0 
L 2847 0 
L 2847 2094 
Q 2847 2600 2669 2842 
Q 2491 3084 2119 3084 
Q 1678 3084 1418 2786 
Q 1159 2488 1159 1978 
L 1159 0 
L 581 0 
L 581 3500 
L 1159 3500 
L 1159 2956 
Q 1356 3278 1631 3431 
Q 1906 3584 2284 3584 
Q 2666 3584 2933 3390 
Q 3200 3197 3328 2828 
z
" transform="scale(0.015625)"/>
       <path id="DejaVuSans-73" d="M 2834 3397 
L 2834 2853 
Q 2591 2978 2328 3040 
Q 2066 3103 1784 3103 
Q 1356 3103 1142 2972 
Q 928 2841 928 2578 
Q 928 2378 1081 2264 
Q 1234 2150 1697 2047 
L 1894 2003 
Q 2506 1872 2764 1633 
Q 3022 1394 3022 966 
Q 3022 478 2636 193 
Q 2250 -91 1575 -91 
Q 1294 -91 989 -36 
Q 684 19 347 128 
L 347 722 
Q 666 556 975 473 
Q 1284 391 1588 391 
Q 1994 391 2212 530 
Q 2431 669 2431 922 
Q 2431 1156 2273 1281 
Q 2116 1406 1581 1522 
L 1381 1569 
Q 847 1681 609 1914 
Q 372 2147 372 2553 
Q 372 3047 722 3315 
Q 1072 3584 1716 3584 
Q 2034 3584 2315 3537 
Q 2597 3491 2834 3397 
z
" transform="scale(0.015625)"/>
      </defs>
      <use xlink:href="#DejaVuSans-4d"/>
      <use xlink:href="#DejaVuSans-69" x="86.279297"/>
      <use xlink:href="#DejaVuSans-6e" x="114.0625"/>
      <use xlink:href="#DejaVuSans-20" x="177.441406"/>
      <use xlink:href="#DejaVuSans-69" x="209.228516"/>
      <use xlink:href="#DejaVuSans-64" x="237.011719"/>
      <use xlink:href="#DejaVuSans-65" x="300.488281"/>
      <use xlink:href="#DejaVuSans-61" x="362.011719"/>
      <use xlink:href="#DejaVuSans-6c" x="423.291016"/>
      <use xlink:href="#DejaVuSans-20" x="451.074219"/>
      <use xlink:href="#DejaVuSans-72" x="482.861328"/>
      <use xlink:href="#DejaVuSans-65" x="521.724609"/>
      <use xlink:href="#DejaVuSans-70" x="583.248047"/>
      <use xlink:href="#DejaVuSans-6f" x="646.724609"/>
      <use xlink:href="#DejaVuSans-72" x="707.90625"/>
      <use xlink:href="#DejaVuSans-74" x="749.019531"/>
      <use xlink:href="#DejaVuSans-65" x="788.228516"/>
      <use xlink:href="#DejaVuSans-64" x="849.751953"/>
      <use xlink:href="#DejaVuSans-20" x="913.228516"/>
      <use xlink:href="#DejaVuSans-77" x="945.015625"/>
      <use xlink:href="#DejaVuSans-61" x="1026.802734"/>
      <use xlink:href="#DejaVuSans-69" x="1088.082031"/>
      <use xlink:href="#DejaVuSans-74" x="1115.865234"/>
      <use xlink:href="#DejaVuSans-20" x="1155.074219"/>
      <use xlink:href="#DejaVuSans-74" x="1186.861328"/>
      <use xlink:href="#DejaVuSans-69" x="1226.070312"/>
      <use xlink:href="#DejaVuSans-6d" x="1253.853516"/>
      <use xlink:href="#DejaVuSans-65" x="1351.265625"/>
      <use xlink:href="#DejaVuSans-73" x="1412.789062"/>
     </g>
    </g>
    <g id="patch_49">
     <path d="M 418.304688 38.476563 
L 438.304688 38.476563 
L 438.304688 31.476563 
L 418.304688 31.476563 
z
" style="fill: #ff7f0e; opacity: 0.5"/>
    </g>
    <g id="text_18">
     <!-- Min actual reported wait times -->
     <g transform="translate(446.304688 38.476563) scale(0.1 -0.1)">
      <use xlink:href="#DejaVuSans-4d"/>
      <use xlink:href="#DejaVuSans-69" x="86.279297"/>
      <use xlink:href="#DejaVuSans-6e" x="114.0625"/>
      <use xlink:href="#DejaVuSans-20" x="177.441406"/>
      <use xlink:href="#DejaVuSans-61" x="209.228516"/>
      <use xlink:href="#DejaVuSans-63" x="270.507812"/>
      <use xlink:href="#DejaVuSans-74" x="325.488281"/>
      <use xlink:href="#DejaVuSans-75" x="364.697266"/>
      <use xlink:href="#DejaVuSans-61" x="428.076172"/>
      <use xlink:href="#DejaVuSans-6c" x="489.355469"/>
      <use xlink:href="#DejaVuSans-20" x="517.138672"/>
      <use xlink:href="#DejaVuSans-72" x="548.925781"/>
      <use xlink:href="#DejaVuSans-65" x="587.789062"/>
      <use xlink:href="#DejaVuSans-70" x="649.3125"/>
      <use xlink:href="#DejaVuSans-6f" x="712.789062"/>
      <use xlink:href="#DejaVuSans-72" x="773.970703"/>
      <use xlink:href="#DejaVuSans-74" x="815.083984"/>
      <use xlink:href="#DejaVuSans-65" x="854.292969"/>
      <use xlink:href="#DejaVuSans-64" x="915.816406"/>
      <use xlink:href="#DejaVuSans-20" x="979.292969"/>
      <use xlink:href="#DejaVuSans-77" x="1011.080078"/>
      <use xlink:href="#DejaVuSans-61" x="1092.867188"/>
      <use xlink:href="#DejaVuSans-69" x="1154.146484"/>
      <use xlink:href="#DejaVuSans-74" x="1181.929688"/>
      <use xlink:href="#DejaVuSans-20" x="1221.138672"/>
      <use xlink:href="#DejaVuSans-74" x="1252.925781"/>
      <use xlink:href="#DejaVuSans-69" x="1292.134766"/>
      <use xlink:href="#DejaVuSans-6d" x="1319.917969"/>
      <use xlink:href="#DejaVuSans-65" x="1417.330078"/>
      <use xlink:href="#DejaVuSans-73" x="1478.853516"/>
     </g>
    </g>
    <g id="patch_50">
     <path d="M 418.304688 53.154688 
L 438.304688 53.154688 
L 438.304688 46.154688 
L 418.304688 46.154688 
z
" style="fill: #2ca02c; opacity: 0.5"/>
    </g>
    <g id="text_19">
     <!-- Max ideal reported wait times -->
     <g transform="translate(446.304688 53.154688) scale(0.1 -0.1)">
      <defs>
       <path id="DejaVuSans-78" d="M 3513 3500 
L 2247 1797 
L 3578 0 
L 2900 0 
L 1881 1375 
L 863 0 
L 184 0 
L 1544 1831 
L 300 3500 
L 978 3500 
L 1906 2253 
L 2834 3500 
L 3513 3500 
z
" transform="scale(0.015625)"/>
      </defs>
      <use xlink:href="#DejaVuSans-4d"/>
      <use xlink:href="#DejaVuSans-61" x="86.279297"/>
      <use xlink:href="#DejaVuSans-78" x="147.558594"/>
      <use xlink:href="#DejaVuSans-20" x="206.738281"/>
      <use xlink:href="#DejaVuSans-69" x="238.525391"/>
      <use xlink:href="#DejaVuSans-64" x="266.308594"/>
      <use xlink:href="#DejaVuSans-65" x="329.785156"/>
      <use xlink:href="#DejaVuSans-61" x="391.308594"/>
      <use xlink:href="#DejaVuSans-6c" x="452.587891"/>
      <use xlink:href="#DejaVuSans-20" x="480.371094"/>
      <use xlink:href="#DejaVuSans-72" x="512.158203"/>
      <use xlink:href="#DejaVuSans-65" x="551.021484"/>
      <use xlink:href="#DejaVuSans-70" x="612.544922"/>
      <use xlink:href="#DejaVuSans-6f" x="676.021484"/>
      <use xlink:href="#DejaVuSans-72" x="737.203125"/>
      <use xlink:href="#DejaVuSans-74" x="778.316406"/>
      <use xlink:href="#DejaVuSans-65" x="817.525391"/>
      <use xlink:href="#DejaVuSans-64" x="879.048828"/>
      <use xlink:href="#DejaVuSans-20" x="942.525391"/>
      <use xlink:href="#DejaVuSans-77" x="974.3125"/>
      <use xlink:href="#DejaVuSans-61" x="1056.099609"/>
      <use xlink:href="#DejaVuSans-69" x="1117.378906"/>
      <use xlink:href="#DejaVuSans-74" x="1145.162109"/>
      <use xlink:href="#DejaVuSans-20" x="1184.371094"/>
      <use xlink:href="#DejaVuSans-74" x="1216.158203"/>
      <use xlink:href="#DejaVuSans-69" x="1255.367188"/>
      <use xlink:href="#DejaVuSans-6d" x="1283.150391"/>
      <use xlink:href="#DejaVuSans-65" x="1380.5625"/>
      <use xlink:href="#DejaVuSans-73" x="1442.085938"/>
     </g>
    </g>
    <g id="patch_51">
     <path d="M 418.304688 67.832813 
L 438.304688 67.832813 
L 438.304688 60.832813 
L 418.304688 60.832813 
z
" style="fill: #d62728; opacity: 0.5"/>
    </g>
    <g id="text_20">
     <!-- Max actual reported wait times -->
     <g transform="translate(446.304688 67.832813) scale(0.1 -0.1)">
      <use xlink:href="#DejaVuSans-4d"/>
      <use xlink:href="#DejaVuSans-61" x="86.279297"/>
      <use xlink:href="#DejaVuSans-78" x="147.558594"/>
      <use xlink:href="#DejaVuSans-20" x="206.738281"/>
      <use xlink:href="#DejaVuSans-61" x="238.525391"/>
      <use xlink:href="#DejaVuSans-63" x="299.804688"/>
      <use xlink:href="#DejaVuSans-74" x="354.785156"/>
      <use xlink:href="#DejaVuSans-75" x="393.994141"/>
      <use xlink:href="#DejaVuSans-61" x="457.373047"/>
      <use xlink:href="#DejaVuSans-6c" x="518.652344"/>
      <use xlink:href="#DejaVuSans-20" x="546.435547"/>
      <use xlink:href="#DejaVuSans-72" x="578.222656"/>
      <use xlink:href="#DejaVuSans-65" x="617.085938"/>
      <use xlink:href="#DejaVuSans-70" x="678.609375"/>
      <use xlink:href="#DejaVuSans-6f" x="742.085938"/>
      <use xlink:href="#DejaVuSans-72" x="803.267578"/>
      <use xlink:href="#DejaVuSans-74" x="844.380859"/>
      <use xlink:href="#DejaVuSans-65" x="883.589844"/>
      <use xlink:href="#DejaVuSans-64" x="945.113281"/>
      <use xlink:href="#DejaVuSans-20" x="1008.589844"/>
      <use xlink:href="#DejaVuSans-77" x="1040.376953"/>
      <use xlink:href="#DejaVuSans-61" x="1122.164062"/>
      <use xlink:href="#DejaVuSans-69" x="1183.443359"/>
      <use xlink:href="#DejaVuSans-74" x="1211.226562"/>
      <use xlink:href="#DejaVuSans-20" x="1250.435547"/>
      <use xlink:href="#DejaVuSans-74" x="1282.222656"/>
      <use xlink:href="#DejaVuSans-69" x="1321.431641"/>
      <use xlink:href="#DejaVuSans-6d" x="1349.214844"/>
      <use xlink:href="#DejaVuSans-65" x="1446.626953"/>
      <use xlink:href="#DejaVuSans-73" x="1508.150391"/>
     </g>
    </g>
   </g>
  </g>
 </g>
 <defs>
  <clipPath id="p84afebf950">
   <rect x="53.328125" y="7.2" width="558" height="326.16"/>
  </clipPath>
 </defs>
</svg>
