<?xml version="1.0" encoding="utf-8" standalone="no"?>
<!DOCTYPE svg PUBLIC "-//W3C//DTD SVG 1.1//EN"
  "http://www.w3.org/Graphics/SVG/1.1/DTD/svg11.dtd">
<svg xmlns:xlink="http://www.w3.org/1999/xlink" width="608.98125pt" height="414.11625pt" viewBox="0 0 608.98125 414.11625" xmlns="http://www.w3.org/2000/svg" version="1.1">
 <metadata>
  <rdf:RDF xmlns:dc="http://purl.org/dc/elements/1.1/" xmlns:cc="http://creativecommons.org/ns#" xmlns:rdf="http://www.w3.org/1999/02/22-rdf-syntax-ns#">
   <cc:Work>
    <dc:type rdf:resource="http://purl.org/dc/dcmitype/StillImage"/>
    <dc:date>2022-10-17T08:52:19.022746</dc:date>
    <dc:format>image/svg+xml</dc:format>
    <dc:creator>
     <cc:Agent>
      <dc:title>Matplotlib v3.6.0, https://matplotlib.org/</dc:title>
     </cc:Agent>
    </dc:creator>
   </cc:Work>
  </rdf:RDF>
 </metadata>
 <defs>
  <style type="text/css">*{stroke-linejoin: round; stroke-linecap: butt}</style>
 </defs>
 <g id="figure_1">
  <g id="patch_1">
   <path d="M 0 414.11625 
L 608.98125 414.11625 
L 608.98125 0 
L 0 0 
L 0 414.11625 
z
" style="fill: none"/>
  </g>
  <g id="axes_1">
   <g id="patch_2">
    <path d="M 43.78125 376.56 
L 601.78125 376.56 
L 601.78125 50.4 
L 43.78125 50.4 
z
" style="fill: #ffffff"/>
   </g>
   <g id="matplotlib.axis_1">
    <g id="xtick_1">
     <g id="line2d_1">
      <defs>
       <path id="m8cf7d9c735" d="M 0 0 
L 0 3.5 
" style="stroke: #000000; stroke-width: 0.8"/>
      </defs>
      <g>
       <use xlink:href="#m8cf7d9c735" x="114.31167" y="376.56" style="stroke: #000000; stroke-width: 0.8"/>
      </g>
     </g>
     <g id="text_1">
      <!-- −0.1 -->
      <g transform="translate(102.170263 391.158437) scale(0.1 -0.1)">
       <defs>
        <path id="DejaVuSans-2212" d="M 678 2272 
L 4684 2272 
L 4684 1741 
L 678 1741 
L 678 2272 
z
" transform="scale(0.015625)"/>
        <path id="DejaVuSans-30" d="M 2034 4250 
Q 1547 4250 1301 3770 
Q 1056 3291 1056 2328 
Q 1056 1369 1301 889 
Q 1547 409 2034 409 
Q 2525 409 2770 889 
Q 3016 1369 3016 2328 
Q 3016 3291 2770 3770 
Q 2525 4250 2034 4250 
z
M 2034 4750 
Q 2819 4750 3233 4129 
Q 3647 3509 3647 2328 
Q 3647 1150 3233 529 
Q 2819 -91 2034 -91 
Q 1250 -91 836 529 
Q 422 1150 422 2328 
Q 422 3509 836 4129 
Q 1250 4750 2034 4750 
z
" transform="scale(0.015625)"/>
        <path id="DejaVuSans-2e" d="M 684 794 
L 1344 794 
L 1344 0 
L 684 0 
L 684 794 
z
" transform="scale(0.015625)"/>
        <path id="DejaVuSans-31" d="M 794 531 
L 1825 531 
L 1825 4091 
L 703 3866 
L 703 4441 
L 1819 4666 
L 2450 4666 
L 2450 531 
L 3481 531 
L 3481 0 
L 794 0 
L 794 531 
z
" transform="scale(0.015625)"/>
       </defs>
       <use xlink:href="#DejaVuSans-2212"/>
       <use xlink:href="#DejaVuSans-30" x="83.789062"/>
       <use xlink:href="#DejaVuSans-2e" x="147.412109"/>
       <use xlink:href="#DejaVuSans-31" x="179.199219"/>
      </g>
     </g>
    </g>
    <g id="xtick_2">
     <g id="line2d_2">
      <g>
       <use xlink:href="#m8cf7d9c735" x="186.207823" y="376.56" style="stroke: #000000; stroke-width: 0.8"/>
      </g>
     </g>
     <g id="text_2">
      <!-- 0.0 -->
      <g transform="translate(178.256261 391.158437) scale(0.1 -0.1)">
       <use xlink:href="#DejaVuSans-30"/>
       <use xlink:href="#DejaVuSans-2e" x="63.623047"/>
       <use xlink:href="#DejaVuSans-30" x="95.410156"/>
      </g>
     </g>
    </g>
    <g id="xtick_3">
     <g id="line2d_3">
      <g>
       <use xlink:href="#m8cf7d9c735" x="258.103977" y="376.56" style="stroke: #000000; stroke-width: 0.8"/>
      </g>
     </g>
     <g id="text_3">
      <!-- 0.1 -->
      <g transform="translate(250.152415 391.158437) scale(0.1 -0.1)">
       <use xlink:href="#DejaVuSans-30"/>
       <use xlink:href="#DejaVuSans-2e" x="63.623047"/>
       <use xlink:href="#DejaVuSans-31" x="95.410156"/>
      </g>
     </g>
    </g>
    <g id="xtick_4">
     <g id="line2d_4">
      <g>
       <use xlink:href="#m8cf7d9c735" x="330.000131" y="376.56" style="stroke: #000000; stroke-width: 0.8"/>
      </g>
     </g>
     <g id="text_4">
      <!-- 0.2 -->
      <g transform="translate(322.048569 391.158437) scale(0.1 -0.1)">
       <defs>
        <path id="DejaVuSans-32" d="M 1228 531 
L 3431 531 
L 3431 0 
L 469 0 
L 469 531 
Q 828 903 1448 1529 
Q 2069 2156 2228 2338 
Q 2531 2678 2651 2914 
Q 2772 3150 2772 3378 
Q 2772 3750 2511 3984 
Q 2250 4219 1831 4219 
Q 1534 4219 1204 4116 
Q 875 4013 500 3803 
L 500 4441 
Q 881 4594 1212 4672 
Q 1544 4750 1819 4750 
Q 2544 4750 2975 4387 
Q 3406 4025 3406 3419 
Q 3406 3131 3298 2873 
Q 3191 2616 2906 2266 
Q 2828 2175 2409 1742 
Q 1991 1309 1228 531 
z
" transform="scale(0.015625)"/>
       </defs>
       <use xlink:href="#DejaVuSans-30"/>
       <use xlink:href="#DejaVuSans-2e" x="63.623047"/>
       <use xlink:href="#DejaVuSans-32" x="95.410156"/>
      </g>
     </g>
    </g>
    <g id="xtick_5">
     <g id="line2d_5">
      <g>
       <use xlink:href="#m8cf7d9c735" x="401.896285" y="376.56" style="stroke: #000000; stroke-width: 0.8"/>
      </g>
     </g>
     <g id="text_5">
      <!-- 0.3 -->
      <g transform="translate(393.944722 391.158437) scale(0.1 -0.1)">
       <defs>
        <path id="DejaVuSans-33" d="M 2597 2516 
Q 3050 2419 3304 2112 
Q 3559 1806 3559 1356 
Q 3559 666 3084 287 
Q 2609 -91 1734 -91 
Q 1441 -91 1130 -33 
Q 819 25 488 141 
L 488 750 
Q 750 597 1062 519 
Q 1375 441 1716 441 
Q 2309 441 2620 675 
Q 2931 909 2931 1356 
Q 2931 1769 2642 2001 
Q 2353 2234 1838 2234 
L 1294 2234 
L 1294 2753 
L 1863 2753 
Q 2328 2753 2575 2939 
Q 2822 3125 2822 3475 
Q 2822 3834 2567 4026 
Q 2313 4219 1838 4219 
Q 1578 4219 1281 4162 
Q 984 4106 628 3988 
L 628 4550 
Q 988 4650 1302 4700 
Q 1616 4750 1894 4750 
Q 2613 4750 3031 4423 
Q 3450 4097 3450 3541 
Q 3450 3153 3228 2886 
Q 3006 2619 2597 2516 
z
" transform="scale(0.015625)"/>
       </defs>
       <use xlink:href="#DejaVuSans-30"/>
       <use xlink:href="#DejaVuSans-2e" x="63.623047"/>
       <use xlink:href="#DejaVuSans-33" x="95.410156"/>
      </g>
     </g>
    </g>
    <g id="xtick_6">
     <g id="line2d_6">
      <g>
       <use xlink:href="#m8cf7d9c735" x="473.792439" y="376.56" style="stroke: #000000; stroke-width: 0.8"/>
      </g>
     </g>
     <g id="text_6">
      <!-- 0.4 -->
      <g transform="translate(465.840876 391.158437) scale(0.1 -0.1)">
       <defs>
        <path id="DejaVuSans-34" d="M 2419 4116 
L 825 1625 
L 2419 1625 
L 2419 4116 
z
M 2253 4666 
L 3047 4666 
L 3047 1625 
L 3713 1625 
L 3713 1100 
L 3047 1100 
L 3047 0 
L 2419 0 
L 2419 1100 
L 313 1100 
L 313 1709 
L 2253 4666 
z
" transform="scale(0.015625)"/>
       </defs>
       <use xlink:href="#DejaVuSans-30"/>
       <use xlink:href="#DejaVuSans-2e" x="63.623047"/>
       <use xlink:href="#DejaVuSans-34" x="95.410156"/>
      </g>
     </g>
    </g>
    <g id="xtick_7">
     <g id="line2d_7">
      <g>
       <use xlink:href="#m8cf7d9c735" x="545.688593" y="376.56" style="stroke: #000000; stroke-width: 0.8"/>
      </g>
     </g>
     <g id="text_7">
      <!-- 0.5 -->
      <g transform="translate(537.73703 391.158437) scale(0.1 -0.1)">
       <defs>
        <path id="DejaVuSans-35" d="M 691 4666 
L 3169 4666 
L 3169 4134 
L 1269 4134 
L 1269 2991 
Q 1406 3038 1543 3061 
Q 1681 3084 1819 3084 
Q 2600 3084 3056 2656 
Q 3513 2228 3513 1497 
Q 3513 744 3044 326 
Q 2575 -91 1722 -91 
Q 1428 -91 1123 -41 
Q 819 9 494 109 
L 494 744 
Q 775 591 1075 516 
Q 1375 441 1709 441 
Q 2250 441 2565 725 
Q 2881 1009 2881 1497 
Q 2881 1984 2565 2268 
Q 2250 2553 1709 2553 
Q 1456 2553 1204 2497 
Q 953 2441 691 2322 
L 691 4666 
z
" transform="scale(0.015625)"/>
       </defs>
       <use xlink:href="#DejaVuSans-30"/>
       <use xlink:href="#DejaVuSans-2e" x="63.623047"/>
       <use xlink:href="#DejaVuSans-35" x="95.410156"/>
      </g>
     </g>
    </g>
    <g id="text_8">
     <!-- Probability -->
     <g transform="translate(296.352344 404.836562) scale(0.1 -0.1)">
      <defs>
       <path id="DejaVuSans-50" d="M 1259 4147 
L 1259 2394 
L 2053 2394 
Q 2494 2394 2734 2622 
Q 2975 2850 2975 3272 
Q 2975 3691 2734 3919 
Q 2494 4147 2053 4147 
L 1259 4147 
z
M 628 4666 
L 2053 4666 
Q 2838 4666 3239 4311 
Q 3641 3956 3641 3272 
Q 3641 2581 3239 2228 
Q 2838 1875 2053 1875 
L 1259 1875 
L 1259 0 
L 628 0 
L 628 4666 
z
" transform="scale(0.015625)"/>
       <path id="DejaVuSans-72" d="M 2631 2963 
Q 2534 3019 2420 3045 
Q 2306 3072 2169 3072 
Q 1681 3072 1420 2755 
Q 1159 2438 1159 1844 
L 1159 0 
L 581 0 
L 581 3500 
L 1159 3500 
L 1159 2956 
Q 1341 3275 1631 3429 
Q 1922 3584 2338 3584 
Q 2397 3584 2469 3576 
Q 2541 3569 2628 3553 
L 2631 2963 
z
" transform="scale(0.015625)"/>
       <path id="DejaVuSans-6f" d="M 1959 3097 
Q 1497 3097 1228 2736 
Q 959 2375 959 1747 
Q 959 1119 1226 758 
Q 1494 397 1959 397 
Q 2419 397 2687 759 
Q 2956 1122 2956 1747 
Q 2956 2369 2687 2733 
Q 2419 3097 1959 3097 
z
M 1959 3584 
Q 2709 3584 3137 3096 
Q 3566 2609 3566 1747 
Q 3566 888 3137 398 
Q 2709 -91 1959 -91 
Q 1206 -91 779 398 
Q 353 888 353 1747 
Q 353 2609 779 3096 
Q 1206 3584 1959 3584 
z
" transform="scale(0.015625)"/>
       <path id="DejaVuSans-62" d="M 3116 1747 
Q 3116 2381 2855 2742 
Q 2594 3103 2138 3103 
Q 1681 3103 1420 2742 
Q 1159 2381 1159 1747 
Q 1159 1113 1420 752 
Q 1681 391 2138 391 
Q 2594 391 2855 752 
Q 3116 1113 3116 1747 
z
M 1159 2969 
Q 1341 3281 1617 3432 
Q 1894 3584 2278 3584 
Q 2916 3584 3314 3078 
Q 3713 2572 3713 1747 
Q 3713 922 3314 415 
Q 2916 -91 2278 -91 
Q 1894 -91 1617 61 
Q 1341 213 1159 525 
L 1159 0 
L 581 0 
L 581 4863 
L 1159 4863 
L 1159 2969 
z
" transform="scale(0.015625)"/>
       <path id="DejaVuSans-61" d="M 2194 1759 
Q 1497 1759 1228 1600 
Q 959 1441 959 1056 
Q 959 750 1161 570 
Q 1363 391 1709 391 
Q 2188 391 2477 730 
Q 2766 1069 2766 1631 
L 2766 1759 
L 2194 1759 
z
M 3341 1997 
L 3341 0 
L 2766 0 
L 2766 531 
Q 2569 213 2275 61 
Q 1981 -91 1556 -91 
Q 1019 -91 701 211 
Q 384 513 384 1019 
Q 384 1609 779 1909 
Q 1175 2209 1959 2209 
L 2766 2209 
L 2766 2266 
Q 2766 2663 2505 2880 
Q 2244 3097 1772 3097 
Q 1472 3097 1187 3025 
Q 903 2953 641 2809 
L 641 3341 
Q 956 3463 1253 3523 
Q 1550 3584 1831 3584 
Q 2591 3584 2966 3190 
Q 3341 2797 3341 1997 
z
" transform="scale(0.015625)"/>
       <path id="DejaVuSans-69" d="M 603 3500 
L 1178 3500 
L 1178 0 
L 603 0 
L 603 3500 
z
M 603 4863 
L 1178 4863 
L 1178 4134 
L 603 4134 
L 603 4863 
z
" transform="scale(0.015625)"/>
       <path id="DejaVuSans-6c" d="M 603 4863 
L 1178 4863 
L 1178 0 
L 603 0 
L 603 4863 
z
" transform="scale(0.015625)"/>
       <path id="DejaVuSans-74" d="M 1172 4494 
L 1172 3500 
L 2356 3500 
L 2356 3053 
L 1172 3053 
L 1172 1153 
Q 1172 725 1289 603 
Q 1406 481 1766 481 
L 2356 481 
L 2356 0 
L 1766 0 
Q 1100 0 847 248 
Q 594 497 594 1153 
L 594 3053 
L 172 3053 
L 172 3500 
L 594 3500 
L 594 4494 
L 1172 4494 
z
" transform="scale(0.015625)"/>
       <path id="DejaVuSans-79" d="M 2059 -325 
Q 1816 -950 1584 -1140 
Q 1353 -1331 966 -1331 
L 506 -1331 
L 506 -850 
L 844 -850 
Q 1081 -850 1212 -737 
Q 1344 -625 1503 -206 
L 1606 56 
L 191 3500 
L 800 3500 
L 1894 763 
L 2988 3500 
L 3597 3500 
L 2059 -325 
z
" transform="scale(0.015625)"/>
      </defs>
      <use xlink:href="#DejaVuSans-50"/>
      <use xlink:href="#DejaVuSans-72" x="58.552734"/>
      <use xlink:href="#DejaVuSans-6f" x="97.416016"/>
      <use xlink:href="#DejaVuSans-62" x="158.597656"/>
      <use xlink:href="#DejaVuSans-61" x="222.074219"/>
      <use xlink:href="#DejaVuSans-62" x="283.353516"/>
      <use xlink:href="#DejaVuSans-69" x="346.830078"/>
      <use xlink:href="#DejaVuSans-6c" x="374.613281"/>
      <use xlink:href="#DejaVuSans-69" x="402.396484"/>
      <use xlink:href="#DejaVuSans-74" x="430.179688"/>
      <use xlink:href="#DejaVuSans-79" x="469.388672"/>
     </g>
    </g>
   </g>
   <g id="matplotlib.axis_2">
    <g id="ytick_1">
     <g id="line2d_8">
      <defs>
       <path id="m78063fb3e1" d="M 0 0 
L -3.5 0 
" style="stroke: #000000; stroke-width: 0.8"/>
      </defs>
      <g>
       <use xlink:href="#m78063fb3e1" x="43.78125" y="335.169781" style="stroke: #000000; stroke-width: 0.8"/>
      </g>
     </g>
     <g id="text_9">
      <!-- 0.5 -->
      <g transform="translate(20.878125 338.969) scale(0.1 -0.1)">
       <use xlink:href="#DejaVuSans-30"/>
       <use xlink:href="#DejaVuSans-2e" x="63.623047"/>
       <use xlink:href="#DejaVuSans-35" x="95.410156"/>
      </g>
     </g>
    </g>
    <g id="ytick_2">
     <g id="line2d_9">
      <g>
       <use xlink:href="#m78063fb3e1" x="43.78125" y="292.004221" style="stroke: #000000; stroke-width: 0.8"/>
      </g>
     </g>
     <g id="text_10">
      <!-- 1.0 -->
      <g transform="translate(20.878125 295.803439) scale(0.1 -0.1)">
       <use xlink:href="#DejaVuSans-31"/>
       <use xlink:href="#DejaVuSans-2e" x="63.623047"/>
       <use xlink:href="#DejaVuSans-30" x="95.410156"/>
      </g>
     </g>
    </g>
    <g id="ytick_3">
     <g id="line2d_10">
      <g>
       <use xlink:href="#m78063fb3e1" x="43.78125" y="248.83866" style="stroke: #000000; stroke-width: 0.8"/>
      </g>
     </g>
     <g id="text_11">
      <!-- 1.5 -->
      <g transform="translate(20.878125 252.637879) scale(0.1 -0.1)">
       <use xlink:href="#DejaVuSans-31"/>
       <use xlink:href="#DejaVuSans-2e" x="63.623047"/>
       <use xlink:href="#DejaVuSans-35" x="95.410156"/>
      </g>
     </g>
    </g>
    <g id="ytick_4">
     <g id="line2d_11">
      <g>
       <use xlink:href="#m78063fb3e1" x="43.78125" y="205.6731" style="stroke: #000000; stroke-width: 0.8"/>
      </g>
     </g>
     <g id="text_12">
      <!-- 2.0 -->
      <g transform="translate(20.878125 209.472319) scale(0.1 -0.1)">
       <use xlink:href="#DejaVuSans-32"/>
       <use xlink:href="#DejaVuSans-2e" x="63.623047"/>
       <use xlink:href="#DejaVuSans-30" x="95.410156"/>
      </g>
     </g>
    </g>
    <g id="ytick_5">
     <g id="line2d_12">
      <g>
       <use xlink:href="#m78063fb3e1" x="43.78125" y="162.50754" style="stroke: #000000; stroke-width: 0.8"/>
      </g>
     </g>
     <g id="text_13">
      <!-- 2.5 -->
      <g transform="translate(20.878125 166.306759) scale(0.1 -0.1)">
       <use xlink:href="#DejaVuSans-32"/>
       <use xlink:href="#DejaVuSans-2e" x="63.623047"/>
       <use xlink:href="#DejaVuSans-35" x="95.410156"/>
      </g>
     </g>
    </g>
    <g id="ytick_6">
     <g id="line2d_13">
      <g>
       <use xlink:href="#m78063fb3e1" x="43.78125" y="119.34198" style="stroke: #000000; stroke-width: 0.8"/>
      </g>
     </g>
     <g id="text_14">
      <!-- 3.0 -->
      <g transform="translate(20.878125 123.141198) scale(0.1 -0.1)">
       <use xlink:href="#DejaVuSans-33"/>
       <use xlink:href="#DejaVuSans-2e" x="63.623047"/>
       <use xlink:href="#DejaVuSans-30" x="95.410156"/>
      </g>
     </g>
    </g>
    <g id="ytick_7">
     <g id="line2d_14">
      <g>
       <use xlink:href="#m78063fb3e1" x="43.78125" y="76.176419" style="stroke: #000000; stroke-width: 0.8"/>
      </g>
     </g>
     <g id="text_15">
      <!-- 3.5 -->
      <g transform="translate(20.878125 79.975638) scale(0.1 -0.1)">
       <use xlink:href="#DejaVuSans-33"/>
       <use xlink:href="#DejaVuSans-2e" x="63.623047"/>
       <use xlink:href="#DejaVuSans-35" x="95.410156"/>
      </g>
     </g>
    </g>
    <g id="text_16">
     <!-- Density -->
     <g transform="translate(14.798438 232.488594) rotate(-90) scale(0.1 -0.1)">
      <defs>
       <path id="DejaVuSans-44" d="M 1259 4147 
L 1259 519 
L 2022 519 
Q 2988 519 3436 956 
Q 3884 1394 3884 2338 
Q 3884 3275 3436 3711 
Q 2988 4147 2022 4147 
L 1259 4147 
z
M 628 4666 
L 1925 4666 
Q 3281 4666 3915 4102 
Q 4550 3538 4550 2338 
Q 4550 1131 3912 565 
Q 3275 0 1925 0 
L 628 0 
L 628 4666 
z
" transform="scale(0.015625)"/>
       <path id="DejaVuSans-65" d="M 3597 1894 
L 3597 1613 
L 953 1613 
Q 991 1019 1311 708 
Q 1631 397 2203 397 
Q 2534 397 2845 478 
Q 3156 559 3463 722 
L 3463 178 
Q 3153 47 2828 -22 
Q 2503 -91 2169 -91 
Q 1331 -91 842 396 
Q 353 884 353 1716 
Q 353 2575 817 3079 
Q 1281 3584 2069 3584 
Q 2775 3584 3186 3129 
Q 3597 2675 3597 1894 
z
M 3022 2063 
Q 3016 2534 2758 2815 
Q 2500 3097 2075 3097 
Q 1594 3097 1305 2825 
Q 1016 2553 972 2059 
L 3022 2063 
z
" transform="scale(0.015625)"/>
       <path id="DejaVuSans-6e" d="M 3513 2113 
L 3513 0 
L 2938 0 
L 2938 2094 
Q 2938 2591 2744 2837 
Q 2550 3084 2163 3084 
Q 1697 3084 1428 2787 
Q 1159 2491 1159 1978 
L 1159 0 
L 581 0 
L 581 3500 
L 1159 3500 
L 1159 2956 
Q 1366 3272 1645 3428 
Q 1925 3584 2291 3584 
Q 2894 3584 3203 3211 
Q 3513 2838 3513 2113 
z
" transform="scale(0.015625)"/>
       <path id="DejaVuSans-73" d="M 2834 3397 
L 2834 2853 
Q 2591 2978 2328 3040 
Q 2066 3103 1784 3103 
Q 1356 3103 1142 2972 
Q 928 2841 928 2578 
Q 928 2378 1081 2264 
Q 1234 2150 1697 2047 
L 1894 2003 
Q 2506 1872 2764 1633 
Q 3022 1394 3022 966 
Q 3022 478 2636 193 
Q 2250 -91 1575 -91 
Q 1294 -91 989 -36 
Q 684 19 347 128 
L 347 722 
Q 666 556 975 473 
Q 1284 391 1588 391 
Q 1994 391 2212 530 
Q 2431 669 2431 922 
Q 2431 1156 2273 1281 
Q 2116 1406 1581 1522 
L 1381 1569 
Q 847 1681 609 1914 
Q 372 2147 372 2553 
Q 372 3047 722 3315 
Q 1072 3584 1716 3584 
Q 2034 3584 2315 3537 
Q 2597 3491 2834 3397 
z
" transform="scale(0.015625)"/>
      </defs>
      <use xlink:href="#DejaVuSans-44"/>
      <use xlink:href="#DejaVuSans-65" x="77.001953"/>
      <use xlink:href="#DejaVuSans-6e" x="138.525391"/>
      <use xlink:href="#DejaVuSans-73" x="201.904297"/>
      <use xlink:href="#DejaVuSans-69" x="254.003906"/>
      <use xlink:href="#DejaVuSans-74" x="281.787109"/>
      <use xlink:href="#DejaVuSans-79" x="320.996094"/>
     </g>
    </g>
   </g>
   <g id="line2d_15">
    <path d="M 124.22838 361.734545 
L 128.128131 359.249623 
L 132.027881 356.511521 
L 135.927632 353.514931 
L 139.827382 350.257857 
L 144.117108 346.376343 
L 148.406833 342.189557 
L 153.086534 337.290452 
L 157.766234 332.070973 
L 162.83591 326.095361 
L 168.685536 318.854735 
L 176.095061 309.297548 
L 204.173265 272.652283 
L 211.582791 263.574242 
L 219.772267 253.903365 
L 241.220894 228.821663 
L 246.680545 221.955963 
L 251.75022 215.207422 
L 256.429921 208.589572 
L 260.719646 202.153761 
L 265.009372 195.340421 
L 269.689072 187.467923 
L 274.368773 179.148801 
L 279.438448 169.676482 
L 285.288074 158.259417 
L 293.867525 140.953142 
L 303.616901 121.390331 
L 308.686577 111.698545 
L 312.976302 103.959325 
L 316.876053 97.403464 
L 320.385828 91.971823 
L 323.505629 87.569 
L 326.235454 84.078355 
L 328.965279 80.951586 
L 331.305129 78.578228 
L 333.64498 76.501391 
L 335.98483 74.732177 
L 338.32468 73.280108 
L 340.274555 72.318049 
L 342.224431 71.585406 
L 344.174306 71.085041 
L 346.124181 70.819 
L 348.074056 70.788515 
L 350.023932 70.994021 
L 351.973807 71.435164 
L 353.923682 72.110825 
L 355.873557 73.019141 
L 357.823432 74.157538 
L 359.773308 75.522763 
L 362.113158 77.454911 
L 364.453008 79.700166 
L 366.792859 82.249496 
L 369.522684 85.594546 
L 372.252509 89.322158 
L 374.982334 93.413289 
L 378.102135 98.507952 
L 381.221935 104.019135 
L 384.731711 110.675981 
L 388.631461 118.583238 
L 392.921187 127.82516 
L 397.600887 138.456442 
L 403.060538 151.438321 
L 409.690114 167.805512 
L 420.21944 194.501697 
L 433.088616 227.00958 
L 440.498142 245.095286 
L 446.737743 259.730084 
L 452.197393 271.979179 
L 457.267069 282.818422 
L 461.94677 292.320221 
L 466.62647 301.303214 
L 470.916196 309.058363 
L 475.205921 316.33868 
L 479.105672 322.53608 
L 483.005422 328.328032 
L 486.905172 333.713909 
L 490.804923 338.696568 
L 494.314698 342.841254 
L 497.824474 346.670976 
L 501.334249 350.194285 
L 504.844025 353.421434 
L 508.3538 356.36416 
L 511.863575 359.035463 
L 513.813451 360.407367 
L 513.813451 360.407367 
" clip-path="url(#pb6b8cbb5ce)" style="fill: none; stroke: #1f77b4; stroke-width: 1.5; stroke-linecap: square"/>
   </g>
   <g id="line2d_16">
    <path d="M 100.29418 354.441425 
L 105.139129 351.273592 
L 109.984077 347.844696 
L 114.829025 344.157778 
L 120.077719 339.880579 
L 125.326413 335.322954 
L 130.978853 330.124046 
L 137.035038 324.255132 
L 143.898715 317.290644 
L 152.377375 308.349396 
L 181.85081 276.926809 
L 188.714487 270.114709 
L 194.770672 264.41282 
L 200.423112 259.391602 
L 205.671806 255.010849 
L 210.9205 250.912889 
L 216.169194 247.100032 
L 221.417888 243.565556 
L 226.666582 240.293571 
L 232.319021 237.034655 
L 238.375207 233.800194 
L 245.642629 230.178421 
L 269.86737 218.337226 
L 275.51981 215.190141 
L 280.768504 212.004239 
L 285.613452 208.79644 
L 290.054655 205.60497 
L 294.495858 202.15698 
L 298.93706 198.444003 
L 303.782008 194.091214 
L 308.626957 189.434818 
L 313.875651 184.077543 
L 319.931836 177.557876 
L 328.00675 168.489702 
L 340.926612 153.9412 
L 346.175306 148.371625 
L 350.616509 143.966896 
L 354.653966 140.285328 
L 358.287677 137.290427 
L 361.517642 134.920635 
L 364.343862 133.098614 
L 367.170082 131.532449 
L 369.996302 130.241107 
L 372.418776 129.366392 
L 374.84125 128.71681 
L 377.263724 128.301698 
L 379.686198 128.129417 
L 382.108672 128.207289 
L 384.531147 128.54153 
L 386.953621 129.137202 
L 389.376095 129.998168 
L 391.798569 131.127056 
L 394.221043 132.525236 
L 396.643517 134.192806 
L 399.065991 136.128584 
L 401.488466 138.330116 
L 404.314685 141.229431 
L 407.140905 144.477351 
L 409.967125 148.063651 
L 413.197091 152.56071 
L 416.427056 157.461976 
L 420.060767 163.428172 
L 423.694479 169.835172 
L 427.731935 177.418262 
L 432.173138 186.249838 
L 437.421832 197.228857 
L 443.478017 210.433184 
L 453.167914 232.17714 
L 464.069048 256.517733 
L 470.528979 270.414414 
L 476.181418 282.049502 
L 481.026367 291.543937 
L 485.871315 300.53781 
L 490.312518 308.306167 
L 494.349974 314.952739 
L 498.387431 321.191732 
L 502.424888 327.017352 
L 503.636125 328.684195 
L 503.636125 328.684195 
" clip-path="url(#pb6b8cbb5ce)" style="fill: none; stroke: #ff7f0e; stroke-width: 1.5; stroke-linecap: square"/>
   </g>
   <g id="line2d_17">
    <path d="M 69.144886 355.761179 
L 74.730472 352.793943 
L 80.316058 349.569545 
L 85.901643 346.086358 
L 91.487229 342.346036 
L 97.072814 338.353809 
L 103.16618 333.722082 
L 109.259546 328.818534 
L 115.860693 323.226268 
L 122.96962 316.919289 
L 131.601889 308.942939 
L 142.77306 298.286004 
L 163.592061 278.376935 
L 171.716549 270.943111 
L 178.825476 264.73365 
L 184.918842 259.685151 
L 191.012208 254.928881 
L 196.597794 250.851944 
L 202.183379 247.064484 
L 207.261184 243.883131 
L 212.33899 240.956462 
L 217.416795 238.285384 
L 222.4946 235.866645 
L 227.572405 233.692934 
L 232.65021 231.753088 
L 238.235795 229.871705 
L 243.821381 228.231423 
L 249.914747 226.684142 
L 256.515894 225.247437 
L 264.132601 223.829222 
L 273.780431 222.271925 
L 301.200578 217.984553 
L 310.848408 216.178085 
L 320.496238 214.144463 
L 331.667409 211.553681 
L 355.533093 205.92854 
L 363.1498 204.423341 
L 369.243166 203.437892 
L 374.828752 202.755692 
L 379.906557 202.354981 
L 384.476582 202.198762 
L 389.046606 202.25774 
L 393.616631 202.551208 
L 397.678875 203.023134 
L 401.741119 203.705156 
L 405.803363 204.606776 
L 409.865607 205.735926 
L 413.927851 207.098852 
L 417.990095 208.700021 
L 422.052339 210.542052 
L 426.114583 212.625668 
L 430.176827 214.949675 
L 434.239071 217.510955 
L 438.809096 220.669691 
L 443.379121 224.112385 
L 447.949145 227.826255 
L 453.02695 232.251933 
L 458.104755 236.968478 
L 463.690341 242.458977 
L 469.783707 248.762344 
L 476.892634 256.453911 
L 485.524903 266.146534 
L 501.773879 284.831214 
L 512.94505 297.504332 
L 521.069538 306.400909 
L 528.178465 313.862997 
L 534.779612 320.464532 
L 540.872978 326.241747 
L 546.458564 331.24834 
L 552.044149 335.963449 
L 557.629735 340.377386 
L 562.70754 344.124192 
L 567.785345 347.616697 
L 572.86315 350.856503 
L 576.417614 352.97604 
L 576.417614 352.97604 
" clip-path="url(#pb6b8cbb5ce)" style="fill: none; stroke: #2ca02c; stroke-width: 1.5; stroke-linecap: square"/>
   </g>
   <g id="line2d_18">
    <path d="M 132.999479 360.105423 
L 136.792744 357.459668 
L 140.58601 354.550346 
L 144.379275 351.370929 
L 148.172541 347.917754 
L 152.345133 343.802572 
L 156.517725 339.359675 
L 160.690318 334.598294 
L 165.242236 329.057908 
L 170.173482 322.677317 
L 175.484054 315.411826 
L 181.173952 307.241516 
L 188.00183 297.025708 
L 197.105668 282.953425 
L 227.451793 235.713318 
L 258.556571 187.989632 
L 268.419062 172.236657 
L 283.971451 146.862558 
L 292.695962 132.874046 
L 298.38586 124.134928 
L 303.317106 116.953118 
L 307.489698 111.247081 
L 311.282963 106.415091 
L 314.696902 102.397909 
L 318.110841 98.730579 
L 321.145454 95.790542 
L 324.180066 93.173302 
L 326.835352 91.162956 
L 329.490638 89.425648 
L 332.145924 87.971403 
L 334.421884 86.95678 
L 336.697843 86.161073 
L 338.973802 85.588087 
L 341.249762 85.240835 
L 343.525721 85.121544 
L 345.801681 85.231671 
L 348.07764 85.571916 
L 350.353599 86.142253 
L 352.629559 86.941953 
L 354.905518 87.969623 
L 357.181478 89.223239 
L 359.836763 90.967845 
L 362.492049 93.011323 
L 365.147335 95.347664 
L 367.802621 97.970022 
L 370.837234 101.307463 
L 373.871846 104.99617 
L 376.906459 109.0228 
L 380.320398 113.938997 
L 383.734337 119.243654 
L 387.527603 125.566259 
L 391.320868 132.309314 
L 395.49346 140.173157 
L 400.045379 149.233968 
L 404.976625 159.549405 
L 410.666523 171.996344 
L 417.115075 186.655533 
L 425.839585 207.095192 
L 444.805914 251.722851 
L 451.633792 267.105606 
L 457.32369 279.390003 
L 462.634262 290.312862 
L 467.186181 299.198065 
L 471.7381 307.599736 
L 475.910692 314.848789 
L 480.083284 321.645806 
L 483.87655 327.422146 
L 487.669815 332.80977 
L 491.463081 337.807898 
L 495.256347 342.419634 
L 499.049612 346.651689 
L 502.463551 350.144105 
L 505.87749 353.346327 
L 509.291429 356.269304 
L 511.946715 358.357528 
L 511.946715 358.357528 
" clip-path="url(#pb6b8cbb5ce)" style="fill: none; stroke: #d62728; stroke-width: 1.5; stroke-linecap: square"/>
   </g>
   <g id="line2d_19">
    <path d="M 199.521926 305.228421 
L 202.987058 296.319689 
L 206.718738 286.117901 
L 210.983516 273.770027 
L 215.781391 259.153784 
L 221.912008 239.709957 
L 235.772536 195.473514 
L 240.303862 181.870879 
L 244.302091 170.564243 
L 247.767223 161.414987 
L 250.965806 153.581518 
L 253.89784 146.963926 
L 256.829875 140.916837 
L 259.495361 135.9318 
L 262.160847 131.44241 
L 264.559784 127.825501 
L 266.958722 124.604023 
L 269.357659 121.767172 
L 271.756597 119.299272 
L 274.155534 117.180023 
L 276.554471 115.384854 
L 278.953409 113.885342 
L 281.352346 112.649717 
L 284.017832 111.54419 
L 286.949867 110.594735 
L 290.14845 109.797408 
L 294.679776 108.917595 
L 302.143137 107.489745 
L 305.608269 106.597949 
L 308.806852 105.545784 
L 311.738887 104.345903 
L 314.670921 102.894266 
L 317.602956 101.176627 
L 320.53499 99.190461 
L 323.467025 96.945054 
L 326.665608 94.224699 
L 330.397289 90.749722 
L 335.195163 85.950253 
L 345.32401 75.72387 
L 348.789142 72.60285 
L 351.721177 70.268019 
L 354.120114 68.622865 
L 356.252503 67.396011 
L 358.384892 66.419112 
L 360.250732 65.789637 
L 362.116572 65.387462 
L 363.982412 65.227671 
L 365.581704 65.294161 
L 367.180995 65.556871 
L 368.780287 66.022974 
L 370.379579 66.698839 
L 371.97887 67.589994 
L 373.84471 68.907943 
L 375.710551 70.531094 
L 377.576391 72.463627 
L 379.442231 74.708019 
L 381.57462 77.655808 
L 383.707009 81.01028 
L 385.839397 84.766983 
L 388.238335 89.464936 
L 390.637272 94.648319 
L 393.302758 100.954326 
L 396.234793 108.51956 
L 399.166827 116.696089 
L 402.365411 126.247825 
L 406.097091 138.120636 
L 410.361868 152.481548 
L 415.69284 171.299622 
L 424.488944 203.35319 
L 432.751951 233.142421 
L 438.082923 251.528652 
L 442.614249 266.369823 
L 446.612478 278.73876 
L 450.344158 289.596542 
L 453.80929 299.043467 
L 457.274422 307.853056 
L 460.473005 315.407372 
L 463.671588 322.404073 
L 465.803977 326.760449 
L 465.803977 326.760449 
" clip-path="url(#pb6b8cbb5ce)" style="fill: none; stroke: #9467bd; stroke-width: 1.5; stroke-linecap: square"/>
   </g>
   <g id="line2d_20">
    <path d="M 102.295176 355.392959 
L 106.839622 352.434579 
L 111.384069 349.228678 
L 116.341648 345.448364 
L 121.299226 341.376085 
L 126.256804 337.019779 
L 131.627514 331.994886 
L 137.411356 326.253903 
L 143.608329 319.765343 
L 150.631565 312.060552 
L 158.894196 302.648706 
L 186.574008 270.810847 
L 193.184113 263.703429 
L 198.967954 257.792504 
L 204.338664 252.603545 
L 209.709374 247.731823 
L 214.666952 243.532173 
L 219.624531 239.624495 
L 224.582109 236.006913 
L 229.539688 232.669291 
L 234.497266 229.593268 
L 239.867976 226.525431 
L 245.651817 223.480534 
L 252.675053 220.050772 
L 266.721525 213.536039 
L 274.571025 209.734746 
L 280.767998 206.479441 
L 286.138707 203.402575 
L 291.096286 200.30991 
L 296.053864 196.94821 
L 301.011443 193.303032 
L 305.969021 189.372666 
L 311.339731 184.80736 
L 317.123572 179.573033 
L 323.733677 173.276619 
L 345.629648 152.132496 
L 350.174095 148.195559 
L 354.30541 144.910599 
L 358.023594 142.248179 
L 361.328646 140.153804 
L 364.220567 138.556859 
L 367.112488 137.200649 
L 370.004409 136.103932 
L 372.483198 135.38371 
L 374.961987 134.877153 
L 377.440776 134.593535 
L 379.919565 134.541176 
L 382.398355 134.727375 
L 384.877144 135.158347 
L 387.355933 135.839169 
L 389.834722 136.773741 
L 392.313511 137.964748 
L 394.7923 139.413637 
L 397.27109 141.120604 
L 399.749879 143.084586 
L 402.228668 145.303272 
L 405.120589 148.208853 
L 408.01251 151.448519 
L 410.90443 155.012391 
L 414.209482 159.466954 
L 417.514535 164.308355 
L 421.232719 170.187338 
L 424.950902 176.487174 
L 429.082218 183.929297 
L 433.626665 192.581307 
L 438.997374 203.318512 
L 445.607479 217.082891 
L 457.175162 241.823149 
L 466.677187 261.91275 
L 473.287292 275.361978 
L 478.658002 285.815203 
L 483.61558 295.007715 
L 488.160027 303.002443 
L 492.704474 310.551881 
L 496.835789 317.009544 
L 500.967104 323.06965 
L 505.09842 328.726644 
L 509.229735 333.979897 
L 512.947919 338.365708 
L 515.013576 340.664224 
L 515.013576 340.664224 
" clip-path="url(#pb6b8cbb5ce)" style="fill: none; stroke: #8c564b; stroke-width: 1.5; stroke-linecap: square"/>
   </g>
   <g id="patch_3">
    <path d="M 43.78125 376.56 
L 43.78125 50.4 
" style="fill: none; stroke: #000000; stroke-width: 0.8; stroke-linejoin: miter; stroke-linecap: square"/>
   </g>
   <g id="patch_4">
    <path d="M 601.78125 376.56 
L 601.78125 50.4 
" style="fill: none; stroke: #000000; stroke-width: 0.8; stroke-linejoin: miter; stroke-linecap: square"/>
   </g>
   <g id="patch_5">
    <path d="M 43.78125 376.56 
L 601.78125 376.56 
" style="fill: none; stroke: #000000; stroke-width: 0.8; stroke-linejoin: miter; stroke-linecap: square"/>
   </g>
   <g id="patch_6">
    <path d="M 43.78125 50.4 
L 601.78125 50.4 
" style="fill: none; stroke: #000000; stroke-width: 0.8; stroke-linejoin: miter; stroke-linecap: square"/>
   </g>
   <g id="legend_1">
    <g id="patch_7">
     <path d="M 516.609375 146.46875 
L 594.78125 146.46875 
Q 596.78125 146.46875 596.78125 144.46875 
L 596.78125 57.4 
Q 596.78125 55.4 594.78125 55.4 
L 516.609375 55.4 
Q 514.609375 55.4 514.609375 57.4 
L 514.609375 144.46875 
Q 514.609375 146.46875 516.609375 146.46875 
z
" style="fill: #ffffff; opacity: 0.8; stroke: #cccccc; stroke-linejoin: miter"/>
    </g>
    <g id="line2d_21">
     <path d="M 518.609375 63.498437 
L 528.609375 63.498437 
L 538.609375 63.498437 
" style="fill: none; stroke: #1f77b4; stroke-width: 1.5; stroke-linecap: square"/>
    </g>
    <g id="text_17">
     <!-- Under 21 -->
     <g transform="translate(546.609375 66.998437) scale(0.1 -0.1)">
      <defs>
       <path id="DejaVuSans-55" d="M 556 4666 
L 1191 4666 
L 1191 1831 
Q 1191 1081 1462 751 
Q 1734 422 2344 422 
Q 2950 422 3222 751 
Q 3494 1081 3494 1831 
L 3494 4666 
L 4128 4666 
L 4128 1753 
Q 4128 841 3676 375 
Q 3225 -91 2344 -91 
Q 1459 -91 1007 375 
Q 556 841 556 1753 
L 556 4666 
z
" transform="scale(0.015625)"/>
       <path id="DejaVuSans-64" d="M 2906 2969 
L 2906 4863 
L 3481 4863 
L 3481 0 
L 2906 0 
L 2906 525 
Q 2725 213 2448 61 
Q 2172 -91 1784 -91 
Q 1150 -91 751 415 
Q 353 922 353 1747 
Q 353 2572 751 3078 
Q 1150 3584 1784 3584 
Q 2172 3584 2448 3432 
Q 2725 3281 2906 2969 
z
M 947 1747 
Q 947 1113 1208 752 
Q 1469 391 1925 391 
Q 2381 391 2643 752 
Q 2906 1113 2906 1747 
Q 2906 2381 2643 2742 
Q 2381 3103 1925 3103 
Q 1469 3103 1208 2742 
Q 947 2381 947 1747 
z
" transform="scale(0.015625)"/>
       <path id="DejaVuSans-20" transform="scale(0.015625)"/>
      </defs>
      <use xlink:href="#DejaVuSans-55"/>
      <use xlink:href="#DejaVuSans-6e" x="73.193359"/>
      <use xlink:href="#DejaVuSans-64" x="136.572266"/>
      <use xlink:href="#DejaVuSans-65" x="200.048828"/>
      <use xlink:href="#DejaVuSans-72" x="261.572266"/>
      <use xlink:href="#DejaVuSans-20" x="302.685547"/>
      <use xlink:href="#DejaVuSans-32" x="334.472656"/>
      <use xlink:href="#DejaVuSans-31" x="398.095703"/>
     </g>
    </g>
    <g id="line2d_22">
     <path d="M 518.609375 78.176562 
L 528.609375 78.176562 
L 538.609375 78.176562 
" style="fill: none; stroke: #ff7f0e; stroke-width: 1.5; stroke-linecap: square"/>
    </g>
    <g id="text_18">
     <!-- 21 - 35 -->
     <g transform="translate(546.609375 81.676562) scale(0.1 -0.1)">
      <defs>
       <path id="DejaVuSans-2d" d="M 313 2009 
L 1997 2009 
L 1997 1497 
L 313 1497 
L 313 2009 
z
" transform="scale(0.015625)"/>
      </defs>
      <use xlink:href="#DejaVuSans-32"/>
      <use xlink:href="#DejaVuSans-31" x="63.623047"/>
      <use xlink:href="#DejaVuSans-20" x="127.246094"/>
      <use xlink:href="#DejaVuSans-2d" x="159.033203"/>
      <use xlink:href="#DejaVuSans-20" x="195.117188"/>
      <use xlink:href="#DejaVuSans-33" x="226.904297"/>
      <use xlink:href="#DejaVuSans-35" x="290.527344"/>
     </g>
    </g>
    <g id="line2d_23">
     <path d="M 518.609375 92.854687 
L 528.609375 92.854687 
L 538.609375 92.854687 
" style="fill: none; stroke: #2ca02c; stroke-width: 1.5; stroke-linecap: square"/>
    </g>
    <g id="text_19">
     <!-- 35 - 40 -->
     <g transform="translate(546.609375 96.354687) scale(0.1 -0.1)">
      <use xlink:href="#DejaVuSans-33"/>
      <use xlink:href="#DejaVuSans-35" x="63.623047"/>
      <use xlink:href="#DejaVuSans-20" x="127.246094"/>
      <use xlink:href="#DejaVuSans-2d" x="159.033203"/>
      <use xlink:href="#DejaVuSans-20" x="195.117188"/>
      <use xlink:href="#DejaVuSans-34" x="226.904297"/>
      <use xlink:href="#DejaVuSans-30" x="290.527344"/>
     </g>
    </g>
    <g id="line2d_24">
     <path d="M 518.609375 107.532812 
L 528.609375 107.532812 
L 538.609375 107.532812 
" style="fill: none; stroke: #d62728; stroke-width: 1.5; stroke-linecap: square"/>
    </g>
    <g id="text_20">
     <!-- 40 - 64 -->
     <g transform="translate(546.609375 111.032812) scale(0.1 -0.1)">
      <defs>
       <path id="DejaVuSans-36" d="M 2113 2584 
Q 1688 2584 1439 2293 
Q 1191 2003 1191 1497 
Q 1191 994 1439 701 
Q 1688 409 2113 409 
Q 2538 409 2786 701 
Q 3034 994 3034 1497 
Q 3034 2003 2786 2293 
Q 2538 2584 2113 2584 
z
M 3366 4563 
L 3366 3988 
Q 3128 4100 2886 4159 
Q 2644 4219 2406 4219 
Q 1781 4219 1451 3797 
Q 1122 3375 1075 2522 
Q 1259 2794 1537 2939 
Q 1816 3084 2150 3084 
Q 2853 3084 3261 2657 
Q 3669 2231 3669 1497 
Q 3669 778 3244 343 
Q 2819 -91 2113 -91 
Q 1303 -91 875 529 
Q 447 1150 447 2328 
Q 447 3434 972 4092 
Q 1497 4750 2381 4750 
Q 2619 4750 2861 4703 
Q 3103 4656 3366 4563 
z
" transform="scale(0.015625)"/>
      </defs>
      <use xlink:href="#DejaVuSans-34"/>
      <use xlink:href="#DejaVuSans-30" x="63.623047"/>
      <use xlink:href="#DejaVuSans-20" x="127.246094"/>
      <use xlink:href="#DejaVuSans-2d" x="159.033203"/>
      <use xlink:href="#DejaVuSans-20" x="195.117188"/>
      <use xlink:href="#DejaVuSans-36" x="226.904297"/>
      <use xlink:href="#DejaVuSans-34" x="290.527344"/>
     </g>
    </g>
    <g id="line2d_25">
     <path d="M 518.609375 122.210937 
L 528.609375 122.210937 
L 538.609375 122.210937 
" style="fill: none; stroke: #9467bd; stroke-width: 1.5; stroke-linecap: square"/>
    </g>
    <g id="text_21">
     <!-- 65 + -->
     <g transform="translate(546.609375 125.710937) scale(0.1 -0.1)">
      <defs>
       <path id="DejaVuSans-2b" d="M 2944 4013 
L 2944 2272 
L 4684 2272 
L 4684 1741 
L 2944 1741 
L 2944 0 
L 2419 0 
L 2419 1741 
L 678 1741 
L 678 2272 
L 2419 2272 
L 2419 4013 
L 2944 4013 
z
" transform="scale(0.015625)"/>
      </defs>
      <use xlink:href="#DejaVuSans-36"/>
      <use xlink:href="#DejaVuSans-35" x="63.623047"/>
      <use xlink:href="#DejaVuSans-20" x="127.246094"/>
      <use xlink:href="#DejaVuSans-2b" x="159.033203"/>
     </g>
    </g>
    <g id="line2d_26">
     <path d="M 518.609375 136.889062 
L 528.609375 136.889062 
L 538.609375 136.889062 
" style="fill: none; stroke: #8c564b; stroke-width: 1.5; stroke-linecap: square"/>
    </g>
    <g id="text_22">
     <!-- All -->
     <g transform="translate(546.609375 140.389062) scale(0.1 -0.1)">
      <defs>
       <path id="DejaVuSans-41" d="M 2188 4044 
L 1331 1722 
L 3047 1722 
L 2188 4044 
z
M 1831 4666 
L 2547 4666 
L 4325 0 
L 3669 0 
L 3244 1197 
L 1141 1197 
L 716 0 
L 50 0 
L 1831 4666 
z
" transform="scale(0.015625)"/>
      </defs>
      <use xlink:href="#DejaVuSans-41"/>
      <use xlink:href="#DejaVuSans-6c" x="68.408203"/>
      <use xlink:href="#DejaVuSans-6c" x="96.191406"/>
     </g>
    </g>
   </g>
  </g>
  <g id="text_23">
   <!-- Density of Response Probability by Age -->
   <g transform="translate(196.155937 16.318125) scale(0.12 -0.12)">
    <defs>
     <path id="DejaVuSans-66" d="M 2375 4863 
L 2375 4384 
L 1825 4384 
Q 1516 4384 1395 4259 
Q 1275 4134 1275 3809 
L 1275 3500 
L 2222 3500 
L 2222 3053 
L 1275 3053 
L 1275 0 
L 697 0 
L 697 3053 
L 147 3053 
L 147 3500 
L 697 3500 
L 697 3744 
Q 697 4328 969 4595 
Q 1241 4863 1831 4863 
L 2375 4863 
z
" transform="scale(0.015625)"/>
     <path id="DejaVuSans-52" d="M 2841 2188 
Q 3044 2119 3236 1894 
Q 3428 1669 3622 1275 
L 4263 0 
L 3584 0 
L 2988 1197 
Q 2756 1666 2539 1819 
Q 2322 1972 1947 1972 
L 1259 1972 
L 1259 0 
L 628 0 
L 628 4666 
L 2053 4666 
Q 2853 4666 3247 4331 
Q 3641 3997 3641 3322 
Q 3641 2881 3436 2590 
Q 3231 2300 2841 2188 
z
M 1259 4147 
L 1259 2491 
L 2053 2491 
Q 2509 2491 2742 2702 
Q 2975 2913 2975 3322 
Q 2975 3731 2742 3939 
Q 2509 4147 2053 4147 
L 1259 4147 
z
" transform="scale(0.015625)"/>
     <path id="DejaVuSans-70" d="M 1159 525 
L 1159 -1331 
L 581 -1331 
L 581 3500 
L 1159 3500 
L 1159 2969 
Q 1341 3281 1617 3432 
Q 1894 3584 2278 3584 
Q 2916 3584 3314 3078 
Q 3713 2572 3713 1747 
Q 3713 922 3314 415 
Q 2916 -91 2278 -91 
Q 1894 -91 1617 61 
Q 1341 213 1159 525 
z
M 3116 1747 
Q 3116 2381 2855 2742 
Q 2594 3103 2138 3103 
Q 1681 3103 1420 2742 
Q 1159 2381 1159 1747 
Q 1159 1113 1420 752 
Q 1681 391 2138 391 
Q 2594 391 2855 752 
Q 3116 1113 3116 1747 
z
" transform="scale(0.015625)"/>
     <path id="DejaVuSans-67" d="M 2906 1791 
Q 2906 2416 2648 2759 
Q 2391 3103 1925 3103 
Q 1463 3103 1205 2759 
Q 947 2416 947 1791 
Q 947 1169 1205 825 
Q 1463 481 1925 481 
Q 2391 481 2648 825 
Q 2906 1169 2906 1791 
z
M 3481 434 
Q 3481 -459 3084 -895 
Q 2688 -1331 1869 -1331 
Q 1566 -1331 1297 -1286 
Q 1028 -1241 775 -1147 
L 775 -588 
Q 1028 -725 1275 -790 
Q 1522 -856 1778 -856 
Q 2344 -856 2625 -561 
Q 2906 -266 2906 331 
L 2906 616 
Q 2728 306 2450 153 
Q 2172 0 1784 0 
Q 1141 0 747 490 
Q 353 981 353 1791 
Q 353 2603 747 3093 
Q 1141 3584 1784 3584 
Q 2172 3584 2450 3431 
Q 2728 3278 2906 2969 
L 2906 3500 
L 3481 3500 
L 3481 434 
z
" transform="scale(0.015625)"/>
    </defs>
    <use xlink:href="#DejaVuSans-44"/>
    <use xlink:href="#DejaVuSans-65" x="77.001953"/>
    <use xlink:href="#DejaVuSans-6e" x="138.525391"/>
    <use xlink:href="#DejaVuSans-73" x="201.904297"/>
    <use xlink:href="#DejaVuSans-69" x="254.003906"/>
    <use xlink:href="#DejaVuSans-74" x="281.787109"/>
    <use xlink:href="#DejaVuSans-79" x="320.996094"/>
    <use xlink:href="#DejaVuSans-20" x="380.175781"/>
    <use xlink:href="#DejaVuSans-6f" x="411.962891"/>
    <use xlink:href="#DejaVuSans-66" x="473.144531"/>
    <use xlink:href="#DejaVuSans-20" x="508.349609"/>
    <use xlink:href="#DejaVuSans-52" x="540.136719"/>
    <use xlink:href="#DejaVuSans-65" x="605.119141"/>
    <use xlink:href="#DejaVuSans-73" x="666.642578"/>
    <use xlink:href="#DejaVuSans-70" x="718.742188"/>
    <use xlink:href="#DejaVuSans-6f" x="782.21875"/>
    <use xlink:href="#DejaVuSans-6e" x="843.400391"/>
    <use xlink:href="#DejaVuSans-73" x="906.779297"/>
    <use xlink:href="#DejaVuSans-65" x="958.878906"/>
    <use xlink:href="#DejaVuSans-20" x="1020.402344"/>
    <use xlink:href="#DejaVuSans-50" x="1052.189453"/>
    <use xlink:href="#DejaVuSans-72" x="1110.742188"/>
    <use xlink:href="#DejaVuSans-6f" x="1149.605469"/>
    <use xlink:href="#DejaVuSans-62" x="1210.787109"/>
    <use xlink:href="#DejaVuSans-61" x="1274.263672"/>
    <use xlink:href="#DejaVuSans-62" x="1335.542969"/>
    <use xlink:href="#DejaVuSans-69" x="1399.019531"/>
    <use xlink:href="#DejaVuSans-6c" x="1426.802734"/>
    <use xlink:href="#DejaVuSans-69" x="1454.585938"/>
    <use xlink:href="#DejaVuSans-74" x="1482.369141"/>
    <use xlink:href="#DejaVuSans-79" x="1521.578125"/>
    <use xlink:href="#DejaVuSans-20" x="1580.757812"/>
    <use xlink:href="#DejaVuSans-62" x="1612.544922"/>
    <use xlink:href="#DejaVuSans-79" x="1676.021484"/>
    <use xlink:href="#DejaVuSans-20" x="1735.201172"/>
    <use xlink:href="#DejaVuSans-41" x="1766.988281"/>
    <use xlink:href="#DejaVuSans-67" x="1835.396484"/>
    <use xlink:href="#DejaVuSans-65" x="1898.873047"/>
   </g>
  </g>
 </g>
 <defs>
  <clipPath id="pb6b8cbb5ce">
   <rect x="43.78125" y="50.4" width="558" height="326.16"/>
  </clipPath>
 </defs>
</svg>
